ISO-10303-21;
HEADER;
/* Generated by software containing ST-Developer
 * from STEP Tools, Inc. (www.steptools.com) 
 */

FILE_DESCRIPTION(
/* description */ (''),
/* implementation_level */ '2;1');

FILE_NAME(
/* name */ 'holder-fly v29.step',
/* time_stamp */ '2025-10-31T14:37:46-04:00',
/* author */ (''),
/* organization */ (''),
/* preprocessor_version */ 'ST-DEVELOPER v20.1',
/* originating_system */ 'Autodesk Translation Framework v14.17.0.0',
/* authorisation */ '');

FILE_SCHEMA (('AUTOMOTIVE_DESIGN { 1 0 10303 214 3 1 1 }'));
ENDSEC;

DATA;
#10=MECHANICAL_DESIGN_GEOMETRIC_PRESENTATION_REPRESENTATION('',(#23,#24),
#1915);
#11=ITEM_DEFINED_TRANSFORMATION($,$,#1145,#1252);
#12=ITEM_DEFINED_TRANSFORMATION($,$,#1215,#1253);
#13=(
REPRESENTATION_RELATIONSHIP($,$,#1929,#1928)
REPRESENTATION_RELATIONSHIP_WITH_TRANSFORMATION(#11)
SHAPE_REPRESENTATION_RELATIONSHIP()
);
#14=(
REPRESENTATION_RELATIONSHIP($,$,#1930,#1928)
REPRESENTATION_RELATIONSHIP_WITH_TRANSFORMATION(#12)
SHAPE_REPRESENTATION_RELATIONSHIP()
);
#15=CONTEXT_DEPENDENT_SHAPE_REPRESENTATION(#13,#1926);
#16=CONTEXT_DEPENDENT_SHAPE_REPRESENTATION(#14,#1927);
#17=NEXT_ASSEMBLY_USAGE_OCCURRENCE('Component1:1','Component1:1',
'Component1:1',#1932,#1933,'Component1:1');
#18=NEXT_ASSEMBLY_USAGE_OCCURRENCE('Component2:1','Component2:1',
'Component2:1',#1932,#1934,'Component2:1');
#19=SHAPE_REPRESENTATION_RELATIONSHIP('SRR','None',#1929,#21);
#20=SHAPE_REPRESENTATION_RELATIONSHIP('SRR','None',#1930,#22);
#21=ADVANCED_BREP_SHAPE_REPRESENTATION('',(#25),#1913);
#22=ADVANCED_BREP_SHAPE_REPRESENTATION('',(#26),#1914);
#23=STYLED_ITEM('',(#1947),#25);
#24=STYLED_ITEM('',(#1947),#26);
#25=MANIFOLD_SOLID_BREP('Body1',#1119);
#26=MANIFOLD_SOLID_BREP('Body1',#1120);
#27=ELLIPSE('',#1160,0.704939966906796,0.700000000000001);
#28=ELLIPSE('',#1164,0.7049399669068,0.700000000000005);
#29=ELLIPSE('',#1170,7.77817459305202,5.5);
#30=ELLIPSE('',#1181,7.77817459305203,5.5);
#31=FACE_BOUND('',#138,.T.);
#32=FACE_BOUND('',#149,.T.);
#33=FACE_BOUND('',#158,.T.);
#34=FACE_BOUND('',#169,.T.);
#35=FACE_BOUND('',#171,.T.);
#36=FACE_BOUND('',#172,.T.);
#37=FACE_BOUND('',#181,.T.);
#38=FACE_BOUND('',#187,.T.);
#39=FACE_BOUND('',#190,.T.);
#40=PLANE('',#1149);
#41=PLANE('',#1157);
#42=PLANE('',#1158);
#43=PLANE('',#1162);
#44=PLANE('',#1166);
#45=PLANE('',#1167);
#46=PLANE('',#1168);
#47=PLANE('',#1169);
#48=PLANE('',#1171);
#49=PLANE('',#1179);
#50=PLANE('',#1180);
#51=PLANE('',#1192);
#52=PLANE('',#1211);
#53=PLANE('',#1212);
#54=PLANE('',#1213);
#55=PLANE('',#1214);
#56=PLANE('',#1216);
#57=PLANE('',#1217);
#58=PLANE('',#1218);
#59=PLANE('',#1225);
#60=PLANE('',#1229);
#61=PLANE('',#1236);
#62=PLANE('',#1237);
#63=PLANE('',#1238);
#64=PLANE('',#1239);
#65=PLANE('',#1240);
#66=PLANE('',#1241);
#67=PLANE('',#1242);
#68=PLANE('',#1243);
#69=PLANE('',#1244);
#70=PLANE('',#1245);
#71=PLANE('',#1246);
#72=PLANE('',#1247);
#73=PLANE('',#1248);
#74=PLANE('',#1249);
#75=PLANE('',#1250);
#76=PLANE('',#1251);
#77=FACE_OUTER_BOUND('',#136,.T.);
#78=FACE_OUTER_BOUND('',#137,.T.);
#79=FACE_OUTER_BOUND('',#139,.T.);
#80=FACE_OUTER_BOUND('',#140,.T.);
#81=FACE_OUTER_BOUND('',#141,.T.);
#82=FACE_OUTER_BOUND('',#142,.T.);
#83=FACE_OUTER_BOUND('',#143,.T.);
#84=FACE_OUTER_BOUND('',#144,.T.);
#85=FACE_OUTER_BOUND('',#145,.T.);
#86=FACE_OUTER_BOUND('',#146,.T.);
#87=FACE_OUTER_BOUND('',#147,.T.);
#88=FACE_OUTER_BOUND('',#148,.T.);
#89=FACE_OUTER_BOUND('',#150,.T.);
#90=FACE_OUTER_BOUND('',#151,.T.);
#91=FACE_OUTER_BOUND('',#152,.T.);
#92=FACE_OUTER_BOUND('',#153,.T.);
#93=FACE_OUTER_BOUND('',#154,.T.);
#94=FACE_OUTER_BOUND('',#155,.T.);
#95=FACE_OUTER_BOUND('',#156,.T.);
#96=FACE_OUTER_BOUND('',#157,.T.);
#97=FACE_OUTER_BOUND('',#159,.T.);
#98=FACE_OUTER_BOUND('',#160,.T.);
#99=FACE_OUTER_BOUND('',#161,.T.);
#100=FACE_OUTER_BOUND('',#162,.T.);
#101=FACE_OUTER_BOUND('',#163,.T.);
#102=FACE_OUTER_BOUND('',#164,.T.);
#103=FACE_OUTER_BOUND('',#165,.T.);
#104=FACE_OUTER_BOUND('',#166,.T.);
#105=FACE_OUTER_BOUND('',#167,.T.);
#106=FACE_OUTER_BOUND('',#168,.T.);
#107=FACE_OUTER_BOUND('',#170,.T.);
#108=FACE_OUTER_BOUND('',#173,.T.);
#109=FACE_OUTER_BOUND('',#174,.T.);
#110=FACE_OUTER_BOUND('',#175,.T.);
#111=FACE_OUTER_BOUND('',#176,.T.);
#112=FACE_OUTER_BOUND('',#177,.T.);
#113=FACE_OUTER_BOUND('',#178,.T.);
#114=FACE_OUTER_BOUND('',#179,.T.);
#115=FACE_OUTER_BOUND('',#180,.T.);
#116=FACE_OUTER_BOUND('',#182,.T.);
#117=FACE_OUTER_BOUND('',#183,.T.);
#118=FACE_OUTER_BOUND('',#184,.T.);
#119=FACE_OUTER_BOUND('',#185,.T.);
#120=FACE_OUTER_BOUND('',#186,.T.);
#121=FACE_OUTER_BOUND('',#188,.T.);
#122=FACE_OUTER_BOUND('',#189,.T.);
#123=FACE_OUTER_BOUND('',#191,.T.);
#124=FACE_OUTER_BOUND('',#192,.T.);
#125=FACE_OUTER_BOUND('',#193,.T.);
#126=FACE_OUTER_BOUND('',#194,.T.);
#127=FACE_OUTER_BOUND('',#195,.T.);
#128=FACE_OUTER_BOUND('',#196,.T.);
#129=FACE_OUTER_BOUND('',#197,.T.);
#130=FACE_OUTER_BOUND('',#198,.T.);
#131=FACE_OUTER_BOUND('',#199,.T.);
#132=FACE_OUTER_BOUND('',#200,.T.);
#133=FACE_OUTER_BOUND('',#201,.T.);
#134=FACE_OUTER_BOUND('',#202,.T.);
#135=FACE_OUTER_BOUND('',#203,.T.);
#136=EDGE_LOOP('',(#726,#727,#728,#729));
#137=EDGE_LOOP('',(#730,#731,#732,#733,#734,#735,#736,#737,#738,#739,#740,
#741,#742,#743,#744));
#138=EDGE_LOOP('',(#745));
#139=EDGE_LOOP('',(#746,#747,#748,#749));
#140=EDGE_LOOP('',(#750,#751,#752,#753,#754,#755,#756,#757,#758,#759,#760,
#761));
#141=EDGE_LOOP('',(#762,#763,#764,#765));
#142=EDGE_LOOP('',(#766));
#143=EDGE_LOOP('',(#767,#768,#769,#770));
#144=EDGE_LOOP('',(#771));
#145=EDGE_LOOP('',(#772,#773,#774,#775,#776,#777));
#146=EDGE_LOOP('',(#778,#779,#780,#781));
#147=EDGE_LOOP('',(#782,#783,#784,#785,#786));
#148=EDGE_LOOP('',(#787,#788,#789,#790,#791,#792,#793,#794,#795,#796,#797,
#798,#799,#800,#801));
#149=EDGE_LOOP('',(#802));
#150=EDGE_LOOP('',(#803,#804,#805,#806));
#151=EDGE_LOOP('',(#807,#808,#809,#810,#811));
#152=EDGE_LOOP('',(#812,#813,#814,#815,#816));
#153=EDGE_LOOP('',(#817,#818,#819,#820));
#154=EDGE_LOOP('',(#821,#822,#823,#824));
#155=EDGE_LOOP('',(#825,#826,#827,#828));
#156=EDGE_LOOP('',(#829,#830,#831,#832));
#157=EDGE_LOOP('',(#833,#834,#835,#836,#837,#838,#839));
#158=EDGE_LOOP('',(#840));
#159=EDGE_LOOP('',(#841,#842,#843,#844));
#160=EDGE_LOOP('',(#845,#846,#847,#848,#849));
#161=EDGE_LOOP('',(#850,#851,#852,#853));
#162=EDGE_LOOP('',(#854,#855,#856,#857));
#163=EDGE_LOOP('',(#858,#859,#860,#861));
#164=EDGE_LOOP('',(#862,#863,#864,#865));
#165=EDGE_LOOP('',(#866,#867,#868,#869));
#166=EDGE_LOOP('',(#870,#871,#872,#873));
#167=EDGE_LOOP('',(#874,#875,#876,#877));
#168=EDGE_LOOP('',(#878,#879,#880,#881,#882,#883,#884));
#169=EDGE_LOOP('',(#885));
#170=EDGE_LOOP('',(#886,#887,#888,#889));
#171=EDGE_LOOP('',(#890));
#172=EDGE_LOOP('',(#891));
#173=EDGE_LOOP('',(#892,#893,#894,#895));
#174=EDGE_LOOP('',(#896,#897,#898,#899));
#175=EDGE_LOOP('',(#900,#901,#902,#903));
#176=EDGE_LOOP('',(#904,#905,#906,#907));
#177=EDGE_LOOP('',(#908,#909,#910,#911,#912,#913,#914,#915,#916,#917));
#178=EDGE_LOOP('',(#918,#919,#920,#921));
#179=EDGE_LOOP('',(#922,#923,#924,#925));
#180=EDGE_LOOP('',(#926,#927,#928,#929,#930,#931));
#181=EDGE_LOOP('',(#932));
#182=EDGE_LOOP('',(#933,#934,#935,#936));
#183=EDGE_LOOP('',(#937,#938,#939,#940));
#184=EDGE_LOOP('',(#941,#942,#943,#944));
#185=EDGE_LOOP('',(#945,#946,#947,#948));
#186=EDGE_LOOP('',(#949,#950,#951,#952,#953,#954));
#187=EDGE_LOOP('',(#955));
#188=EDGE_LOOP('',(#956,#957,#958,#959));
#189=EDGE_LOOP('',(#960,#961,#962,#963));
#190=EDGE_LOOP('',(#964,#965,#966,#967));
#191=EDGE_LOOP('',(#968,#969,#970,#971,#972,#973,#974,#975,#976,#977));
#192=EDGE_LOOP('',(#978,#979,#980,#981));
#193=EDGE_LOOP('',(#982,#983,#984,#985,#986,#987));
#194=EDGE_LOOP('',(#988,#989,#990,#991,#992,#993));
#195=EDGE_LOOP('',(#994,#995,#996,#997,#998,#999,#1000,#1001));
#196=EDGE_LOOP('',(#1002,#1003,#1004,#1005,#1006,#1007,#1008,#1009));
#197=EDGE_LOOP('',(#1010,#1011,#1012,#1013));
#198=EDGE_LOOP('',(#1014,#1015,#1016,#1017));
#199=EDGE_LOOP('',(#1018,#1019,#1020,#1021));
#200=EDGE_LOOP('',(#1022,#1023,#1024,#1025));
#201=EDGE_LOOP('',(#1026,#1027,#1028,#1029));
#202=EDGE_LOOP('',(#1030,#1031,#1032,#1033));
#203=EDGE_LOOP('',(#1034,#1035,#1036,#1037));
#204=LINE('',#1591,#314);
#205=LINE('',#1594,#315);
#206=LINE('',#1597,#316);
#207=LINE('',#1599,#317);
#208=LINE('',#1601,#318);
#209=LINE('',#1603,#319);
#210=LINE('',#1605,#320);
#211=LINE('',#1607,#321);
#212=LINE('',#1609,#322);
#213=LINE('',#1622,#323);
#214=LINE('',#1627,#324);
#215=LINE('',#1628,#325);
#216=LINE('',#1631,#326);
#217=LINE('',#1633,#327);
#218=LINE('',#1635,#328);
#219=LINE('',#1637,#329);
#220=LINE('',#1639,#330);
#221=LINE('',#1641,#331);
#222=LINE('',#1643,#332);
#223=LINE('',#1645,#333);
#224=LINE('',#1647,#334);
#225=LINE('',#1648,#335);
#226=LINE('',#1653,#336);
#227=LINE('',#1660,#337);
#228=LINE('',#1666,#338);
#229=LINE('',#1668,#339);
#230=LINE('',#1669,#340);
#231=LINE('',#1671,#341);
#232=LINE('',#1672,#342);
#233=LINE('',#1674,#343);
#234=LINE('',#1675,#344);
#235=LINE('',#1678,#345);
#236=LINE('',#1693,#346);
#237=LINE('',#1695,#347);
#238=LINE('',#1697,#348);
#239=LINE('',#1698,#349);
#240=LINE('',#1702,#350);
#241=LINE('',#1708,#351);
#242=LINE('',#1712,#352);
#243=LINE('',#1716,#353);
#244=LINE('',#1720,#354);
#245=LINE('',#1724,#355);
#246=LINE('',#1735,#356);
#247=LINE('',#1738,#357);
#248=LINE('',#1742,#358);
#249=LINE('',#1744,#359);
#250=LINE('',#1747,#360);
#251=LINE('',#1750,#361);
#252=LINE('',#1754,#362);
#253=LINE('',#1760,#363);
#254=LINE('',#1762,#364);
#255=LINE('',#1768,#365);
#256=LINE('',#1770,#366);
#257=LINE('',#1772,#367);
#258=LINE('',#1773,#368);
#259=LINE('',#1776,#369);
#260=LINE('',#1778,#370);
#261=LINE('',#1779,#371);
#262=LINE('',#1782,#372);
#263=LINE('',#1784,#373);
#264=LINE('',#1786,#374);
#265=LINE('',#1788,#375);
#266=LINE('',#1790,#376);
#267=LINE('',#1792,#377);
#268=LINE('',#1794,#378);
#269=LINE('',#1795,#379);
#270=LINE('',#1801,#380);
#271=LINE('',#1804,#381);
#272=LINE('',#1810,#382);
#273=LINE('',#1813,#383);
#274=LINE('',#1816,#384);
#275=LINE('',#1817,#385);
#276=LINE('',#1825,#386);
#277=LINE('',#1826,#387);
#278=LINE('',#1829,#388);
#279=LINE('',#1834,#389);
#280=LINE('',#1838,#390);
#281=LINE('',#1841,#391);
#282=LINE('',#1843,#392);
#283=LINE('',#1844,#393);
#284=LINE('',#1847,#394);
#285=LINE('',#1848,#395);
#286=LINE('',#1850,#396);
#287=LINE('',#1852,#397);
#288=LINE('',#1854,#398);
#289=LINE('',#1856,#399);
#290=LINE('',#1858,#400);
#291=LINE('',#1859,#401);
#292=LINE('',#1861,#402);
#293=LINE('',#1865,#403);
#294=LINE('',#1867,#404);
#295=LINE('',#1869,#405);
#296=LINE('',#1871,#406);
#297=LINE('',#1873,#407);
#298=LINE('',#1874,#408);
#299=LINE('',#1878,#409);
#300=LINE('',#1880,#410);
#301=LINE('',#1882,#411);
#302=LINE('',#1884,#412);
#303=LINE('',#1886,#413);
#304=LINE('',#1887,#414);
#305=LINE('',#1889,#415);
#306=LINE('',#1890,#416);
#307=LINE('',#1891,#417);
#308=LINE('',#1892,#418);
#309=LINE('',#1894,#419);
#310=LINE('',#1897,#420);
#311=LINE('',#1900,#421);
#312=LINE('',#1902,#422);
#313=LINE('',#1904,#423);
#314=VECTOR('',#1262,10.);
#315=VECTOR('',#1265,10.);
#316=VECTOR('',#1268,10.);
#317=VECTOR('',#1269,10.);
#318=VECTOR('',#1270,10.);
#319=VECTOR('',#1271,10.);
#320=VECTOR('',#1272,10.);
#321=VECTOR('',#1273,10.);
#322=VECTOR('',#1274,10.);
#323=VECTOR('',#1287,10.);
#324=VECTOR('',#1292,10.);
#325=VECTOR('',#1293,10.);
#326=VECTOR('',#1296,10.);
#327=VECTOR('',#1297,10.);
#328=VECTOR('',#1298,5.5);
#329=VECTOR('',#1299,10.);
#330=VECTOR('',#1300,10.);
#331=VECTOR('',#1301,10.);
#332=VECTOR('',#1302,5.5);
#333=VECTOR('',#1303,10.);
#334=VECTOR('',#1304,10.);
#335=VECTOR('',#1305,10.);
#336=VECTOR('',#1310,0.600000000000001);
#337=VECTOR('',#1319,0.600000000000005);
#338=VECTOR('',#1326,10.);
#339=VECTOR('',#1327,10.);
#340=VECTOR('',#1328,10.);
#341=VECTOR('',#1329,10.);
#342=VECTOR('',#1330,10.);
#343=VECTOR('',#1333,10.);
#344=VECTOR('',#1334,10.);
#345=VECTOR('',#1337,10.);
#346=VECTOR('',#1354,10.);
#347=VECTOR('',#1355,10.);
#348=VECTOR('',#1356,10.);
#349=VECTOR('',#1357,10.);
#350=VECTOR('',#1362,10.);
#351=VECTOR('',#1371,10.);
#352=VECTOR('',#1376,10.);
#353=VECTOR('',#1381,5.5);
#354=VECTOR('',#1386,10.);
#355=VECTOR('',#1391,10.);
#356=VECTOR('',#1404,10.);
#357=VECTOR('',#1407,10.);
#358=VECTOR('',#1414,5.5);
#359=VECTOR('',#1417,5.5);
#360=VECTOR('',#1420,5.5);
#361=VECTOR('',#1425,2.25);
#362=VECTOR('',#1430,2.25);
#363=VECTOR('',#1441,10.);
#364=VECTOR('',#1444,10.);
#365=VECTOR('',#1451,10.);
#366=VECTOR('',#1452,10.);
#367=VECTOR('',#1453,10.);
#368=VECTOR('',#1454,10.);
#369=VECTOR('',#1457,10.);
#370=VECTOR('',#1458,10.);
#371=VECTOR('',#1459,10.);
#372=VECTOR('',#1462,10.);
#373=VECTOR('',#1463,10.);
#374=VECTOR('',#1464,10.);
#375=VECTOR('',#1465,10.);
#376=VECTOR('',#1466,10.);
#377=VECTOR('',#1467,10.);
#378=VECTOR('',#1468,10.);
#379=VECTOR('',#1469,10.);
#380=VECTOR('',#1474,1.25);
#381=VECTOR('',#1477,10.);
#382=VECTOR('',#1482,0.5);
#383=VECTOR('',#1485,0.5);
#384=VECTOR('',#1488,10.);
#385=VECTOR('',#1489,10.);
#386=VECTOR('',#1498,10.);
#387=VECTOR('',#1499,10.);
#388=VECTOR('',#1502,10.);
#389=VECTOR('',#1509,2.25);
#390=VECTOR('',#1516,10.);
#391=VECTOR('',#1519,10.);
#392=VECTOR('',#1520,10.);
#393=VECTOR('',#1521,10.);
#394=VECTOR('',#1524,10.);
#395=VECTOR('',#1525,10.);
#396=VECTOR('',#1528,10.);
#397=VECTOR('',#1529,10.);
#398=VECTOR('',#1530,10.);
#399=VECTOR('',#1531,10.);
#400=VECTOR('',#1532,10.);
#401=VECTOR('',#1533,10.);
#402=VECTOR('',#1536,10.);
#403=VECTOR('',#1539,10.);
#404=VECTOR('',#1540,10.);
#405=VECTOR('',#1541,10.);
#406=VECTOR('',#1542,10.);
#407=VECTOR('',#1543,10.);
#408=VECTOR('',#1544,10.);
#409=VECTOR('',#1547,10.);
#410=VECTOR('',#1548,10.);
#411=VECTOR('',#1549,10.);
#412=VECTOR('',#1550,10.);
#413=VECTOR('',#1551,10.);
#414=VECTOR('',#1552,10.);
#415=VECTOR('',#1555,10.);
#416=VECTOR('',#1556,10.);
#417=VECTOR('',#1557,10.);
#418=VECTOR('',#1558,10.);
#419=VECTOR('',#1561,10.);
#420=VECTOR('',#1566,10.);
#421=VECTOR('',#1571,10.);
#422=VECTOR('',#1574,10.);
#423=VECTOR('',#1577,10.);
#424=CIRCLE('',#1147,0.09);
#425=CIRCLE('',#1148,0.09);
#426=CIRCLE('',#1150,5.5);
#427=CIRCLE('',#1151,5.5);
#428=CIRCLE('',#1152,5.5);
#429=CIRCLE('',#1153,3.25);
#430=CIRCLE('',#1154,5.5);
#431=CIRCLE('',#1155,0.15);
#432=CIRCLE('',#1156,2.25);
#433=CIRCLE('',#1161,0.700000000000001);
#434=CIRCLE('',#1165,0.700000000000005);
#435=CIRCLE('',#1172,0.15);
#436=CIRCLE('',#1173,5.5);
#437=CIRCLE('',#1174,3.25);
#438=CIRCLE('',#1175,5.5);
#439=CIRCLE('',#1176,5.5);
#440=CIRCLE('',#1177,5.5);
#441=CIRCLE('',#1178,2.25);
#442=CIRCLE('',#1183,5.5);
#443=CIRCLE('',#1185,0.15);
#444=CIRCLE('',#1187,5.5);
#445=CIRCLE('',#1189,0.15);
#446=CIRCLE('',#1191,5.5);
#447=CIRCLE('',#1193,5.5);
#448=CIRCLE('',#1194,3.25);
#449=CIRCLE('',#1195,5.5);
#450=CIRCLE('',#1196,2.25);
#451=CIRCLE('',#1198,5.5);
#452=CIRCLE('',#1200,5.5);
#453=CIRCLE('',#1204,5.5);
#454=CIRCLE('',#1208,2.25);
#455=CIRCLE('',#1210,3.25);
#456=CIRCLE('',#1220,1.25);
#457=CIRCLE('',#1221,1.25);
#458=CIRCLE('',#1223,0.5);
#459=CIRCLE('',#1224,0.5);
#460=CIRCLE('',#1226,3.25);
#461=CIRCLE('',#1227,0.5);
#462=CIRCLE('',#1228,2.25);
#463=CIRCLE('',#1231,0.5);
#464=CIRCLE('',#1233,2.25);
#465=CIRCLE('',#1235,3.25);
#466=VERTEX_POINT('',#1587);
#467=VERTEX_POINT('',#1588);
#468=VERTEX_POINT('',#1590);
#469=VERTEX_POINT('',#1592);
#470=VERTEX_POINT('',#1596);
#471=VERTEX_POINT('',#1598);
#472=VERTEX_POINT('',#1600);
#473=VERTEX_POINT('',#1602);
#474=VERTEX_POINT('',#1604);
#475=VERTEX_POINT('',#1606);
#476=VERTEX_POINT('',#1608);
#477=VERTEX_POINT('',#1610);
#478=VERTEX_POINT('',#1612);
#479=VERTEX_POINT('',#1614);
#480=VERTEX_POINT('',#1616);
#481=VERTEX_POINT('',#1618);
#482=VERTEX_POINT('',#1620);
#483=VERTEX_POINT('',#1623);
#484=VERTEX_POINT('',#1626);
#485=VERTEX_POINT('',#1630);
#486=VERTEX_POINT('',#1632);
#487=VERTEX_POINT('',#1634);
#488=VERTEX_POINT('',#1636);
#489=VERTEX_POINT('',#1638);
#490=VERTEX_POINT('',#1640);
#491=VERTEX_POINT('',#1642);
#492=VERTEX_POINT('',#1644);
#493=VERTEX_POINT('',#1646);
#494=VERTEX_POINT('',#1650);
#495=VERTEX_POINT('',#1652);
#496=VERTEX_POINT('',#1657);
#497=VERTEX_POINT('',#1659);
#498=VERTEX_POINT('',#1664);
#499=VERTEX_POINT('',#1665);
#500=VERTEX_POINT('',#1667);
#501=VERTEX_POINT('',#1670);
#502=VERTEX_POINT('',#1677);
#503=VERTEX_POINT('',#1681);
#504=VERTEX_POINT('',#1683);
#505=VERTEX_POINT('',#1685);
#506=VERTEX_POINT('',#1687);
#507=VERTEX_POINT('',#1689);
#508=VERTEX_POINT('',#1692);
#509=VERTEX_POINT('',#1694);
#510=VERTEX_POINT('',#1696);
#511=VERTEX_POINT('',#1699);
#512=VERTEX_POINT('',#1706);
#513=VERTEX_POINT('',#1710);
#514=VERTEX_POINT('',#1714);
#515=VERTEX_POINT('',#1718);
#516=VERTEX_POINT('',#1722);
#517=VERTEX_POINT('',#1726);
#518=VERTEX_POINT('',#1728);
#519=VERTEX_POINT('',#1731);
#520=VERTEX_POINT('',#1734);
#521=VERTEX_POINT('',#1736);
#522=VERTEX_POINT('',#1746);
#523=VERTEX_POINT('',#1753);
#524=VERTEX_POINT('',#1766);
#525=VERTEX_POINT('',#1767);
#526=VERTEX_POINT('',#1769);
#527=VERTEX_POINT('',#1771);
#528=VERTEX_POINT('',#1775);
#529=VERTEX_POINT('',#1777);
#530=VERTEX_POINT('',#1781);
#531=VERTEX_POINT('',#1783);
#532=VERTEX_POINT('',#1785);
#533=VERTEX_POINT('',#1787);
#534=VERTEX_POINT('',#1789);
#535=VERTEX_POINT('',#1791);
#536=VERTEX_POINT('',#1793);
#537=VERTEX_POINT('',#1797);
#538=VERTEX_POINT('',#1798);
#539=VERTEX_POINT('',#1800);
#540=VERTEX_POINT('',#1802);
#541=VERTEX_POINT('',#1806);
#542=VERTEX_POINT('',#1807);
#543=VERTEX_POINT('',#1809);
#544=VERTEX_POINT('',#1811);
#545=VERTEX_POINT('',#1815);
#546=VERTEX_POINT('',#1818);
#547=VERTEX_POINT('',#1821);
#548=VERTEX_POINT('',#1824);
#549=VERTEX_POINT('',#1828);
#550=VERTEX_POINT('',#1832);
#551=VERTEX_POINT('',#1840);
#552=VERTEX_POINT('',#1842);
#553=VERTEX_POINT('',#1846);
#554=VERTEX_POINT('',#1851);
#555=VERTEX_POINT('',#1853);
#556=VERTEX_POINT('',#1855);
#557=VERTEX_POINT('',#1857);
#558=VERTEX_POINT('',#1863);
#559=VERTEX_POINT('',#1864);
#560=VERTEX_POINT('',#1866);
#561=VERTEX_POINT('',#1868);
#562=VERTEX_POINT('',#1870);
#563=VERTEX_POINT('',#1872);
#564=VERTEX_POINT('',#1876);
#565=VERTEX_POINT('',#1877);
#566=VERTEX_POINT('',#1879);
#567=VERTEX_POINT('',#1881);
#568=VERTEX_POINT('',#1883);
#569=VERTEX_POINT('',#1885);
#570=EDGE_CURVE('',#466,#467,#424,.T.);
#571=EDGE_CURVE('',#467,#468,#204,.T.);
#572=EDGE_CURVE('',#468,#469,#425,.T.);
#573=EDGE_CURVE('',#469,#466,#205,.T.);
#574=EDGE_CURVE('',#470,#468,#206,.T.);
#575=EDGE_CURVE('',#471,#470,#207,.T.);
#576=EDGE_CURVE('',#472,#471,#208,.T.);
#577=EDGE_CURVE('',#473,#472,#209,.T.);
#578=EDGE_CURVE('',#473,#474,#210,.F.);
#579=EDGE_CURVE('',#475,#474,#211,.T.);
#580=EDGE_CURVE('',#476,#475,#212,.T.);
#581=EDGE_CURVE('',#477,#476,#426,.T.);
#582=EDGE_CURVE('',#478,#477,#427,.T.);
#583=EDGE_CURVE('',#479,#478,#428,.T.);
#584=EDGE_CURVE('',#479,#480,#429,.T.);
#585=EDGE_CURVE('',#481,#480,#430,.T.);
#586=EDGE_CURVE('',#482,#481,#431,.T.);
#587=EDGE_CURVE('',#469,#482,#213,.T.);
#588=EDGE_CURVE('',#483,#483,#432,.T.);
#589=EDGE_CURVE('',#484,#467,#214,.F.);
#590=EDGE_CURVE('',#470,#484,#215,.T.);
#591=EDGE_CURVE('',#485,#482,#216,.T.);
#592=EDGE_CURVE('',#485,#486,#217,.F.);
#593=EDGE_CURVE('',#487,#486,#218,.T.);
#594=EDGE_CURVE('',#488,#487,#219,.T.);
#595=EDGE_CURVE('',#488,#489,#220,.T.);
#596=EDGE_CURVE('',#490,#489,#221,.T.);
#597=EDGE_CURVE('',#491,#490,#222,.T.);
#598=EDGE_CURVE('',#491,#492,#223,.F.);
#599=EDGE_CURVE('',#493,#492,#224,.T.);
#600=EDGE_CURVE('',#466,#493,#225,.T.);
#601=EDGE_CURVE('',#494,#494,#27,.F.);
#602=EDGE_CURVE('',#494,#495,#226,.T.);
#603=EDGE_CURVE('',#495,#495,#433,.F.);
#604=EDGE_CURVE('',#496,#496,#28,.F.);
#605=EDGE_CURVE('',#496,#497,#227,.T.);
#606=EDGE_CURVE('',#497,#497,#434,.F.);
#607=EDGE_CURVE('',#498,#499,#228,.T.);
#608=EDGE_CURVE('',#499,#500,#229,.T.);
#609=EDGE_CURVE('',#500,#475,#230,.T.);
#610=EDGE_CURVE('',#474,#501,#231,.T.);
#611=EDGE_CURVE('',#501,#498,#232,.T.);
#612=EDGE_CURVE('',#489,#499,#233,.T.);
#613=EDGE_CURVE('',#500,#488,#234,.T.);
#614=EDGE_CURVE('',#498,#502,#235,.T.);
#615=EDGE_CURVE('',#502,#490,#29,.T.);
#616=EDGE_CURVE('',#503,#493,#435,.T.);
#617=EDGE_CURVE('',#504,#503,#436,.T.);
#618=EDGE_CURVE('',#504,#505,#437,.T.);
#619=EDGE_CURVE('',#506,#505,#438,.T.);
#620=EDGE_CURVE('',#507,#506,#439,.T.);
#621=EDGE_CURVE('',#507,#502,#440,.F.);
#622=EDGE_CURVE('',#501,#508,#236,.F.);
#623=EDGE_CURVE('',#508,#509,#237,.F.);
#624=EDGE_CURVE('',#509,#510,#238,.F.);
#625=EDGE_CURVE('',#510,#484,#239,.F.);
#626=EDGE_CURVE('',#511,#511,#441,.T.);
#627=EDGE_CURVE('',#473,#508,#240,.F.);
#628=EDGE_CURVE('',#487,#476,#30,.T.);
#629=EDGE_CURVE('',#486,#512,#442,.T.);
#630=EDGE_CURVE('',#477,#512,#241,.T.);
#631=EDGE_CURVE('',#492,#513,#443,.T.);
#632=EDGE_CURVE('',#513,#503,#242,.T.);
#633=EDGE_CURVE('',#514,#513,#444,.F.);
#634=EDGE_CURVE('',#514,#504,#243,.T.);
#635=EDGE_CURVE('',#515,#485,#445,.T.);
#636=EDGE_CURVE('',#481,#515,#244,.T.);
#637=EDGE_CURVE('',#512,#516,#446,.T.);
#638=EDGE_CURVE('',#516,#478,#245,.T.);
#639=EDGE_CURVE('',#515,#517,#447,.F.);
#640=EDGE_CURVE('',#518,#517,#448,.T.);
#641=EDGE_CURVE('',#518,#516,#449,.F.);
#642=EDGE_CURVE('',#519,#519,#450,.T.);
#643=EDGE_CURVE('',#506,#520,#246,.T.);
#644=EDGE_CURVE('',#520,#521,#451,.T.);
#645=EDGE_CURVE('',#521,#507,#247,.T.);
#646=EDGE_CURVE('',#491,#521,#452,.F.);
#647=EDGE_CURVE('',#480,#517,#248,.T.);
#648=EDGE_CURVE('',#518,#479,#249,.T.);
#649=EDGE_CURVE('',#505,#522,#250,.T.);
#650=EDGE_CURVE('',#520,#522,#453,.F.);
#651=EDGE_CURVE('',#483,#519,#251,.T.);
#652=EDGE_CURVE('',#511,#523,#252,.T.);
#653=EDGE_CURVE('',#523,#523,#454,.T.);
#654=EDGE_CURVE('',#514,#522,#455,.T.);
#655=EDGE_CURVE('',#471,#510,#253,.T.);
#656=EDGE_CURVE('',#472,#509,#254,.F.);
#657=EDGE_CURVE('',#524,#525,#255,.T.);
#658=EDGE_CURVE('',#526,#524,#256,.T.);
#659=EDGE_CURVE('',#527,#526,#257,.T.);
#660=EDGE_CURVE('',#525,#527,#258,.T.);
#661=EDGE_CURVE('',#524,#528,#259,.T.);
#662=EDGE_CURVE('',#528,#529,#260,.T.);
#663=EDGE_CURVE('',#526,#529,#261,.T.);
#664=EDGE_CURVE('',#525,#530,#262,.T.);
#665=EDGE_CURVE('',#530,#531,#263,.F.);
#666=EDGE_CURVE('',#532,#531,#264,.T.);
#667=EDGE_CURVE('',#533,#532,#265,.T.);
#668=EDGE_CURVE('',#534,#533,#266,.T.);
#669=EDGE_CURVE('',#534,#535,#267,.T.);
#670=EDGE_CURVE('',#536,#535,#268,.T.);
#671=EDGE_CURVE('',#536,#528,#269,.T.);
#672=EDGE_CURVE('',#537,#538,#456,.T.);
#673=EDGE_CURVE('',#538,#539,#270,.T.);
#674=EDGE_CURVE('',#540,#539,#457,.F.);
#675=EDGE_CURVE('',#537,#540,#271,.T.);
#676=EDGE_CURVE('',#541,#542,#458,.T.);
#677=EDGE_CURVE('',#542,#543,#272,.T.);
#678=EDGE_CURVE('',#543,#544,#459,.T.);
#679=EDGE_CURVE('',#544,#541,#273,.T.);
#680=EDGE_CURVE('',#541,#545,#274,.T.);
#681=EDGE_CURVE('',#540,#545,#275,.T.);
#682=EDGE_CURVE('',#539,#546,#460,.T.);
#683=EDGE_CURVE('',#542,#546,#461,.T.);
#684=EDGE_CURVE('',#547,#547,#462,.T.);
#685=EDGE_CURVE('',#548,#544,#276,.T.);
#686=EDGE_CURVE('',#545,#548,#277,.T.);
#687=EDGE_CURVE('',#546,#549,#278,.T.);
#688=EDGE_CURVE('',#549,#543,#463,.T.);
#689=EDGE_CURVE('',#550,#550,#464,.T.);
#690=EDGE_CURVE('',#550,#547,#279,.T.);
#691=EDGE_CURVE('',#549,#538,#465,.T.);
#692=EDGE_CURVE('',#548,#537,#280,.T.);
#693=EDGE_CURVE('',#535,#551,#281,.T.);
#694=EDGE_CURVE('',#551,#552,#282,.T.);
#695=EDGE_CURVE('',#552,#536,#283,.T.);
#696=EDGE_CURVE('',#553,#534,#284,.T.);
#697=EDGE_CURVE('',#551,#553,#285,.T.);
#698=EDGE_CURVE('',#529,#552,#286,.T.);
#699=EDGE_CURVE('',#553,#554,#287,.T.);
#700=EDGE_CURVE('',#554,#555,#288,.F.);
#701=EDGE_CURVE('',#555,#556,#289,.T.);
#702=EDGE_CURVE('',#556,#557,#290,.F.);
#703=EDGE_CURVE('',#557,#527,#291,.T.);
#704=EDGE_CURVE('',#533,#554,#292,.T.);
#705=EDGE_CURVE('',#558,#559,#293,.F.);
#706=EDGE_CURVE('',#560,#559,#294,.T.);
#707=EDGE_CURVE('',#561,#560,#295,.T.);
#708=EDGE_CURVE('',#561,#562,#296,.F.);
#709=EDGE_CURVE('',#562,#563,#297,.F.);
#710=EDGE_CURVE('',#563,#558,#298,.F.);
#711=EDGE_CURVE('',#564,#565,#299,.T.);
#712=EDGE_CURVE('',#566,#565,#300,.F.);
#713=EDGE_CURVE('',#567,#566,#301,.F.);
#714=EDGE_CURVE('',#568,#567,#302,.F.);
#715=EDGE_CURVE('',#568,#569,#303,.T.);
#716=EDGE_CURVE('',#564,#569,#304,.F.);
#717=EDGE_CURVE('',#569,#560,#305,.T.);
#718=EDGE_CURVE('',#532,#559,#306,.T.);
#719=EDGE_CURVE('',#531,#556,#307,.F.);
#720=EDGE_CURVE('',#564,#555,#308,.T.);
#721=EDGE_CURVE('',#565,#558,#309,.T.);
#722=EDGE_CURVE('',#530,#557,#310,.F.);
#723=EDGE_CURVE('',#566,#563,#311,.F.);
#724=EDGE_CURVE('',#567,#562,#312,.T.);
#725=EDGE_CURVE('',#568,#561,#313,.F.);
#726=ORIENTED_EDGE('',*,*,#570,.T.);
#727=ORIENTED_EDGE('',*,*,#571,.T.);
#728=ORIENTED_EDGE('',*,*,#572,.T.);
#729=ORIENTED_EDGE('',*,*,#573,.T.);
#730=ORIENTED_EDGE('',*,*,#572,.F.);
#731=ORIENTED_EDGE('',*,*,#574,.F.);
#732=ORIENTED_EDGE('',*,*,#575,.F.);
#733=ORIENTED_EDGE('',*,*,#576,.F.);
#734=ORIENTED_EDGE('',*,*,#577,.F.);
#735=ORIENTED_EDGE('',*,*,#578,.T.);
#736=ORIENTED_EDGE('',*,*,#579,.F.);
#737=ORIENTED_EDGE('',*,*,#580,.F.);
#738=ORIENTED_EDGE('',*,*,#581,.F.);
#739=ORIENTED_EDGE('',*,*,#582,.F.);
#740=ORIENTED_EDGE('',*,*,#583,.F.);
#741=ORIENTED_EDGE('',*,*,#584,.T.);
#742=ORIENTED_EDGE('',*,*,#585,.F.);
#743=ORIENTED_EDGE('',*,*,#586,.F.);
#744=ORIENTED_EDGE('',*,*,#587,.F.);
#745=ORIENTED_EDGE('',*,*,#588,.T.);
#746=ORIENTED_EDGE('',*,*,#571,.F.);
#747=ORIENTED_EDGE('',*,*,#589,.F.);
#748=ORIENTED_EDGE('',*,*,#590,.F.);
#749=ORIENTED_EDGE('',*,*,#574,.T.);
#750=ORIENTED_EDGE('',*,*,#573,.F.);
#751=ORIENTED_EDGE('',*,*,#587,.T.);
#752=ORIENTED_EDGE('',*,*,#591,.F.);
#753=ORIENTED_EDGE('',*,*,#592,.T.);
#754=ORIENTED_EDGE('',*,*,#593,.F.);
#755=ORIENTED_EDGE('',*,*,#594,.F.);
#756=ORIENTED_EDGE('',*,*,#595,.T.);
#757=ORIENTED_EDGE('',*,*,#596,.F.);
#758=ORIENTED_EDGE('',*,*,#597,.F.);
#759=ORIENTED_EDGE('',*,*,#598,.T.);
#760=ORIENTED_EDGE('',*,*,#599,.F.);
#761=ORIENTED_EDGE('',*,*,#600,.F.);
#762=ORIENTED_EDGE('',*,*,#601,.F.);
#763=ORIENTED_EDGE('',*,*,#602,.T.);
#764=ORIENTED_EDGE('',*,*,#603,.T.);
#765=ORIENTED_EDGE('',*,*,#602,.F.);
#766=ORIENTED_EDGE('',*,*,#603,.F.);
#767=ORIENTED_EDGE('',*,*,#604,.F.);
#768=ORIENTED_EDGE('',*,*,#605,.T.);
#769=ORIENTED_EDGE('',*,*,#606,.T.);
#770=ORIENTED_EDGE('',*,*,#605,.F.);
#771=ORIENTED_EDGE('',*,*,#606,.F.);
#772=ORIENTED_EDGE('',*,*,#607,.T.);
#773=ORIENTED_EDGE('',*,*,#608,.T.);
#774=ORIENTED_EDGE('',*,*,#609,.T.);
#775=ORIENTED_EDGE('',*,*,#579,.T.);
#776=ORIENTED_EDGE('',*,*,#610,.T.);
#777=ORIENTED_EDGE('',*,*,#611,.T.);
#778=ORIENTED_EDGE('',*,*,#608,.F.);
#779=ORIENTED_EDGE('',*,*,#612,.F.);
#780=ORIENTED_EDGE('',*,*,#595,.F.);
#781=ORIENTED_EDGE('',*,*,#613,.F.);
#782=ORIENTED_EDGE('',*,*,#607,.F.);
#783=ORIENTED_EDGE('',*,*,#614,.T.);
#784=ORIENTED_EDGE('',*,*,#615,.T.);
#785=ORIENTED_EDGE('',*,*,#596,.T.);
#786=ORIENTED_EDGE('',*,*,#612,.T.);
#787=ORIENTED_EDGE('',*,*,#570,.F.);
#788=ORIENTED_EDGE('',*,*,#600,.T.);
#789=ORIENTED_EDGE('',*,*,#616,.F.);
#790=ORIENTED_EDGE('',*,*,#617,.F.);
#791=ORIENTED_EDGE('',*,*,#618,.T.);
#792=ORIENTED_EDGE('',*,*,#619,.F.);
#793=ORIENTED_EDGE('',*,*,#620,.F.);
#794=ORIENTED_EDGE('',*,*,#621,.T.);
#795=ORIENTED_EDGE('',*,*,#614,.F.);
#796=ORIENTED_EDGE('',*,*,#611,.F.);
#797=ORIENTED_EDGE('',*,*,#622,.T.);
#798=ORIENTED_EDGE('',*,*,#623,.T.);
#799=ORIENTED_EDGE('',*,*,#624,.T.);
#800=ORIENTED_EDGE('',*,*,#625,.T.);
#801=ORIENTED_EDGE('',*,*,#589,.T.);
#802=ORIENTED_EDGE('',*,*,#626,.T.);
#803=ORIENTED_EDGE('',*,*,#610,.F.);
#804=ORIENTED_EDGE('',*,*,#578,.F.);
#805=ORIENTED_EDGE('',*,*,#627,.T.);
#806=ORIENTED_EDGE('',*,*,#622,.F.);
#807=ORIENTED_EDGE('',*,*,#609,.F.);
#808=ORIENTED_EDGE('',*,*,#613,.T.);
#809=ORIENTED_EDGE('',*,*,#594,.T.);
#810=ORIENTED_EDGE('',*,*,#628,.T.);
#811=ORIENTED_EDGE('',*,*,#580,.T.);
#812=ORIENTED_EDGE('',*,*,#628,.F.);
#813=ORIENTED_EDGE('',*,*,#593,.T.);
#814=ORIENTED_EDGE('',*,*,#629,.T.);
#815=ORIENTED_EDGE('',*,*,#630,.F.);
#816=ORIENTED_EDGE('',*,*,#581,.T.);
#817=ORIENTED_EDGE('',*,*,#631,.T.);
#818=ORIENTED_EDGE('',*,*,#632,.T.);
#819=ORIENTED_EDGE('',*,*,#616,.T.);
#820=ORIENTED_EDGE('',*,*,#599,.T.);
#821=ORIENTED_EDGE('',*,*,#632,.F.);
#822=ORIENTED_EDGE('',*,*,#633,.F.);
#823=ORIENTED_EDGE('',*,*,#634,.T.);
#824=ORIENTED_EDGE('',*,*,#617,.T.);
#825=ORIENTED_EDGE('',*,*,#635,.T.);
#826=ORIENTED_EDGE('',*,*,#591,.T.);
#827=ORIENTED_EDGE('',*,*,#586,.T.);
#828=ORIENTED_EDGE('',*,*,#636,.T.);
#829=ORIENTED_EDGE('',*,*,#582,.T.);
#830=ORIENTED_EDGE('',*,*,#630,.T.);
#831=ORIENTED_EDGE('',*,*,#637,.T.);
#832=ORIENTED_EDGE('',*,*,#638,.T.);
#833=ORIENTED_EDGE('',*,*,#637,.F.);
#834=ORIENTED_EDGE('',*,*,#629,.F.);
#835=ORIENTED_EDGE('',*,*,#592,.F.);
#836=ORIENTED_EDGE('',*,*,#635,.F.);
#837=ORIENTED_EDGE('',*,*,#639,.T.);
#838=ORIENTED_EDGE('',*,*,#640,.F.);
#839=ORIENTED_EDGE('',*,*,#641,.T.);
#840=ORIENTED_EDGE('',*,*,#642,.F.);
#841=ORIENTED_EDGE('',*,*,#620,.T.);
#842=ORIENTED_EDGE('',*,*,#643,.T.);
#843=ORIENTED_EDGE('',*,*,#644,.T.);
#844=ORIENTED_EDGE('',*,*,#645,.T.);
#845=ORIENTED_EDGE('',*,*,#615,.F.);
#846=ORIENTED_EDGE('',*,*,#621,.F.);
#847=ORIENTED_EDGE('',*,*,#645,.F.);
#848=ORIENTED_EDGE('',*,*,#646,.F.);
#849=ORIENTED_EDGE('',*,*,#597,.T.);
#850=ORIENTED_EDGE('',*,*,#636,.F.);
#851=ORIENTED_EDGE('',*,*,#585,.T.);
#852=ORIENTED_EDGE('',*,*,#647,.T.);
#853=ORIENTED_EDGE('',*,*,#639,.F.);
#854=ORIENTED_EDGE('',*,*,#638,.F.);
#855=ORIENTED_EDGE('',*,*,#641,.F.);
#856=ORIENTED_EDGE('',*,*,#648,.T.);
#857=ORIENTED_EDGE('',*,*,#583,.T.);
#858=ORIENTED_EDGE('',*,*,#643,.F.);
#859=ORIENTED_EDGE('',*,*,#619,.T.);
#860=ORIENTED_EDGE('',*,*,#649,.T.);
#861=ORIENTED_EDGE('',*,*,#650,.F.);
#862=ORIENTED_EDGE('',*,*,#588,.F.);
#863=ORIENTED_EDGE('',*,*,#651,.T.);
#864=ORIENTED_EDGE('',*,*,#642,.T.);
#865=ORIENTED_EDGE('',*,*,#651,.F.);
#866=ORIENTED_EDGE('',*,*,#647,.F.);
#867=ORIENTED_EDGE('',*,*,#584,.F.);
#868=ORIENTED_EDGE('',*,*,#648,.F.);
#869=ORIENTED_EDGE('',*,*,#640,.T.);
#870=ORIENTED_EDGE('',*,*,#626,.F.);
#871=ORIENTED_EDGE('',*,*,#652,.T.);
#872=ORIENTED_EDGE('',*,*,#653,.T.);
#873=ORIENTED_EDGE('',*,*,#652,.F.);
#874=ORIENTED_EDGE('',*,*,#634,.F.);
#875=ORIENTED_EDGE('',*,*,#654,.T.);
#876=ORIENTED_EDGE('',*,*,#649,.F.);
#877=ORIENTED_EDGE('',*,*,#618,.F.);
#878=ORIENTED_EDGE('',*,*,#644,.F.);
#879=ORIENTED_EDGE('',*,*,#650,.T.);
#880=ORIENTED_EDGE('',*,*,#654,.F.);
#881=ORIENTED_EDGE('',*,*,#633,.T.);
#882=ORIENTED_EDGE('',*,*,#631,.F.);
#883=ORIENTED_EDGE('',*,*,#598,.F.);
#884=ORIENTED_EDGE('',*,*,#646,.T.);
#885=ORIENTED_EDGE('',*,*,#653,.F.);
#886=ORIENTED_EDGE('',*,*,#575,.T.);
#887=ORIENTED_EDGE('',*,*,#590,.T.);
#888=ORIENTED_EDGE('',*,*,#625,.F.);
#889=ORIENTED_EDGE('',*,*,#655,.F.);
#890=ORIENTED_EDGE('',*,*,#601,.T.);
#891=ORIENTED_EDGE('',*,*,#604,.T.);
#892=ORIENTED_EDGE('',*,*,#576,.T.);
#893=ORIENTED_EDGE('',*,*,#655,.T.);
#894=ORIENTED_EDGE('',*,*,#624,.F.);
#895=ORIENTED_EDGE('',*,*,#656,.F.);
#896=ORIENTED_EDGE('',*,*,#577,.T.);
#897=ORIENTED_EDGE('',*,*,#656,.T.);
#898=ORIENTED_EDGE('',*,*,#623,.F.);
#899=ORIENTED_EDGE('',*,*,#627,.F.);
#900=ORIENTED_EDGE('',*,*,#657,.F.);
#901=ORIENTED_EDGE('',*,*,#658,.F.);
#902=ORIENTED_EDGE('',*,*,#659,.F.);
#903=ORIENTED_EDGE('',*,*,#660,.F.);
#904=ORIENTED_EDGE('',*,*,#658,.T.);
#905=ORIENTED_EDGE('',*,*,#661,.T.);
#906=ORIENTED_EDGE('',*,*,#662,.T.);
#907=ORIENTED_EDGE('',*,*,#663,.F.);
#908=ORIENTED_EDGE('',*,*,#657,.T.);
#909=ORIENTED_EDGE('',*,*,#664,.T.);
#910=ORIENTED_EDGE('',*,*,#665,.T.);
#911=ORIENTED_EDGE('',*,*,#666,.F.);
#912=ORIENTED_EDGE('',*,*,#667,.F.);
#913=ORIENTED_EDGE('',*,*,#668,.F.);
#914=ORIENTED_EDGE('',*,*,#669,.T.);
#915=ORIENTED_EDGE('',*,*,#670,.F.);
#916=ORIENTED_EDGE('',*,*,#671,.T.);
#917=ORIENTED_EDGE('',*,*,#661,.F.);
#918=ORIENTED_EDGE('',*,*,#672,.T.);
#919=ORIENTED_EDGE('',*,*,#673,.T.);
#920=ORIENTED_EDGE('',*,*,#674,.F.);
#921=ORIENTED_EDGE('',*,*,#675,.F.);
#922=ORIENTED_EDGE('',*,*,#676,.T.);
#923=ORIENTED_EDGE('',*,*,#677,.T.);
#924=ORIENTED_EDGE('',*,*,#678,.T.);
#925=ORIENTED_EDGE('',*,*,#679,.T.);
#926=ORIENTED_EDGE('',*,*,#676,.F.);
#927=ORIENTED_EDGE('',*,*,#680,.T.);
#928=ORIENTED_EDGE('',*,*,#681,.F.);
#929=ORIENTED_EDGE('',*,*,#674,.T.);
#930=ORIENTED_EDGE('',*,*,#682,.T.);
#931=ORIENTED_EDGE('',*,*,#683,.F.);
#932=ORIENTED_EDGE('',*,*,#684,.T.);
#933=ORIENTED_EDGE('',*,*,#679,.F.);
#934=ORIENTED_EDGE('',*,*,#685,.F.);
#935=ORIENTED_EDGE('',*,*,#686,.F.);
#936=ORIENTED_EDGE('',*,*,#680,.F.);
#937=ORIENTED_EDGE('',*,*,#677,.F.);
#938=ORIENTED_EDGE('',*,*,#683,.T.);
#939=ORIENTED_EDGE('',*,*,#687,.T.);
#940=ORIENTED_EDGE('',*,*,#688,.T.);
#941=ORIENTED_EDGE('',*,*,#689,.F.);
#942=ORIENTED_EDGE('',*,*,#690,.T.);
#943=ORIENTED_EDGE('',*,*,#684,.F.);
#944=ORIENTED_EDGE('',*,*,#690,.F.);
#945=ORIENTED_EDGE('',*,*,#673,.F.);
#946=ORIENTED_EDGE('',*,*,#691,.F.);
#947=ORIENTED_EDGE('',*,*,#687,.F.);
#948=ORIENTED_EDGE('',*,*,#682,.F.);
#949=ORIENTED_EDGE('',*,*,#678,.F.);
#950=ORIENTED_EDGE('',*,*,#688,.F.);
#951=ORIENTED_EDGE('',*,*,#691,.T.);
#952=ORIENTED_EDGE('',*,*,#672,.F.);
#953=ORIENTED_EDGE('',*,*,#692,.F.);
#954=ORIENTED_EDGE('',*,*,#685,.T.);
#955=ORIENTED_EDGE('',*,*,#689,.T.);
#956=ORIENTED_EDGE('',*,*,#693,.T.);
#957=ORIENTED_EDGE('',*,*,#694,.T.);
#958=ORIENTED_EDGE('',*,*,#695,.T.);
#959=ORIENTED_EDGE('',*,*,#670,.T.);
#960=ORIENTED_EDGE('',*,*,#669,.F.);
#961=ORIENTED_EDGE('',*,*,#696,.F.);
#962=ORIENTED_EDGE('',*,*,#697,.F.);
#963=ORIENTED_EDGE('',*,*,#693,.F.);
#964=ORIENTED_EDGE('',*,*,#681,.T.);
#965=ORIENTED_EDGE('',*,*,#686,.T.);
#966=ORIENTED_EDGE('',*,*,#692,.T.);
#967=ORIENTED_EDGE('',*,*,#675,.T.);
#968=ORIENTED_EDGE('',*,*,#659,.T.);
#969=ORIENTED_EDGE('',*,*,#663,.T.);
#970=ORIENTED_EDGE('',*,*,#698,.T.);
#971=ORIENTED_EDGE('',*,*,#694,.F.);
#972=ORIENTED_EDGE('',*,*,#697,.T.);
#973=ORIENTED_EDGE('',*,*,#699,.T.);
#974=ORIENTED_EDGE('',*,*,#700,.T.);
#975=ORIENTED_EDGE('',*,*,#701,.T.);
#976=ORIENTED_EDGE('',*,*,#702,.T.);
#977=ORIENTED_EDGE('',*,*,#703,.T.);
#978=ORIENTED_EDGE('',*,*,#668,.T.);
#979=ORIENTED_EDGE('',*,*,#704,.T.);
#980=ORIENTED_EDGE('',*,*,#699,.F.);
#981=ORIENTED_EDGE('',*,*,#696,.T.);
#982=ORIENTED_EDGE('',*,*,#705,.T.);
#983=ORIENTED_EDGE('',*,*,#706,.F.);
#984=ORIENTED_EDGE('',*,*,#707,.F.);
#985=ORIENTED_EDGE('',*,*,#708,.T.);
#986=ORIENTED_EDGE('',*,*,#709,.T.);
#987=ORIENTED_EDGE('',*,*,#710,.T.);
#988=ORIENTED_EDGE('',*,*,#711,.T.);
#989=ORIENTED_EDGE('',*,*,#712,.F.);
#990=ORIENTED_EDGE('',*,*,#713,.F.);
#991=ORIENTED_EDGE('',*,*,#714,.F.);
#992=ORIENTED_EDGE('',*,*,#715,.T.);
#993=ORIENTED_EDGE('',*,*,#716,.F.);
#994=ORIENTED_EDGE('',*,*,#716,.T.);
#995=ORIENTED_EDGE('',*,*,#717,.T.);
#996=ORIENTED_EDGE('',*,*,#706,.T.);
#997=ORIENTED_EDGE('',*,*,#718,.F.);
#998=ORIENTED_EDGE('',*,*,#666,.T.);
#999=ORIENTED_EDGE('',*,*,#719,.T.);
#1000=ORIENTED_EDGE('',*,*,#701,.F.);
#1001=ORIENTED_EDGE('',*,*,#720,.F.);
#1002=ORIENTED_EDGE('',*,*,#720,.T.);
#1003=ORIENTED_EDGE('',*,*,#700,.F.);
#1004=ORIENTED_EDGE('',*,*,#704,.F.);
#1005=ORIENTED_EDGE('',*,*,#667,.T.);
#1006=ORIENTED_EDGE('',*,*,#718,.T.);
#1007=ORIENTED_EDGE('',*,*,#705,.F.);
#1008=ORIENTED_EDGE('',*,*,#721,.F.);
#1009=ORIENTED_EDGE('',*,*,#711,.F.);
#1010=ORIENTED_EDGE('',*,*,#671,.F.);
#1011=ORIENTED_EDGE('',*,*,#695,.F.);
#1012=ORIENTED_EDGE('',*,*,#698,.F.);
#1013=ORIENTED_EDGE('',*,*,#662,.F.);
#1014=ORIENTED_EDGE('',*,*,#664,.F.);
#1015=ORIENTED_EDGE('',*,*,#660,.T.);
#1016=ORIENTED_EDGE('',*,*,#703,.F.);
#1017=ORIENTED_EDGE('',*,*,#722,.F.);
#1018=ORIENTED_EDGE('',*,*,#665,.F.);
#1019=ORIENTED_EDGE('',*,*,#722,.T.);
#1020=ORIENTED_EDGE('',*,*,#702,.F.);
#1021=ORIENTED_EDGE('',*,*,#719,.F.);
#1022=ORIENTED_EDGE('',*,*,#721,.T.);
#1023=ORIENTED_EDGE('',*,*,#710,.F.);
#1024=ORIENTED_EDGE('',*,*,#723,.F.);
#1025=ORIENTED_EDGE('',*,*,#712,.T.);
#1026=ORIENTED_EDGE('',*,*,#713,.T.);
#1027=ORIENTED_EDGE('',*,*,#723,.T.);
#1028=ORIENTED_EDGE('',*,*,#709,.F.);
#1029=ORIENTED_EDGE('',*,*,#724,.F.);
#1030=ORIENTED_EDGE('',*,*,#714,.T.);
#1031=ORIENTED_EDGE('',*,*,#724,.T.);
#1032=ORIENTED_EDGE('',*,*,#708,.F.);
#1033=ORIENTED_EDGE('',*,*,#725,.F.);
#1034=ORIENTED_EDGE('',*,*,#715,.F.);
#1035=ORIENTED_EDGE('',*,*,#725,.T.);
#1036=ORIENTED_EDGE('',*,*,#707,.T.);
#1037=ORIENTED_EDGE('',*,*,#717,.F.);
#1038=CYLINDRICAL_SURFACE('',#1146,0.09);
#1039=CYLINDRICAL_SURFACE('',#1159,0.700000000000001);
#1040=CYLINDRICAL_SURFACE('',#1163,0.700000000000005);
#1041=CYLINDRICAL_SURFACE('',#1182,5.5);
#1042=CYLINDRICAL_SURFACE('',#1184,0.15);
#1043=CYLINDRICAL_SURFACE('',#1186,5.5);
#1044=CYLINDRICAL_SURFACE('',#1188,0.15);
#1045=CYLINDRICAL_SURFACE('',#1190,5.5);
#1046=CYLINDRICAL_SURFACE('',#1197,5.5);
#1047=CYLINDRICAL_SURFACE('',#1199,5.5);
#1048=CYLINDRICAL_SURFACE('',#1201,5.5);
#1049=CYLINDRICAL_SURFACE('',#1202,5.5);
#1050=CYLINDRICAL_SURFACE('',#1203,5.5);
#1051=CYLINDRICAL_SURFACE('',#1205,2.25);
#1052=CYLINDRICAL_SURFACE('',#1206,3.25);
#1053=CYLINDRICAL_SURFACE('',#1207,2.25);
#1054=CYLINDRICAL_SURFACE('',#1209,3.25);
#1055=CYLINDRICAL_SURFACE('',#1219,1.25);
#1056=CYLINDRICAL_SURFACE('',#1222,0.5);
#1057=CYLINDRICAL_SURFACE('',#1230,0.5);
#1058=CYLINDRICAL_SURFACE('',#1232,2.25);
#1059=CYLINDRICAL_SURFACE('',#1234,3.25);
#1060=ADVANCED_FACE('',(#77),#1038,.T.);
#1061=ADVANCED_FACE('',(#78,#31),#40,.T.);
#1062=ADVANCED_FACE('',(#79),#41,.T.);
#1063=ADVANCED_FACE('',(#80),#42,.T.);
#1064=ADVANCED_FACE('',(#81),#1039,.F.);
#1065=ADVANCED_FACE('',(#82),#43,.F.);
#1066=ADVANCED_FACE('',(#83),#1040,.F.);
#1067=ADVANCED_FACE('',(#84),#44,.F.);
#1068=ADVANCED_FACE('',(#85),#45,.T.);
#1069=ADVANCED_FACE('',(#86),#46,.T.);
#1070=ADVANCED_FACE('',(#87),#47,.T.);
#1071=ADVANCED_FACE('',(#88,#32),#48,.T.);
#1072=ADVANCED_FACE('',(#89),#49,.T.);
#1073=ADVANCED_FACE('',(#90),#50,.T.);
#1074=ADVANCED_FACE('',(#91),#1041,.F.);
#1075=ADVANCED_FACE('',(#92),#1042,.F.);
#1076=ADVANCED_FACE('',(#93),#1043,.F.);
#1077=ADVANCED_FACE('',(#94),#1044,.F.);
#1078=ADVANCED_FACE('',(#95),#1045,.T.);
#1079=ADVANCED_FACE('',(#96,#33),#51,.F.);
#1080=ADVANCED_FACE('',(#97),#1046,.T.);
#1081=ADVANCED_FACE('',(#98),#1047,.F.);
#1082=ADVANCED_FACE('',(#99),#1048,.F.);
#1083=ADVANCED_FACE('',(#100),#1049,.F.);
#1084=ADVANCED_FACE('',(#101),#1050,.F.);
#1085=ADVANCED_FACE('',(#102),#1051,.F.);
#1086=ADVANCED_FACE('',(#103),#1052,.T.);
#1087=ADVANCED_FACE('',(#104),#1053,.F.);
#1088=ADVANCED_FACE('',(#105),#1054,.T.);
#1089=ADVANCED_FACE('',(#106,#34),#52,.F.);
#1090=ADVANCED_FACE('',(#107,#35,#36),#53,.T.);
#1091=ADVANCED_FACE('',(#108),#54,.T.);
#1092=ADVANCED_FACE('',(#109),#55,.T.);
#1093=ADVANCED_FACE('',(#110),#56,.F.);
#1094=ADVANCED_FACE('',(#111),#57,.T.);
#1095=ADVANCED_FACE('',(#112),#58,.T.);
#1096=ADVANCED_FACE('',(#113),#1055,.F.);
#1097=ADVANCED_FACE('',(#114),#1056,.T.);
#1098=ADVANCED_FACE('',(#115,#37),#59,.F.);
#1099=ADVANCED_FACE('',(#116),#60,.T.);
#1100=ADVANCED_FACE('',(#117),#1057,.F.);
#1101=ADVANCED_FACE('',(#118),#1058,.F.);
#1102=ADVANCED_FACE('',(#119),#1059,.T.);
#1103=ADVANCED_FACE('',(#120,#38),#61,.T.);
#1104=ADVANCED_FACE('',(#121),#62,.T.);
#1105=ADVANCED_FACE('',(#122,#39),#63,.F.);
#1106=ADVANCED_FACE('',(#123),#64,.T.);
#1107=ADVANCED_FACE('',(#124),#65,.T.);
#1108=ADVANCED_FACE('',(#125),#66,.T.);
#1109=ADVANCED_FACE('',(#126),#67,.F.);
#1110=ADVANCED_FACE('',(#127),#68,.T.);
#1111=ADVANCED_FACE('',(#128),#69,.T.);
#1112=ADVANCED_FACE('',(#129),#70,.T.);
#1113=ADVANCED_FACE('',(#130),#71,.T.);
#1114=ADVANCED_FACE('',(#131),#72,.T.);
#1115=ADVANCED_FACE('',(#132),#73,.T.);
#1116=ADVANCED_FACE('',(#133),#74,.T.);
#1117=ADVANCED_FACE('',(#134),#75,.T.);
#1118=ADVANCED_FACE('',(#135),#76,.T.);
#1119=CLOSED_SHELL('',(#1060,#1061,#1062,#1063,#1064,#1065,#1066,#1067,
#1068,#1069,#1070,#1071,#1072,#1073,#1074,#1075,#1076,#1077,#1078,#1079,
#1080,#1081,#1082,#1083,#1084,#1085,#1086,#1087,#1088,#1089,#1090,#1091,
#1092));
#1120=CLOSED_SHELL('',(#1093,#1094,#1095,#1096,#1097,#1098,#1099,#1100,
#1101,#1102,#1103,#1104,#1105,#1106,#1107,#1108,#1109,#1110,#1111,#1112,
#1113,#1114,#1115,#1116,#1117,#1118));
#1121=DERIVED_UNIT_ELEMENT(#1125,1.);
#1122=DERIVED_UNIT_ELEMENT(#1917,-3.);
#1123=DERIVED_UNIT_ELEMENT(#1125,1.);
#1124=DERIVED_UNIT_ELEMENT(#1917,-3.);
#1125=(
MASS_UNIT()
NAMED_UNIT(*)
SI_UNIT(.KILO.,.GRAM.)
);
#1126=DERIVED_UNIT((#1121,#1122));
#1127=DERIVED_UNIT((#1123,#1124));
#1128=MEASURE_REPRESENTATION_ITEM('density measure',
POSITIVE_RATIO_MEASURE(7850.),#1126);
#1129=MEASURE_REPRESENTATION_ITEM('density measure',
POSITIVE_RATIO_MEASURE(7850.),#1127);
#1130=PROPERTY_DEFINITION_REPRESENTATION(#1140,#1134);
#1131=PROPERTY_DEFINITION_REPRESENTATION(#1141,#1135);
#1132=PROPERTY_DEFINITION_REPRESENTATION(#1142,#1136);
#1133=PROPERTY_DEFINITION_REPRESENTATION(#1143,#1137);
#1134=REPRESENTATION('material name',(#1138),#1913);
#1135=REPRESENTATION('density',(#1128),#1913);
#1136=REPRESENTATION('material name',(#1139),#1914);
#1137=REPRESENTATION('density',(#1129),#1914);
#1138=DESCRIPTIVE_REPRESENTATION_ITEM('Steel','Steel');
#1139=DESCRIPTIVE_REPRESENTATION_ITEM('Steel','Steel');
#1140=PROPERTY_DEFINITION('material property','material name',#1933);
#1141=PROPERTY_DEFINITION('material property','density of part',#1933);
#1142=PROPERTY_DEFINITION('material property','material name',#1934);
#1143=PROPERTY_DEFINITION('material property','density of part',#1934);
#1144=AXIS2_PLACEMENT_3D('',#1584,#1254,#1255);
#1145=AXIS2_PLACEMENT_3D('',#1585,#1256,#1257);
#1146=AXIS2_PLACEMENT_3D('',#1586,#1258,#1259);
#1147=AXIS2_PLACEMENT_3D('',#1589,#1260,#1261);
#1148=AXIS2_PLACEMENT_3D('',#1593,#1263,#1264);
#1149=AXIS2_PLACEMENT_3D('',#1595,#1266,#1267);
#1150=AXIS2_PLACEMENT_3D('',#1611,#1275,#1276);
#1151=AXIS2_PLACEMENT_3D('',#1613,#1277,#1278);
#1152=AXIS2_PLACEMENT_3D('',#1615,#1279,#1280);
#1153=AXIS2_PLACEMENT_3D('',#1617,#1281,#1282);
#1154=AXIS2_PLACEMENT_3D('',#1619,#1283,#1284);
#1155=AXIS2_PLACEMENT_3D('',#1621,#1285,#1286);
#1156=AXIS2_PLACEMENT_3D('',#1624,#1288,#1289);
#1157=AXIS2_PLACEMENT_3D('',#1625,#1290,#1291);
#1158=AXIS2_PLACEMENT_3D('',#1629,#1294,#1295);
#1159=AXIS2_PLACEMENT_3D('',#1649,#1306,#1307);
#1160=AXIS2_PLACEMENT_3D('',#1651,#1308,#1309);
#1161=AXIS2_PLACEMENT_3D('',#1654,#1311,#1312);
#1162=AXIS2_PLACEMENT_3D('',#1655,#1313,#1314);
#1163=AXIS2_PLACEMENT_3D('',#1656,#1315,#1316);
#1164=AXIS2_PLACEMENT_3D('',#1658,#1317,#1318);
#1165=AXIS2_PLACEMENT_3D('',#1661,#1320,#1321);
#1166=AXIS2_PLACEMENT_3D('',#1662,#1322,#1323);
#1167=AXIS2_PLACEMENT_3D('',#1663,#1324,#1325);
#1168=AXIS2_PLACEMENT_3D('',#1673,#1331,#1332);
#1169=AXIS2_PLACEMENT_3D('',#1676,#1335,#1336);
#1170=AXIS2_PLACEMENT_3D('',#1679,#1338,#1339);
#1171=AXIS2_PLACEMENT_3D('',#1680,#1340,#1341);
#1172=AXIS2_PLACEMENT_3D('',#1682,#1342,#1343);
#1173=AXIS2_PLACEMENT_3D('',#1684,#1344,#1345);
#1174=AXIS2_PLACEMENT_3D('',#1686,#1346,#1347);
#1175=AXIS2_PLACEMENT_3D('',#1688,#1348,#1349);
#1176=AXIS2_PLACEMENT_3D('',#1690,#1350,#1351);
#1177=AXIS2_PLACEMENT_3D('',#1691,#1352,#1353);
#1178=AXIS2_PLACEMENT_3D('',#1700,#1358,#1359);
#1179=AXIS2_PLACEMENT_3D('',#1701,#1360,#1361);
#1180=AXIS2_PLACEMENT_3D('',#1703,#1363,#1364);
#1181=AXIS2_PLACEMENT_3D('',#1704,#1365,#1366);
#1182=AXIS2_PLACEMENT_3D('',#1705,#1367,#1368);
#1183=AXIS2_PLACEMENT_3D('',#1707,#1369,#1370);
#1184=AXIS2_PLACEMENT_3D('',#1709,#1372,#1373);
#1185=AXIS2_PLACEMENT_3D('',#1711,#1374,#1375);
#1186=AXIS2_PLACEMENT_3D('',#1713,#1377,#1378);
#1187=AXIS2_PLACEMENT_3D('',#1715,#1379,#1380);
#1188=AXIS2_PLACEMENT_3D('',#1717,#1382,#1383);
#1189=AXIS2_PLACEMENT_3D('',#1719,#1384,#1385);
#1190=AXIS2_PLACEMENT_3D('',#1721,#1387,#1388);
#1191=AXIS2_PLACEMENT_3D('',#1723,#1389,#1390);
#1192=AXIS2_PLACEMENT_3D('',#1725,#1392,#1393);
#1193=AXIS2_PLACEMENT_3D('',#1727,#1394,#1395);
#1194=AXIS2_PLACEMENT_3D('',#1729,#1396,#1397);
#1195=AXIS2_PLACEMENT_3D('',#1730,#1398,#1399);
#1196=AXIS2_PLACEMENT_3D('',#1732,#1400,#1401);
#1197=AXIS2_PLACEMENT_3D('',#1733,#1402,#1403);
#1198=AXIS2_PLACEMENT_3D('',#1737,#1405,#1406);
#1199=AXIS2_PLACEMENT_3D('',#1739,#1408,#1409);
#1200=AXIS2_PLACEMENT_3D('',#1740,#1410,#1411);
#1201=AXIS2_PLACEMENT_3D('',#1741,#1412,#1413);
#1202=AXIS2_PLACEMENT_3D('',#1743,#1415,#1416);
#1203=AXIS2_PLACEMENT_3D('',#1745,#1418,#1419);
#1204=AXIS2_PLACEMENT_3D('',#1748,#1421,#1422);
#1205=AXIS2_PLACEMENT_3D('',#1749,#1423,#1424);
#1206=AXIS2_PLACEMENT_3D('',#1751,#1426,#1427);
#1207=AXIS2_PLACEMENT_3D('',#1752,#1428,#1429);
#1208=AXIS2_PLACEMENT_3D('',#1755,#1431,#1432);
#1209=AXIS2_PLACEMENT_3D('',#1756,#1433,#1434);
#1210=AXIS2_PLACEMENT_3D('',#1757,#1435,#1436);
#1211=AXIS2_PLACEMENT_3D('',#1758,#1437,#1438);
#1212=AXIS2_PLACEMENT_3D('',#1759,#1439,#1440);
#1213=AXIS2_PLACEMENT_3D('',#1761,#1442,#1443);
#1214=AXIS2_PLACEMENT_3D('',#1763,#1445,#1446);
#1215=AXIS2_PLACEMENT_3D('',#1764,#1447,#1448);
#1216=AXIS2_PLACEMENT_3D('',#1765,#1449,#1450);
#1217=AXIS2_PLACEMENT_3D('',#1774,#1455,#1456);
#1218=AXIS2_PLACEMENT_3D('',#1780,#1460,#1461);
#1219=AXIS2_PLACEMENT_3D('',#1796,#1470,#1471);
#1220=AXIS2_PLACEMENT_3D('',#1799,#1472,#1473);
#1221=AXIS2_PLACEMENT_3D('',#1803,#1475,#1476);
#1222=AXIS2_PLACEMENT_3D('',#1805,#1478,#1479);
#1223=AXIS2_PLACEMENT_3D('',#1808,#1480,#1481);
#1224=AXIS2_PLACEMENT_3D('',#1812,#1483,#1484);
#1225=AXIS2_PLACEMENT_3D('',#1814,#1486,#1487);
#1226=AXIS2_PLACEMENT_3D('',#1819,#1490,#1491);
#1227=AXIS2_PLACEMENT_3D('',#1820,#1492,#1493);
#1228=AXIS2_PLACEMENT_3D('',#1822,#1494,#1495);
#1229=AXIS2_PLACEMENT_3D('',#1823,#1496,#1497);
#1230=AXIS2_PLACEMENT_3D('',#1827,#1500,#1501);
#1231=AXIS2_PLACEMENT_3D('',#1830,#1503,#1504);
#1232=AXIS2_PLACEMENT_3D('',#1831,#1505,#1506);
#1233=AXIS2_PLACEMENT_3D('',#1833,#1507,#1508);
#1234=AXIS2_PLACEMENT_3D('',#1835,#1510,#1511);
#1235=AXIS2_PLACEMENT_3D('',#1836,#1512,#1513);
#1236=AXIS2_PLACEMENT_3D('',#1837,#1514,#1515);
#1237=AXIS2_PLACEMENT_3D('',#1839,#1517,#1518);
#1238=AXIS2_PLACEMENT_3D('',#1845,#1522,#1523);
#1239=AXIS2_PLACEMENT_3D('',#1849,#1526,#1527);
#1240=AXIS2_PLACEMENT_3D('',#1860,#1534,#1535);
#1241=AXIS2_PLACEMENT_3D('',#1862,#1537,#1538);
#1242=AXIS2_PLACEMENT_3D('',#1875,#1545,#1546);
#1243=AXIS2_PLACEMENT_3D('',#1888,#1553,#1554);
#1244=AXIS2_PLACEMENT_3D('',#1893,#1559,#1560);
#1245=AXIS2_PLACEMENT_3D('',#1895,#1562,#1563);
#1246=AXIS2_PLACEMENT_3D('',#1896,#1564,#1565);
#1247=AXIS2_PLACEMENT_3D('',#1898,#1567,#1568);
#1248=AXIS2_PLACEMENT_3D('',#1899,#1569,#1570);
#1249=AXIS2_PLACEMENT_3D('',#1901,#1572,#1573);
#1250=AXIS2_PLACEMENT_3D('',#1903,#1575,#1576);
#1251=AXIS2_PLACEMENT_3D('',#1905,#1578,#1579);
#1252=AXIS2_PLACEMENT_3D('',#1906,#1580,#1581);
#1253=AXIS2_PLACEMENT_3D('',#1907,#1582,#1583);
#1254=DIRECTION('axis',(0.,0.,1.));
#1255=DIRECTION('refdir',(1.,0.,0.));
#1256=DIRECTION('axis',(0.,0.,1.));
#1257=DIRECTION('refdir',(1.,0.,0.));
#1258=DIRECTION('center_axis',(1.,0.,0.));
#1259=DIRECTION('ref_axis',(0.,-0.707106697445241,0.707106864927844));
#1260=DIRECTION('center_axis',(-1.,0.,0.));
#1261=DIRECTION('ref_axis',(0.,-0.707106697445241,0.707106864927844));
#1262=DIRECTION('',(-1.,0.,0.));
#1263=DIRECTION('center_axis',(1.,0.,0.));
#1264=DIRECTION('ref_axis',(0.,-0.707106697445241,0.707106864927844));
#1265=DIRECTION('',(1.,0.,0.));
#1266=DIRECTION('center_axis',(-1.,0.,0.));
#1267=DIRECTION('ref_axis',(0.,-1.,0.));
#1268=DIRECTION('',(0.,-0.999999999999972,2.36856108063263E-7));
#1269=DIRECTION('',(0.,-0.992992358018128,0.118178580621012));
#1270=DIRECTION('',(0.,-0.297146825379781,-0.954831798887489));
#1271=DIRECTION('',(0.,-1.,0.));
#1272=DIRECTION('',(0.,0.,1.));
#1273=DIRECTION('',(0.,0.707106781186547,0.707106781186548));
#1274=DIRECTION('',(0.,1.,0.));
#1275=DIRECTION('center_axis',(-1.,0.,0.));
#1276=DIRECTION('ref_axis',(0.,0.200989608941361,0.979593373343041));
#1277=DIRECTION('center_axis',(1.,0.,0.));
#1278=DIRECTION('ref_axis',(0.,-0.674988040937336,-0.737828668859904));
#1279=DIRECTION('center_axis',(-1.,0.,0.));
#1280=DIRECTION('ref_axis',(0.,0.65923926785842,0.751933233547696));
#1281=DIRECTION('center_axis',(-1.,0.,0.));
#1282=DIRECTION('ref_axis',(0.,0.,1.));
#1283=DIRECTION('center_axis',(-1.,0.,0.));
#1284=DIRECTION('ref_axis',(0.,-0.999953586749882,-0.00963453922329549));
#1285=DIRECTION('center_axis',(-1.,0.,0.));
#1286=DIRECTION('ref_axis',(0.,0.179553771736754,-0.983748160382069));
#1287=DIRECTION('',(0.,0.,-1.));
#1288=DIRECTION('center_axis',(1.,0.,0.));
#1289=DIRECTION('ref_axis',(0.,0.,1.));
#1290=DIRECTION('center_axis',(0.,2.36856108063263E-7,0.999999999999972));
#1291=DIRECTION('ref_axis',(0.,-0.999999999999972,2.36856108063263E-7));
#1292=DIRECTION('',(0.,0.999999999999972,-2.36856108063263E-7));
#1293=DIRECTION('',(1.,0.,0.));
#1294=DIRECTION('center_axis',(0.,-1.,0.));
#1295=DIRECTION('ref_axis',(0.,0.,-1.));
#1296=DIRECTION('',(-1.,0.,0.));
#1297=DIRECTION('',(0.,0.,1.));
#1298=DIRECTION('',(1.,0.,0.));
#1299=DIRECTION('',(-0.707106781186548,0.,0.707106781186547));
#1300=DIRECTION('',(1.,0.,0.));
#1301=DIRECTION('',(-0.707106781186548,0.,-0.707106781186548));
#1302=DIRECTION('',(1.,0.,0.));
#1303=DIRECTION('',(0.,0.,-1.));
#1304=DIRECTION('',(-1.,0.,0.));
#1305=DIRECTION('',(0.,0.,-1.));
#1306=DIRECTION('center_axis',(0.,0.,-1.));
#1307=DIRECTION('ref_axis',(1.,0.,0.));
#1308=DIRECTION('center_axis',(0.,0.118178580621012,0.992992358018128));
#1309=DIRECTION('ref_axis',(0.,-0.992992358018128,0.118178580621012));
#1310=DIRECTION('',(0.,0.,-1.));
#1311=DIRECTION('center_axis',(0.,0.,1.));
#1312=DIRECTION('ref_axis',(1.,0.,0.));
#1313=DIRECTION('center_axis',(0.,0.,-1.));
#1314=DIRECTION('ref_axis',(1.,0.,0.));
#1315=DIRECTION('center_axis',(0.,0.,-1.));
#1316=DIRECTION('ref_axis',(1.,0.,0.));
#1317=DIRECTION('center_axis',(0.,0.118178580621012,0.992992358018128));
#1318=DIRECTION('ref_axis',(0.,-0.992992358018128,0.118178580621012));
#1319=DIRECTION('',(0.,0.,-1.));
#1320=DIRECTION('center_axis',(0.,0.,1.));
#1321=DIRECTION('ref_axis',(1.,0.,0.));
#1322=DIRECTION('center_axis',(0.,0.,-1.));
#1323=DIRECTION('ref_axis',(1.,0.,0.));
#1324=DIRECTION('center_axis',(0.,0.707106781186548,-0.707106781186547));
#1325=DIRECTION('ref_axis',(-1.,0.,0.));
#1326=DIRECTION('',(-0.577350269189626,-0.577350269189626,-0.577350269189626));
#1327=DIRECTION('',(-1.,0.,0.));
#1328=DIRECTION('',(-0.577350269189626,0.577350269189626,0.577350269189626));
#1329=DIRECTION('',(1.,0.,0.));
#1330=DIRECTION('',(0.,-0.707106781186547,-0.707106781186548));
#1331=DIRECTION('center_axis',(0.,0.,-1.));
#1332=DIRECTION('ref_axis',(0.,1.,0.));
#1333=DIRECTION('',(0.,1.,0.));
#1334=DIRECTION('',(0.,-1.,0.));
#1335=DIRECTION('center_axis',(0.707106781186548,0.,-0.707106781186548));
#1336=DIRECTION('ref_axis',(-0.707106781186548,0.,-0.707106781186548));
#1337=DIRECTION('',(0.,-1.,0.));
#1338=DIRECTION('center_axis',(-0.707106781186548,0.,0.707106781186548));
#1339=DIRECTION('ref_axis',(0.707106781186548,0.,0.707106781186548));
#1340=DIRECTION('center_axis',(1.,0.,0.));
#1341=DIRECTION('ref_axis',(0.,0.,-1.));
#1342=DIRECTION('center_axis',(1.,0.,0.));
#1343=DIRECTION('ref_axis',(0.,0.179448055391336,-0.983767449866211));
#1344=DIRECTION('center_axis',(1.,0.,0.));
#1345=DIRECTION('ref_axis',(0.,-0.999999997065824,-7.66051746521738E-5));
#1346=DIRECTION('center_axis',(1.,0.,0.));
#1347=DIRECTION('ref_axis',(0.,0.,-1.));
#1348=DIRECTION('center_axis',(1.,0.,0.));
#1349=DIRECTION('ref_axis',(0.,0.66550418289176,0.746394120122587));
#1350=DIRECTION('center_axis',(-1.,0.,0.));
#1351=DIRECTION('ref_axis',(0.,-0.675603996680017,-0.737264701223371));
#1352=DIRECTION('center_axis',(1.,0.,0.));
#1353=DIRECTION('ref_axis',(0.,0.193620493469173,0.981076502882805));
#1354=DIRECTION('',(0.,0.,-1.));
#1355=DIRECTION('',(0.,1.,0.));
#1356=DIRECTION('',(0.,0.297146825379781,0.954831798887489));
#1357=DIRECTION('',(0.,0.992992358018128,-0.118178580621012));
#1358=DIRECTION('center_axis',(-1.,0.,0.));
#1359=DIRECTION('ref_axis',(0.,0.,-1.));
#1360=DIRECTION('center_axis',(0.,1.,0.));
#1361=DIRECTION('ref_axis',(0.,0.,1.));
#1362=DIRECTION('',(-1.,0.,0.));
#1363=DIRECTION('center_axis',(-0.707106781186547,0.,-0.707106781186548));
#1364=DIRECTION('ref_axis',(-0.707106781186548,0.,0.707106781186547));
#1365=DIRECTION('center_axis',(0.707106781186547,0.,0.707106781186548));
#1366=DIRECTION('ref_axis',(-0.707106781186548,0.,0.707106781186547));
#1367=DIRECTION('center_axis',(-1.,0.,0.));
#1368=DIRECTION('ref_axis',(0.,0.200989608941361,0.979593373343041));
#1369=DIRECTION('center_axis',(1.,0.,0.));
#1370=DIRECTION('ref_axis',(0.,0.200989608941361,0.979593373343041));
#1371=DIRECTION('',(1.,0.,0.));
#1372=DIRECTION('center_axis',(1.,0.,0.));
#1373=DIRECTION('ref_axis',(0.,0.179448055391336,-0.983767449866211));
#1374=DIRECTION('center_axis',(-1.,0.,0.));
#1375=DIRECTION('ref_axis',(0.,0.179448055391336,-0.983767449866211));
#1376=DIRECTION('',(1.,0.,0.));
#1377=DIRECTION('center_axis',(-1.,0.,0.));
#1378=DIRECTION('ref_axis',(0.,-0.999999997065824,-7.66051746521738E-5));
#1379=DIRECTION('center_axis',(-1.,0.,0.));
#1380=DIRECTION('ref_axis',(0.,-0.999999997065824,-7.66051746521738E-5));
#1381=DIRECTION('',(1.,0.,0.));
#1382=DIRECTION('center_axis',(1.,0.,0.));
#1383=DIRECTION('ref_axis',(0.,0.179553771736754,-0.983748160382069));
#1384=DIRECTION('center_axis',(1.,0.,0.));
#1385=DIRECTION('ref_axis',(0.,0.179553771736754,-0.983748160382069));
#1386=DIRECTION('',(1.,0.,0.));
#1387=DIRECTION('center_axis',(-1.,0.,0.));
#1388=DIRECTION('ref_axis',(0.,-0.674988040937336,-0.737828668859904));
#1389=DIRECTION('center_axis',(-1.,0.,0.));
#1390=DIRECTION('ref_axis',(0.,-0.674988040937336,-0.737828668859904));
#1391=DIRECTION('',(-1.,0.,0.));
#1392=DIRECTION('center_axis',(-1.,0.,0.));
#1393=DIRECTION('ref_axis',(0.,0.,1.));
#1394=DIRECTION('center_axis',(1.,0.,0.));
#1395=DIRECTION('ref_axis',(0.,-0.999953586749882,-0.00963453922329549));
#1396=DIRECTION('center_axis',(-1.,0.,0.));
#1397=DIRECTION('ref_axis',(0.,0.,1.));
#1398=DIRECTION('center_axis',(1.,0.,0.));
#1399=DIRECTION('ref_axis',(0.,0.65923926785842,0.751933233547696));
#1400=DIRECTION('center_axis',(1.,0.,0.));
#1401=DIRECTION('ref_axis',(0.,0.,1.));
#1402=DIRECTION('center_axis',(1.,0.,0.));
#1403=DIRECTION('ref_axis',(0.,-0.675603996680017,-0.737264701223371));
#1404=DIRECTION('',(-1.,0.,0.));
#1405=DIRECTION('center_axis',(1.,0.,0.));
#1406=DIRECTION('ref_axis',(0.,-0.675603996680017,-0.737264701223371));
#1407=DIRECTION('',(1.,0.,0.));
#1408=DIRECTION('center_axis',(-1.,0.,0.));
#1409=DIRECTION('ref_axis',(0.,0.193620493469173,0.981076502882805));
#1410=DIRECTION('center_axis',(-1.,0.,0.));
#1411=DIRECTION('ref_axis',(0.,0.193620493469173,0.981076502882805));
#1412=DIRECTION('center_axis',(-1.,0.,0.));
#1413=DIRECTION('ref_axis',(0.,-0.999953586749882,-0.00963453922329549));
#1414=DIRECTION('',(1.,0.,0.));
#1415=DIRECTION('center_axis',(1.,0.,0.));
#1416=DIRECTION('ref_axis',(0.,0.65923926785842,0.751933233547696));
#1417=DIRECTION('',(-1.,0.,0.));
#1418=DIRECTION('center_axis',(1.,0.,0.));
#1419=DIRECTION('ref_axis',(0.,0.66550418289176,0.746394120122587));
#1420=DIRECTION('',(-1.,0.,0.));
#1421=DIRECTION('center_axis',(-1.,0.,0.));
#1422=DIRECTION('ref_axis',(0.,0.66550418289176,0.746394120122587));
#1423=DIRECTION('center_axis',(-1.,0.,0.));
#1424=DIRECTION('ref_axis',(0.,0.,1.));
#1425=DIRECTION('',(1.,0.,0.));
#1426=DIRECTION('center_axis',(-1.,0.,0.));
#1427=DIRECTION('ref_axis',(0.,0.,1.));
#1428=DIRECTION('center_axis',(1.,0.,0.));
#1429=DIRECTION('ref_axis',(0.,0.,-1.));
#1430=DIRECTION('',(-1.,0.,0.));
#1431=DIRECTION('center_axis',(-1.,0.,0.));
#1432=DIRECTION('ref_axis',(0.,0.,-1.));
#1433=DIRECTION('center_axis',(1.,0.,0.));
#1434=DIRECTION('ref_axis',(0.,-0.408994496731238,0.912536849471604));
#1435=DIRECTION('center_axis',(1.,0.,0.));
#1436=DIRECTION('ref_axis',(0.,0.,-1.));
#1437=DIRECTION('center_axis',(1.,0.,0.));
#1438=DIRECTION('ref_axis',(0.,0.,-1.));
#1439=DIRECTION('center_axis',(0.,0.118178580621012,0.992992358018128));
#1440=DIRECTION('ref_axis',(0.,-0.992992358018128,0.118178580621012));
#1441=DIRECTION('',(1.,0.,0.));
#1442=DIRECTION('center_axis',(0.,-0.954831798887489,0.297146825379781));
#1443=DIRECTION('ref_axis',(0.,-0.297146825379781,-0.954831798887489));
#1444=DIRECTION('',(-1.,0.,0.));
#1445=DIRECTION('center_axis',(0.,0.,1.));
#1446=DIRECTION('ref_axis',(0.,-1.,0.));
#1447=DIRECTION('axis',(0.,0.,1.));
#1448=DIRECTION('refdir',(1.,0.,0.));
#1449=DIRECTION('center_axis',(0.,1.,0.));
#1450=DIRECTION('ref_axis',(0.,0.,1.));
#1451=DIRECTION('',(0.,0.,1.));
#1452=DIRECTION('',(-1.,0.,0.));
#1453=DIRECTION('',(0.,0.,-1.));
#1454=DIRECTION('',(1.,0.,0.));
#1455=DIRECTION('center_axis',(0.,-4.5547611266673E-15,-1.));
#1456=DIRECTION('ref_axis',(0.,1.,-4.5547611266673E-15));
#1457=DIRECTION('',(0.,1.,-4.5547611266673E-15));
#1458=DIRECTION('',(1.,0.,0.));
#1459=DIRECTION('',(0.,1.,-4.5547611266673E-15));
#1460=DIRECTION('center_axis',(-1.,0.,0.));
#1461=DIRECTION('ref_axis',(0.,-1.,0.));
#1462=DIRECTION('',(0.,-1.,0.));
#1463=DIRECTION('',(0.,0.,1.));
#1464=DIRECTION('',(0.,1.,0.));
#1465=DIRECTION('',(0.,0.,-1.));
#1466=DIRECTION('',(0.,1.,0.));
#1467=DIRECTION('',(0.,0.,1.));
#1468=DIRECTION('',(0.,-1.,0.));
#1469=DIRECTION('',(0.,0.,-1.));
#1470=DIRECTION('center_axis',(1.,0.,0.));
#1471=DIRECTION('ref_axis',(0.,-0.964796265680029,-0.262998413930335));
#1472=DIRECTION('center_axis',(1.,0.,0.));
#1473=DIRECTION('ref_axis',(0.,-0.964796265680029,-0.262998413930335));
#1474=DIRECTION('',(-1.,0.,0.));
#1475=DIRECTION('center_axis',(-1.,0.,0.));
#1476=DIRECTION('ref_axis',(0.,-0.964796265680029,-0.262998413930335));
#1477=DIRECTION('',(-1.,0.,0.));
#1478=DIRECTION('center_axis',(1.,0.,0.));
#1479=DIRECTION('ref_axis',(0.,0.,-1.));
#1480=DIRECTION('center_axis',(1.,0.,0.));
#1481=DIRECTION('ref_axis',(0.,0.,-1.));
#1482=DIRECTION('',(1.,0.,0.));
#1483=DIRECTION('center_axis',(-1.,0.,0.));
#1484=DIRECTION('ref_axis',(0.,0.,-1.));
#1485=DIRECTION('',(-1.,0.,0.));
#1486=DIRECTION('center_axis',(1.,0.,0.));
#1487=DIRECTION('ref_axis',(0.,0.,-1.));
#1488=DIRECTION('',(0.,1.,0.));
#1489=DIRECTION('',(0.,0.,1.));
#1490=DIRECTION('center_axis',(-1.,0.,0.));
#1491=DIRECTION('ref_axis',(0.,0.,-1.));
#1492=DIRECTION('center_axis',(-1.,0.,0.));
#1493=DIRECTION('ref_axis',(0.,0.752772652709082,-0.658280588604382));
#1494=DIRECTION('center_axis',(1.,0.,0.));
#1495=DIRECTION('ref_axis',(0.,0.,-1.));
#1496=DIRECTION('center_axis',(0.,0.,1.));
#1497=DIRECTION('ref_axis',(0.,-1.,0.));
#1498=DIRECTION('',(0.,-1.,0.));
#1499=DIRECTION('',(1.,0.,0.));
#1500=DIRECTION('center_axis',(-1.,0.,0.));
#1501=DIRECTION('ref_axis',(0.,0.752772652709082,-0.658280588604382));
#1502=DIRECTION('',(1.,0.,0.));
#1503=DIRECTION('center_axis',(1.,0.,0.));
#1504=DIRECTION('ref_axis',(0.,0.752772652709082,-0.658280588604382));
#1505=DIRECTION('center_axis',(1.,0.,0.));
#1506=DIRECTION('ref_axis',(0.,0.,-1.));
#1507=DIRECTION('center_axis',(-1.,0.,0.));
#1508=DIRECTION('ref_axis',(0.,0.,-1.));
#1509=DIRECTION('',(-1.,0.,0.));
#1510=DIRECTION('center_axis',(1.,0.,0.));
#1511=DIRECTION('ref_axis',(0.,0.,-1.));
#1512=DIRECTION('center_axis',(1.,0.,0.));
#1513=DIRECTION('ref_axis',(0.,0.,-1.));
#1514=DIRECTION('center_axis',(1.,0.,0.));
#1515=DIRECTION('ref_axis',(0.,0.,-1.));
#1516=DIRECTION('',(0.,0.,-1.));
#1517=DIRECTION('center_axis',(0.,0.,1.));
#1518=DIRECTION('ref_axis',(1.,0.,0.));
#1519=DIRECTION('',(1.,0.,0.));
#1520=DIRECTION('',(0.,1.,0.));
#1521=DIRECTION('',(-1.,0.,0.));
#1522=DIRECTION('center_axis',(0.,1.,0.));
#1523=DIRECTION('ref_axis',(0.,0.,1.));
#1524=DIRECTION('',(-1.,0.,0.));
#1525=DIRECTION('',(0.,0.,-1.));
#1526=DIRECTION('center_axis',(1.,0.,0.));
#1527=DIRECTION('ref_axis',(0.,0.,-1.));
#1528=DIRECTION('',(0.,0.,1.));
#1529=DIRECTION('',(0.,1.,0.));
#1530=DIRECTION('',(0.,0.,1.));
#1531=DIRECTION('',(0.,1.,0.));
#1532=DIRECTION('',(0.,0.,-1.));
#1533=DIRECTION('',(0.,1.,0.));
#1534=DIRECTION('center_axis',(0.,0.,-1.));
#1535=DIRECTION('ref_axis',(0.,1.,0.));
#1536=DIRECTION('',(1.,0.,0.));
#1537=DIRECTION('center_axis',(-1.,0.,0.));
#1538=DIRECTION('ref_axis',(0.,0.,1.));
#1539=DIRECTION('',(0.,0.,-1.));
#1540=DIRECTION('',(0.,-1.,0.));
#1541=DIRECTION('',(0.,1.42108547152018E-13,1.));
#1542=DIRECTION('',(0.,1.,0.));
#1543=DIRECTION('',(0.,0.297146825379781,0.954831798887489));
#1544=DIRECTION('',(0.,0.992992358018128,-0.118178580621012));
#1545=DIRECTION('center_axis',(-1.,0.,0.));
#1546=DIRECTION('ref_axis',(0.,-1.,0.));
#1547=DIRECTION('',(0.,0.,-1.));
#1548=DIRECTION('',(0.,0.992992358018128,-0.118178580621012));
#1549=DIRECTION('',(0.,0.297146825379781,0.954831798887489));
#1550=DIRECTION('',(0.,1.,0.));
#1551=DIRECTION('',(0.,1.42108547152018E-13,1.));
#1552=DIRECTION('',(0.,-1.,0.));
#1553=DIRECTION('center_axis',(0.,0.,-1.));
#1554=DIRECTION('ref_axis',(0.,1.,0.));
#1555=DIRECTION('',(-1.,0.,0.));
#1556=DIRECTION('',(1.,0.,0.));
#1557=DIRECTION('',(-1.,0.,0.));
#1558=DIRECTION('',(1.,0.,0.));
#1559=DIRECTION('center_axis',(0.,-1.,0.));
#1560=DIRECTION('ref_axis',(0.,0.,-1.));
#1561=DIRECTION('',(-1.,0.,0.));
#1562=DIRECTION('center_axis',(0.,1.,0.));
#1563=DIRECTION('ref_axis',(0.,0.,1.));
#1564=DIRECTION('center_axis',(0.,0.,-1.));
#1565=DIRECTION('ref_axis',(0.,1.,0.));
#1566=DIRECTION('',(-1.,0.,0.));
#1567=DIRECTION('center_axis',(0.,1.,0.));
#1568=DIRECTION('ref_axis',(0.,0.,1.));
#1569=DIRECTION('center_axis',(0.,-0.118178580621012,-0.992992358018128));
#1570=DIRECTION('ref_axis',(0.,-0.992992358018128,0.118178580621012));
#1571=DIRECTION('',(1.,0.,0.));
#1572=DIRECTION('center_axis',(0.,0.954831798887489,-0.297146825379781));
#1573=DIRECTION('ref_axis',(0.,-0.297146825379781,-0.954831798887489));
#1574=DIRECTION('',(-1.,0.,0.));
#1575=DIRECTION('center_axis',(0.,0.,-1.));
#1576=DIRECTION('ref_axis',(0.,-1.,0.));
#1577=DIRECTION('',(1.,0.,0.));
#1578=DIRECTION('center_axis',(0.,1.,-1.42108547152018E-13));
#1579=DIRECTION('ref_axis',(0.,-1.42108547152018E-13,-1.));
#1580=DIRECTION('',(0.,-6.93889390390723E-18,0.999999999999979));
#1581=DIRECTION('',(1.00000000000001,0.,0.));
#1582=DIRECTION('',(0.,0.,1.));
#1583=DIRECTION('',(1.,0.,0.));
#1584=CARTESIAN_POINT('',(0.,0.,0.));
#1585=CARTESIAN_POINT('',(0.,0.,0.));
#1586=CARTESIAN_POINT('Origin',(15.0718237498938,-5.01544299073852,-22.476667960351));
#1587=CARTESIAN_POINT('',(41.5718237498938,-5.10544299073852,-22.476667960351));
#1588=CARTESIAN_POINT('',(41.5718237498938,-5.01544296942146,-22.386667960351));
#1589=CARTESIAN_POINT('Origin',(41.5718237498938,-5.01544299073852,-22.476667960351));
#1590=CARTESIAN_POINT('',(15.0718237498938,-5.01544296942146,-22.386667960351));
#1591=CARTESIAN_POINT('',(15.0718237498938,-5.01544296942147,-22.386667960351));
#1592=CARTESIAN_POINT('',(15.0718237498938,-5.10544299073852,-22.476667960351));
#1593=CARTESIAN_POINT('Origin',(15.0718237498938,-5.01544299073852,-22.476667960351));
#1594=CARTESIAN_POINT('',(15.0718237498938,-5.10544299073852,-22.476667960351));
#1595=CARTESIAN_POINT('Origin',(15.0718237498938,22.2345570092615,-27.2383342079356));
#1596=CARTESIAN_POINT('',(15.0718237498938,-0.832045460078472,-22.3866689512143));
#1597=CARTESIAN_POINT('',(15.0718237498938,10.8255147936165,-22.3866717123786));
#1598=CARTESIAN_POINT('',(15.0718237498938,9.53530340405976,-23.6205138682205));
#1599=CARTESIAN_POINT('',(15.0718237498938,16.0383522720579,-24.3944584799021));
#1600=CARTESIAN_POINT('',(15.0718237498938,9.92181006211184,-22.3785391403459));
#1601=CARTESIAN_POINT('',(15.0718237498938,9.76364780235009,-22.8867672017139));
#1602=CARTESIAN_POINT('',(15.0718237498938,21.7945570092621,-22.3785391403459));
#1603=CARTESIAN_POINT('',(15.0718237498938,22.0645570092616,-22.3785391403459));
#1604=CARTESIAN_POINT('',(15.0718237498938,21.7945570092621,-23.0000004768372));
#1605=CARTESIAN_POINT('',(15.0718237498938,21.7945570092621,-27.3584366741407));
#1606=CARTESIAN_POINT('',(15.0718237498938,15.7945570092621,-29.0000004768372));
#1607=CARTESIAN_POINT('',(15.0718237498938,18.5949735764873,-26.1995839096119));
#1608=CARTESIAN_POINT('',(15.0718237498938,-5.6507900624212,-29.0000004768372));
#1609=CARTESIAN_POINT('',(15.0718237498938,8.5645570092615,-29.0000004768372));
#1610=CARTESIAN_POINT('',(15.0718237498938,-8.05789584709122,-26.5133405337979));
#1611=CARTESIAN_POINT('Origin',(15.0718237498938,-10.6054429907385,-31.3877639408169));
#1612=CARTESIAN_POINT('',(15.0718237498938,-10.1393462156578,-24.6091666166229));
#1613=CARTESIAN_POINT('Origin',(15.0718237498938,-5.51034870344392,-21.638917126779));
#1614=CARTESIAN_POINT('',(15.0718237498938,-11.1425277546503,-23.4437833219544));
#1615=CARTESIAN_POINT('Origin',(15.0718237498938,-14.7683437278716,-27.5794161064668));
#1616=CARTESIAN_POINT('',(15.0718237498938,-5.75015097717334,-20.9686880604487));
#1617=CARTESIAN_POINT('Origin',(15.0718237498938,-9.00000013411046,-21.0000003129244));
#1618=CARTESIAN_POINT('',(15.0718237498938,-5.39577112365505,-22.8586907137135));
#1619=CARTESIAN_POINT('Origin',(15.0718237498938,-0.250406250048985,-20.9156980947206));
#1620=CARTESIAN_POINT('',(15.0718237498938,-5.10544299073852,-22.8057000059228));
#1621=CARTESIAN_POINT('Origin',(15.0718237498938,-5.25544299073852,-22.8057000059228));
#1622=CARTESIAN_POINT('',(15.0718237498938,-5.10544299073852,-23.6999994702637));
#1623=CARTESIAN_POINT('',(15.0718237498938,-9.00000013411046,-23.2500003129244));
#1624=CARTESIAN_POINT('Origin',(15.0718237498938,-9.00000013411046,-21.0000003129244));
#1625=CARTESIAN_POINT('Origin',(15.0718237498938,-0.583528571173785,-22.386669010077));
#1626=CARTESIAN_POINT('',(41.5718237498938,-0.832045460078472,-22.3866689512143));
#1627=CARTESIAN_POINT('',(41.5718237498938,10.8255147936165,-22.3866717123786));
#1628=CARTESIAN_POINT('',(15.0718237498938,-0.83204546007842,-22.3866689512143));
#1629=CARTESIAN_POINT('Origin',(15.0718237498938,-5.10544299073852,-22.476667939034));
#1630=CARTESIAN_POINT('',(23.2218237498938,-5.10544299073852,-22.8057000059228));
#1631=CARTESIAN_POINT('',(19.1968237498938,-5.10544299073852,-22.8057000059228));
#1632=CARTESIAN_POINT('',(23.2218237498938,-5.10544299073852,-31.3877639408169));
#1633=CARTESIAN_POINT('',(23.2218237498938,-5.10544299073852,-22.1758341446056));
#1634=CARTESIAN_POINT('',(17.4595872138736,-5.10544299073852,-31.3877639408169));
#1635=CARTESIAN_POINT('',(23.3218237498938,-5.10544299073852,-31.3877639408169));
#1636=CARTESIAN_POINT('',(18.0718237498938,-5.10544299073852,-32.0000004768372));
#1637=CARTESIAN_POINT('',(14.190990615443,-5.10544299073852,-28.1191673423864));
#1638=CARTESIAN_POINT('',(38.5718237498938,-5.10544299073852,-32.0000004768372));
#1639=CARTESIAN_POINT('',(15.0718237498938,-5.10544299073852,-32.0000004768372));
#1640=CARTESIAN_POINT('',(39.1759030734454,-5.10544299073852,-31.3959211532856));
#1641=CARTESIAN_POINT('',(35.8276568843446,-5.10544299073852,-34.7441673423864));
#1642=CARTESIAN_POINT('',(33.4218237498938,-5.10544299073852,-31.3959211532856));
#1643=CARTESIAN_POINT('',(33.3218237498938,-5.10544299073852,-31.3959211532856));
#1644=CARTESIAN_POINT('',(33.4218237498938,-5.10544299073852,-22.8882561850892));
#1645=CARTESIAN_POINT('',(33.4218237498938,-5.10544299073852,-22.1758341446056));
#1646=CARTESIAN_POINT('',(41.5718237498938,-5.10544299073852,-22.8882561850892));
#1647=CARTESIAN_POINT('',(24.1968237498938,-5.10544299073852,-22.8882561850892));
#1648=CARTESIAN_POINT('',(41.5718237498938,-5.10544299073852,-23.6999994702637));
#1649=CARTESIAN_POINT('Origin',(16.6968237498941,8.38455700926138,-22.3866679485082));
#1650=CARTESIAN_POINT('',(15.9968237498941,8.38455700926138,-23.4835605729671));
#1651=CARTESIAN_POINT('Origin',(16.6968237498941,8.38455700926138,-23.4835605729671));
#1652=CARTESIAN_POINT('',(15.9968237498941,8.38455700926138,-24.3866679485082));
#1653=CARTESIAN_POINT('',(15.9968237498941,8.38455700926138,-22.3866679485082));
#1654=CARTESIAN_POINT('Origin',(16.6968237498941,8.38455700926138,-24.3866679485082));
#1655=CARTESIAN_POINT('Origin',(16.6968237498941,8.38455700926138,-24.3866679485082));
#1656=CARTESIAN_POINT('Origin',(39.9468237498945,8.38455700926138,-22.3866679485082));
#1657=CARTESIAN_POINT('',(39.2468237498945,8.38455700926138,-23.4835605729671));
#1658=CARTESIAN_POINT('Origin',(39.9468237498945,8.38455700926138,-23.4835605729671));
#1659=CARTESIAN_POINT('',(39.2468237498945,8.38455700926138,-24.3866679485082));
#1660=CARTESIAN_POINT('',(39.2468237498945,8.38455700926138,-22.3866679485082));
#1661=CARTESIAN_POINT('Origin',(39.9468237498945,8.38455700926138,-24.3866679485082));
#1662=CARTESIAN_POINT('Origin',(39.9468237498945,8.38455700926138,-24.3866679485082));
#1663=CARTESIAN_POINT('Origin',(15.0718237498938,17.2945570092621,-27.5000004768372));
#1664=CARTESIAN_POINT('',(41.5718237498938,15.7945570092621,-29.0000004768372));
#1665=CARTESIAN_POINT('',(38.5718237498938,12.7945570092621,-32.0000004768372));
#1666=CARTESIAN_POINT('',(35.9501570832271,10.1728903425953,-34.6216671435039));
#1667=CARTESIAN_POINT('',(18.0718237498938,12.7945570092621,-32.0000004768372));
#1668=CARTESIAN_POINT('',(15.0718237498938,12.7945570092621,-32.0000004768372));
#1669=CARTESIAN_POINT('',(16.2768237498939,14.589557009262,-30.2050004768373));
#1670=CARTESIAN_POINT('',(41.5718237498938,21.7945570092621,-23.0000004768372));
#1671=CARTESIAN_POINT('',(15.0718237498938,21.7945570092621,-23.0000004768372));
#1672=CARTESIAN_POINT('',(41.5718237498938,18.5949735764873,-26.1995839096119));
#1673=CARTESIAN_POINT('Origin',(15.0718237498938,-5.10544299073852,-32.0000004768372));
#1674=CARTESIAN_POINT('',(38.5718237498938,8.5645570092615,-32.0000004768372));
#1675=CARTESIAN_POINT('',(18.0718237498938,8.5645570092615,-32.0000004768372));
#1676=CARTESIAN_POINT('Origin',(40.0718237498938,8.5645570092615,-30.5000004768372));
#1677=CARTESIAN_POINT('',(41.5718237498938,-5.65472949547677,-29.0000004768372));
#1678=CARTESIAN_POINT('',(41.5718237498938,8.5645570092615,-29.0000004768372));
#1679=CARTESIAN_POINT('Origin',(39.1759030734454,-10.6054429907385,-31.3959211532856));
#1680=CARTESIAN_POINT('Origin',(41.5718237498938,22.2345570092615,-27.2383342079356));
#1681=CARTESIAN_POINT('',(41.5718237498938,-5.3957825093634,-22.94121673184));
#1682=CARTESIAN_POINT('Origin',(41.5718237498938,-5.25544299073852,-22.8882561850892));
#1683=CARTESIAN_POINT('',(41.5718237498938,-5.75000014364653,-20.9997513461068));
#1684=CARTESIAN_POINT('Origin',(41.5718237498938,-0.250000159784499,-20.9993300176462));
#1685=CARTESIAN_POINT('',(41.5718237498938,-11.1628887285087,-23.4257812033228));
#1686=CARTESIAN_POINT('Origin',(41.5718237498938,-9.00000013411046,-21.0000003129244));
#1687=CARTESIAN_POINT('',(41.5718237498938,-10.1807371592602,-24.5817296344357));
#1688=CARTESIAN_POINT('Origin',(41.5718237498938,-14.8231617344134,-27.530948863997));
#1689=CARTESIAN_POINT('',(41.5718237498938,-8.0718777874228,-26.51421577908));
#1690=CARTESIAN_POINT('Origin',(41.5718237498938,-5.53831258410708,-21.6325104048744));
#1691=CARTESIAN_POINT('Origin',(41.5718237498938,-10.6054429907385,-31.3959211532856));
#1692=CARTESIAN_POINT('',(41.5718237498938,21.7945570092621,-22.3785391403459));
#1693=CARTESIAN_POINT('',(41.5718237498938,21.7945570092621,-27.3584366741407));
#1694=CARTESIAN_POINT('',(41.5718237498938,9.92181006211184,-22.3785391403459));
#1695=CARTESIAN_POINT('',(41.5718237498938,22.0645570092616,-22.3785391403459));
#1696=CARTESIAN_POINT('',(41.5718237498938,9.53530340405976,-23.6205138682205));
#1697=CARTESIAN_POINT('',(41.5718237498938,9.76364780235009,-22.8867672017139));
#1698=CARTESIAN_POINT('',(41.5718237498938,16.0383522720579,-24.3944584799021));
#1699=CARTESIAN_POINT('',(41.5718237498938,-9.00000013411046,-18.7500003129244));
#1700=CARTESIAN_POINT('Origin',(41.5718237498938,-9.00000013411046,-21.0000003129244));
#1701=CARTESIAN_POINT('Origin',(15.0718237498938,21.7945570092621,-27.4785391403459));
#1702=CARTESIAN_POINT('',(15.0718237498938,21.7945570092621,-22.3785391403459));
#1703=CARTESIAN_POINT('Origin',(16.5718237498938,8.5645570092615,-30.5000004768372));
#1704=CARTESIAN_POINT('Origin',(17.4595872138736,-10.6054429907385,-31.3877639408169));
#1705=CARTESIAN_POINT('Origin',(23.3218237498938,-10.6054429907385,-31.3877639408169));
#1706=CARTESIAN_POINT('',(23.2218237498938,-8.05789584709122,-26.5133405337979));
#1707=CARTESIAN_POINT('Origin',(23.2218237498938,-10.6054429907385,-31.3877639408169));
#1708=CARTESIAN_POINT('',(23.3218237498938,-8.05789584709122,-26.5133405337979));
#1709=CARTESIAN_POINT('Origin',(24.1968237498938,-5.25544299073852,-22.8882561850892));
#1710=CARTESIAN_POINT('',(33.4218237498938,-5.3957825093634,-22.94121673184));
#1711=CARTESIAN_POINT('Origin',(33.4218237498938,-5.25544299073852,-22.8882561850892));
#1712=CARTESIAN_POINT('',(24.1968237498938,-5.3957825093634,-22.94121673184));
#1713=CARTESIAN_POINT('Origin',(24.1968237498938,-0.250000159784499,-20.9993300176462));
#1714=CARTESIAN_POINT('',(33.4218237498938,-5.75000014364653,-20.9997513461068));
#1715=CARTESIAN_POINT('Origin',(33.4218237498938,-0.250000159784499,-20.9993300176462));
#1716=CARTESIAN_POINT('',(24.1968237498938,-5.75000014364653,-20.9997513461068));
#1717=CARTESIAN_POINT('Origin',(19.1968237498938,-5.25544299073852,-22.8057000059228));
#1718=CARTESIAN_POINT('',(23.2218237498938,-5.39577112365505,-22.8586907137135));
#1719=CARTESIAN_POINT('Origin',(23.2218237498938,-5.25544299073852,-22.8057000059228));
#1720=CARTESIAN_POINT('',(19.1968237498938,-5.39577112365505,-22.8586907137135));
#1721=CARTESIAN_POINT('Origin',(23.3218237498938,-5.51034870344392,-21.638917126779));
#1722=CARTESIAN_POINT('',(23.2218237498938,-10.1393462156578,-24.6091666166229));
#1723=CARTESIAN_POINT('Origin',(23.2218237498938,-5.51034870344392,-21.638917126779));
#1724=CARTESIAN_POINT('',(23.3218237498938,-10.1393462156578,-24.6091666166229));
#1725=CARTESIAN_POINT('Origin',(23.2218237498938,-8.37500010058284,-21.8750003501773));
#1726=CARTESIAN_POINT('',(23.2218237498938,-5.75015097717334,-20.9686880604487));
#1727=CARTESIAN_POINT('Origin',(23.2218237498938,-0.250406250048985,-20.9156980947206));
#1728=CARTESIAN_POINT('',(23.2218237498938,-11.1425277546503,-23.4437833219544));
#1729=CARTESIAN_POINT('Origin',(23.2218237498938,-9.00000013411046,-21.0000003129244));
#1730=CARTESIAN_POINT('Origin',(23.2218237498938,-14.7683437278716,-27.5794161064668));
#1731=CARTESIAN_POINT('',(23.2218237498938,-9.00000013411046,-23.2500003129244));
#1732=CARTESIAN_POINT('Origin',(23.2218237498938,-9.00000013411046,-21.0000003129244));
#1733=CARTESIAN_POINT('Origin',(33.3218237498938,-5.53831258410708,-21.6325104048744));
#1734=CARTESIAN_POINT('',(33.4218237498938,-10.1807371592602,-24.5817296344357));
#1735=CARTESIAN_POINT('',(33.3218237498938,-10.1807371592602,-24.5817296344357));
#1736=CARTESIAN_POINT('',(33.4218237498938,-8.0718777874228,-26.51421577908));
#1737=CARTESIAN_POINT('Origin',(33.4218237498938,-5.53831258410708,-21.6325104048744));
#1738=CARTESIAN_POINT('',(33.3218237498938,-8.0718777874228,-26.51421577908));
#1739=CARTESIAN_POINT('Origin',(33.3218237498938,-10.6054429907385,-31.3959211532856));
#1740=CARTESIAN_POINT('Origin',(33.4218237498938,-10.6054429907385,-31.3959211532856));
#1741=CARTESIAN_POINT('Origin',(19.1968237498938,-0.250406250048985,-20.9156980947206));
#1742=CARTESIAN_POINT('',(19.1968237498938,-5.75015097717334,-20.9686880604487));
#1743=CARTESIAN_POINT('Origin',(23.3218237498938,-14.7683437278716,-27.5794161064668));
#1744=CARTESIAN_POINT('',(23.3218237498938,-11.1425277546503,-23.4437833219544));
#1745=CARTESIAN_POINT('Origin',(33.3218237498938,-14.8231617344134,-27.530948863997));
#1746=CARTESIAN_POINT('',(33.4218237498938,-11.1628887285087,-23.4257812033228));
#1747=CARTESIAN_POINT('',(33.3218237498938,-11.1628887285087,-23.4257812033228));
#1748=CARTESIAN_POINT('Origin',(33.4218237498938,-14.8231617344134,-27.530948863997));
#1749=CARTESIAN_POINT('Origin',(23.3218237498938,-9.00000013411046,-21.0000003129244));
#1750=CARTESIAN_POINT('',(23.3218237498938,-9.00000013411046,-23.2500003129244));
#1751=CARTESIAN_POINT('Origin',(23.3218237498938,-9.00000013411046,-21.0000003129244));
#1752=CARTESIAN_POINT('Origin',(33.3218237498938,-9.00000013411046,-21.0000003129244));
#1753=CARTESIAN_POINT('',(33.4218237498938,-9.00000013411046,-18.7500003129244));
#1754=CARTESIAN_POINT('',(33.3218237498938,-9.00000013411046,-18.7500003129244));
#1755=CARTESIAN_POINT('Origin',(33.4218237498938,-9.00000013411046,-21.0000003129244));
#1756=CARTESIAN_POINT('Origin',(33.3218237498938,-9.00000013411046,-21.0000003129244));
#1757=CARTESIAN_POINT('Origin',(33.4218237498938,-9.00000013411046,-21.0000003129244));
#1758=CARTESIAN_POINT('Origin',(33.4218237498938,-8.12500009685755,-21.8750003501773));
#1759=CARTESIAN_POINT('Origin',(15.0718237498938,9.59495479416607,-23.6276131339479));
#1760=CARTESIAN_POINT('',(15.0718237498938,9.53530340405976,-23.6205138682205));
#1761=CARTESIAN_POINT('Origin',(15.0718237498938,9.89716284565229,-22.4577388625693));
#1762=CARTESIAN_POINT('',(15.0718237498938,9.92181006211184,-22.3785391403459));
#1763=CARTESIAN_POINT('Origin',(15.0718237498938,21.8945570092618,-22.3785391403459));
#1764=CARTESIAN_POINT('',(0.,0.,0.));
#1765=CARTESIAN_POINT('Origin',(15.0718237498938,49.7845570092616,-19.8107346021155));
#1766=CARTESIAN_POINT('',(15.0718237498938,49.7845570092616,-20.9376524762425));
#1767=CARTESIAN_POINT('',(15.0718237498938,49.7845570092616,-19.8107346021155));
#1768=CARTESIAN_POINT('',(15.0718237498938,49.7845570092616,-19.9883345846099));
#1769=CARTESIAN_POINT('',(41.5718237498938,49.7845570092616,-20.9376524762425));
#1770=CARTESIAN_POINT('',(15.0718237498938,49.7845570092616,-20.9376524762425));
#1771=CARTESIAN_POINT('',(41.5718237498938,49.7845570092616,-19.8107346021155));
#1772=CARTESIAN_POINT('',(41.5718237498938,49.7845570092616,-19.9883345846099));
#1773=CARTESIAN_POINT('',(15.0718237498938,49.7845570092616,-19.8107346021155));
#1774=CARTESIAN_POINT('Origin',(15.0718237498938,49.5845570092616,-20.9376524762425));
#1775=CARTESIAN_POINT('',(15.0718237498938,51.5345570092616,-20.9376524762425));
#1776=CARTESIAN_POINT('',(15.0718237498938,49.5845570092616,-20.9376524762425));
#1777=CARTESIAN_POINT('',(41.5718237498938,51.5345570092616,-20.9376524762425));
#1778=CARTESIAN_POINT('',(15.0718237498938,51.5345570092616,-20.9376524762425));
#1779=CARTESIAN_POINT('',(41.5718237498938,49.5845570092616,-20.9376524762425));
#1780=CARTESIAN_POINT('Origin',(15.0718237498938,22.2345570092615,-20.1659345671043));
#1781=CARTESIAN_POINT('',(15.0718237498938,31.7878104932672,-19.8107346021155));
#1782=CARTESIAN_POINT('',(15.0718237498938,35.9595570092615,-19.8107346021155));
#1783=CARTESIAN_POINT('',(15.0718237498938,31.7878104932672,-20.3885391403459));
#1784=CARTESIAN_POINT('',(15.0718237498938,31.7878104932672,-20.2772368537251));
#1785=CARTESIAN_POINT('',(15.0718237498938,-0.365442990738631,-20.3885391403459));
#1786=CARTESIAN_POINT('',(15.0718237498938,-0.515442990738632,-20.3885391403459));
#1787=CARTESIAN_POINT('',(15.0718237498938,-0.365442990738631,-19.8085391403459));
#1788=CARTESIAN_POINT('',(15.0718237498938,-0.365442990738631,-19.9872368537251));
#1789=CARTESIAN_POINT('',(15.0718237498938,-5.10544299073851,-19.8085391403459));
#1790=CARTESIAN_POINT('',(15.0718237498938,-5.11544299073852,-19.8085391403459));
#1791=CARTESIAN_POINT('',(15.0718237498938,-5.10544299073851,-16.8585391403459));
#1792=CARTESIAN_POINT('',(15.0718237498938,-5.10544299073851,-17.8585391403459));
#1793=CARTESIAN_POINT('',(15.0718237498938,51.5345570092616,-16.8585391403459));
#1794=CARTESIAN_POINT('',(15.0718237498938,-7.06544299073852,-16.8585391403459));
#1795=CARTESIAN_POINT('',(15.0718237498938,51.5345570092616,-18.4385391403459));
#1796=CARTESIAN_POINT('Origin',(21.6968237498938,-4.65841693855033,-19.8165074502379));
#1797=CARTESIAN_POINT('',(33.3218237498938,-5.10544299073851,-18.649173863667));
#1798=CARTESIAN_POINT('',(33.3218237498938,-5.86441227065036,-20.1452554676508));
#1799=CARTESIAN_POINT('Origin',(33.3218237498938,-4.65841693855033,-19.8165074502379));
#1800=CARTESIAN_POINT('',(23.3218237498938,-5.86441227065036,-20.1452554676508));
#1801=CARTESIAN_POINT('',(21.6968237498938,-5.86441227065036,-20.1452554676508));
#1802=CARTESIAN_POINT('',(23.3218237498938,-5.10544299073851,-18.649173863667));
#1803=CARTESIAN_POINT('Origin',(23.3218237498938,-4.65841693855033,-19.8165074502379));
#1804=CARTESIAN_POINT('',(21.6968237498938,-5.10544299073851,-18.649173863667));
#1805=CARTESIAN_POINT('Origin',(28.3218237498938,-8.52372131450089,-17.5000002533197));
#1806=CARTESIAN_POINT('',(23.3218237498938,-8.52372131450089,-17.0000002533197));
#1807=CARTESIAN_POINT('',(23.3218237498938,-9.01186072430568,-17.3917416897073));
#1808=CARTESIAN_POINT('Origin',(23.3218237498938,-8.52372131450089,-17.5000002533197));
#1809=CARTESIAN_POINT('',(33.3218237498938,-9.01186072430568,-17.3917416897073));
#1810=CARTESIAN_POINT('',(28.3218237498938,-9.01186072430568,-17.3917416897073));
#1811=CARTESIAN_POINT('',(33.3218237498938,-8.52372131450089,-17.0000002533197));
#1812=CARTESIAN_POINT('Origin',(33.3218237498938,-8.52372131450089,-17.5000002533197));
#1813=CARTESIAN_POINT('',(28.3218237498938,-8.52372131450089,-17.0000002533197));
#1814=CARTESIAN_POINT('Origin',(23.3218237498938,-7.75624928539021,-20.6250002831221));
#1815=CARTESIAN_POINT('',(23.3218237498938,-5.10544299073851,-17.0000002533197));
#1816=CARTESIAN_POINT('',(23.3218237498938,-9.00000013411046,-17.0000002533197));
#1817=CARTESIAN_POINT('',(23.3218237498938,-5.10544299073851,-26.3125003799796));
#1818=CARTESIAN_POINT('',(23.3218237498938,-9.43333346744379,-17.7790187510054));
#1819=CARTESIAN_POINT('Origin',(23.3218237498938,-9.00000013411046,-21.0000003129244));
#1820=CARTESIAN_POINT('Origin',(23.3218237498938,-9.50000013411046,-17.2834831260948));
#1821=CARTESIAN_POINT('',(23.3218237498938,-9.00000013411046,-18.7500003129244));
#1822=CARTESIAN_POINT('Origin',(23.3218237498938,-9.00000013411046,-21.0000003129244));
#1823=CARTESIAN_POINT('Origin',(28.3218237498938,-3.50000005215406,-17.0000002533197));
#1824=CARTESIAN_POINT('',(33.3218237498938,-5.10544299073851,-17.0000002533197));
#1825=CARTESIAN_POINT('',(33.3218237498938,-9.00000013411046,-17.0000002533197));
#1826=CARTESIAN_POINT('',(21.6968237498938,-5.10544299073851,-17.0000002533197));
#1827=CARTESIAN_POINT('Origin',(28.3218237498938,-9.50000013411046,-17.2834831260948));
#1828=CARTESIAN_POINT('',(33.3218237498938,-9.43333346744379,-17.7790187510054));
#1829=CARTESIAN_POINT('',(28.3218237498938,-9.43333346744379,-17.7790187510054));
#1830=CARTESIAN_POINT('Origin',(33.3218237498938,-9.50000013411046,-17.2834831260948));
#1831=CARTESIAN_POINT('Origin',(28.3218237498938,-9.00000013411046,-21.0000003129244));
#1832=CARTESIAN_POINT('',(33.3218237498938,-9.00000013411046,-18.7500003129244));
#1833=CARTESIAN_POINT('Origin',(33.3218237498938,-9.00000013411046,-21.0000003129244));
#1834=CARTESIAN_POINT('',(28.3218237498938,-9.00000013411046,-18.7500003129244));
#1835=CARTESIAN_POINT('Origin',(28.3218237498938,-9.00000013411046,-21.0000003129244));
#1836=CARTESIAN_POINT('Origin',(33.3218237498938,-9.00000013411046,-21.0000003129244));
#1837=CARTESIAN_POINT('Origin',(33.3218237498938,-7.75624928539021,-20.6250002831221));
#1838=CARTESIAN_POINT('',(33.3218237498938,-5.10544299073851,-26.3125003799796));
#1839=CARTESIAN_POINT('Origin',(15.0718237498938,1.43455700926137,-16.8585391403459));
#1840=CARTESIAN_POINT('',(41.5718237498938,-5.10544299073851,-16.8585391403459));
#1841=CARTESIAN_POINT('',(15.0718237498938,-5.10544299073851,-16.8585391403459));
#1842=CARTESIAN_POINT('',(41.5718237498938,51.5345570092616,-16.8585391403459));
#1843=CARTESIAN_POINT('',(41.5718237498938,1.43455700926137,-16.8585391403459));
#1844=CARTESIAN_POINT('',(15.0718237498938,51.5345570092616,-16.8585391403459));
#1845=CARTESIAN_POINT('Origin',(15.0718237498938,-5.10544299073851,-32.0000004768372));
#1846=CARTESIAN_POINT('',(41.5718237498938,-5.10544299073851,-19.8085391403459));
#1847=CARTESIAN_POINT('',(15.0718237498938,-5.10544299073851,-19.8085391403459));
#1848=CARTESIAN_POINT('',(41.5718237498938,-5.10544299073851,-26.0829675219707));
#1849=CARTESIAN_POINT('Origin',(41.5718237498938,22.2345570092615,-20.1659345671043));
#1850=CARTESIAN_POINT('',(41.5718237498938,51.5345570092616,-18.4385391403459));
#1851=CARTESIAN_POINT('',(41.5718237498938,-0.365442990738631,-19.8085391403459));
#1852=CARTESIAN_POINT('',(41.5718237498938,-5.11544299073852,-19.8085391403459));
#1853=CARTESIAN_POINT('',(41.5718237498938,-0.365442990738631,-20.3885391403459));
#1854=CARTESIAN_POINT('',(41.5718237498938,-0.365442990738631,-19.9872368537251));
#1855=CARTESIAN_POINT('',(41.5718237498938,31.7878104932672,-20.3885391403459));
#1856=CARTESIAN_POINT('',(41.5718237498938,-0.515442990738632,-20.3885391403459));
#1857=CARTESIAN_POINT('',(41.5718237498938,31.7878104932672,-19.8107346021155));
#1858=CARTESIAN_POINT('',(41.5718237498938,31.7878104932672,-20.2772368537251));
#1859=CARTESIAN_POINT('',(41.5718237498938,49.5845570092616,-19.8107346021155));
#1860=CARTESIAN_POINT('Origin',(15.0718237498938,-5.11544299073852,-19.8085391403459));
#1861=CARTESIAN_POINT('',(15.0718237498938,-0.365442990738631,-19.8085391403459));
#1862=CARTESIAN_POINT('Origin',(18.5218237498943,9.1845570092616,-22.0410402752479));
#1863=CARTESIAN_POINT('',(18.5218237498943,-0.365442990738631,-22.4220593721547));
#1864=CARTESIAN_POINT('',(18.5218237498943,-0.365442990738631,-20.3885391403459));
#1865=CARTESIAN_POINT('',(18.5218237498943,-0.365442990738631,-20.9247897077969));
#1866=CARTESIAN_POINT('',(18.5218237498943,18.7845570092618,-20.3885391403459));
#1867=CARTESIAN_POINT('',(18.5218237498943,4.33455700926148,-20.3885391403459));
#1868=CARTESIAN_POINT('',(18.5218237498943,18.7845570092616,-22.3385391403459));
#1869=CARTESIAN_POINT('',(18.5218237498943,18.7845570092617,-21.2397897077976));
#1870=CARTESIAN_POINT('',(18.5218237498943,9.90283904857217,-22.3385391403459));
#1871=CARTESIAN_POINT('',(18.5218237498943,14.0595570092616,-22.3385391403459));
#1872=CARTESIAN_POINT('',(18.5218237498943,9.5110505052284,-23.5974863262911));
#1873=CARTESIAN_POINT('',(18.5218237498943,9.90054624290554,-22.3459066892213));
#1874=CARTESIAN_POINT('',(18.5218237498943,9.2853753559652,-23.5706281449507));
#1875=CARTESIAN_POINT('Origin',(38.1218237498943,9.1845570092616,-22.0410402752479));
#1876=CARTESIAN_POINT('',(38.1218237498943,-0.365442990738631,-20.3885391403459));
#1877=CARTESIAN_POINT('',(38.1218237498943,-0.365442990738631,-22.4220593721547));
#1878=CARTESIAN_POINT('',(38.1218237498943,-0.365442990738631,-20.9247897077969));
#1879=CARTESIAN_POINT('',(38.1218237498943,9.5110505052284,-23.5974863262911));
#1880=CARTESIAN_POINT('',(38.1218237498943,9.2853753559652,-23.5706281449507));
#1881=CARTESIAN_POINT('',(38.1218237498943,9.90283904857217,-22.3385391403459));
#1882=CARTESIAN_POINT('',(38.1218237498943,9.90054624290554,-22.3459066892213));
#1883=CARTESIAN_POINT('',(38.1218237498943,18.7845570092616,-22.3385391403459));
#1884=CARTESIAN_POINT('',(38.1218237498943,14.0595570092616,-22.3385391403459));
#1885=CARTESIAN_POINT('',(38.1218237498943,18.7845570092618,-20.3885391403459));
#1886=CARTESIAN_POINT('',(38.1218237498943,18.7845570092617,-21.2397897077976));
#1887=CARTESIAN_POINT('',(38.1218237498943,4.33455700926148,-20.3885391403459));
#1888=CARTESIAN_POINT('Origin',(15.0718237498938,-0.515442990738632,-20.3885391403459));
#1889=CARTESIAN_POINT('',(26.6968237498941,18.7845570092618,-20.3885391403459));
#1890=CARTESIAN_POINT('',(15.0718237498938,-0.365442990738631,-20.3885391403459));
#1891=CARTESIAN_POINT('',(15.0718237498938,31.7878104932672,-20.3885391403459));
#1892=CARTESIAN_POINT('',(15.0718237498938,-0.365442990738631,-20.3885391403459));
#1893=CARTESIAN_POINT('Origin',(15.0718237498938,-0.365442990738631,-19.8085391403459));
#1894=CARTESIAN_POINT('',(26.6968237498941,-0.365442990738631,-22.4220593721547));
#1895=CARTESIAN_POINT('Origin',(15.0718237498938,51.5345570092616,-20.9376524762425));
#1896=CARTESIAN_POINT('Origin',(15.0718237498938,31.8878104932672,-19.8107346021155));
#1897=CARTESIAN_POINT('',(15.0718237498938,31.7878104932672,-19.8107346021155));
#1898=CARTESIAN_POINT('Origin',(15.0718237498938,31.7878104932672,-20.3885391403459));
#1899=CARTESIAN_POINT('Origin',(38.3218237498943,9.56428344611595,-23.6038217158292));
#1900=CARTESIAN_POINT('',(38.3218237498943,9.5110505052284,-23.5974863262911));
#1901=CARTESIAN_POINT('Origin',(38.3218237498943,9.87726710132823,-22.4207103308231));
#1902=CARTESIAN_POINT('',(38.3218237498943,9.90283904857216,-22.3385391403459));
#1903=CARTESIAN_POINT('Origin',(38.3218237498943,18.9345570092615,-22.3385391403459));
#1904=CARTESIAN_POINT('',(38.3218237498943,18.7845570092616,-22.3385391403459));
#1905=CARTESIAN_POINT('Origin',(38.3218237498943,18.7845570092618,-20.4385391403458));
#1906=CARTESIAN_POINT('',(0.,0.0499999999998034,-0.0500000000004475));
#1907=CARTESIAN_POINT('',(0.,0.0499999999999923,-0.0499999999999989));
#1908=UNCERTAINTY_MEASURE_WITH_UNIT(LENGTH_MEASURE(0.01),#1916,
'DISTANCE_ACCURACY_VALUE',
'Maximum model space distance between geometric entities at asserted c
onnectivities');
#1909=UNCERTAINTY_MEASURE_WITH_UNIT(LENGTH_MEASURE(0.01),#1916,
'DISTANCE_ACCURACY_VALUE',
'Maximum model space distance between geometric entities at asserted c
onnectivities');
#1910=UNCERTAINTY_MEASURE_WITH_UNIT(LENGTH_MEASURE(0.01),#1916,
'DISTANCE_ACCURACY_VALUE',
'Maximum model space distance between geometric entities at asserted c
onnectivities');
#1911=UNCERTAINTY_MEASURE_WITH_UNIT(LENGTH_MEASURE(0.01),#1916,
'DISTANCE_ACCURACY_VALUE',
'Maximum model space distance between geometric entities at asserted c
onnectivities');
#1912=(
GEOMETRIC_REPRESENTATION_CONTEXT(3)
GLOBAL_UNCERTAINTY_ASSIGNED_CONTEXT((#1908))
GLOBAL_UNIT_ASSIGNED_CONTEXT((#1916,#1918,#1919))
REPRESENTATION_CONTEXT('','3D')
);
#1913=(
GEOMETRIC_REPRESENTATION_CONTEXT(3)
GLOBAL_UNCERTAINTY_ASSIGNED_CONTEXT((#1909))
GLOBAL_UNIT_ASSIGNED_CONTEXT((#1916,#1918,#1919))
REPRESENTATION_CONTEXT('','3D')
);
#1914=(
GEOMETRIC_REPRESENTATION_CONTEXT(3)
GLOBAL_UNCERTAINTY_ASSIGNED_CONTEXT((#1910))
GLOBAL_UNIT_ASSIGNED_CONTEXT((#1916,#1918,#1919))
REPRESENTATION_CONTEXT('','3D')
);
#1915=(
GEOMETRIC_REPRESENTATION_CONTEXT(3)
GLOBAL_UNCERTAINTY_ASSIGNED_CONTEXT((#1911))
GLOBAL_UNIT_ASSIGNED_CONTEXT((#1916,#1918,#1919))
REPRESENTATION_CONTEXT('','3D')
);
#1916=(
LENGTH_UNIT()
NAMED_UNIT(*)
SI_UNIT(.MILLI.,.METRE.)
);
#1917=(
LENGTH_UNIT()
NAMED_UNIT(*)
SI_UNIT($,.METRE.)
);
#1918=(
NAMED_UNIT(*)
PLANE_ANGLE_UNIT()
SI_UNIT($,.RADIAN.)
);
#1919=(
NAMED_UNIT(*)
SI_UNIT($,.STERADIAN.)
SOLID_ANGLE_UNIT()
);
#1920=SHAPE_DEFINITION_REPRESENTATION(#1923,#1928);
#1921=SHAPE_DEFINITION_REPRESENTATION(#1924,#1929);
#1922=SHAPE_DEFINITION_REPRESENTATION(#1925,#1930);
#1923=PRODUCT_DEFINITION_SHAPE('',$,#1932);
#1924=PRODUCT_DEFINITION_SHAPE('',$,#1933);
#1925=PRODUCT_DEFINITION_SHAPE('',$,#1934);
#1926=PRODUCT_DEFINITION_SHAPE($,$,#17);
#1927=PRODUCT_DEFINITION_SHAPE($,$,#18);
#1928=SHAPE_REPRESENTATION('',(#1144,#1252,#1253),#1912);
#1929=SHAPE_REPRESENTATION('',(#1145),#1913);
#1930=SHAPE_REPRESENTATION('',(#1215),#1914);
#1931=PRODUCT_DEFINITION_CONTEXT('part definition',#1942,'design');
#1932=PRODUCT_DEFINITION('holder-fly','holder-fly v29',#1935,#1931);
#1933=PRODUCT_DEFINITION('Component1','Component1',#1936,#1931);
#1934=PRODUCT_DEFINITION('Component2','Component2',#1937,#1931);
#1935=PRODUCT_DEFINITION_FORMATION('',$,#1944);
#1936=PRODUCT_DEFINITION_FORMATION('',$,#1945);
#1937=PRODUCT_DEFINITION_FORMATION('',$,#1946);
#1938=PRODUCT_RELATED_PRODUCT_CATEGORY('holder-fly v29',
'holder-fly v29',(#1944));
#1939=PRODUCT_RELATED_PRODUCT_CATEGORY('Component1','Component1',(#1945));
#1940=PRODUCT_RELATED_PRODUCT_CATEGORY('Component2','Component2',(#1946));
#1941=APPLICATION_PROTOCOL_DEFINITION('international standard',
'automotive_design',2009,#1942);
#1942=APPLICATION_CONTEXT(
'Core Data for Automotive Mechanical Design Process');
#1943=PRODUCT_CONTEXT('part definition',#1942,'mechanical');
#1944=PRODUCT('holder-fly','holder-fly v29',$,(#1943));
#1945=PRODUCT('Component1','Component1',$,(#1943));
#1946=PRODUCT('Component2','Component2',$,(#1943));
#1947=PRESENTATION_STYLE_ASSIGNMENT((#1948));
#1948=SURFACE_STYLE_USAGE(.BOTH.,#1949);
#1949=SURFACE_SIDE_STYLE('',(#1950));
#1950=SURFACE_STYLE_FILL_AREA(#1951);
#1951=FILL_AREA_STYLE('Steel - Satin',(#1952));
#1952=FILL_AREA_STYLE_COLOUR('Steel - Satin',#1953);
#1953=COLOUR_RGB('Steel - Satin',0.627450980392157,0.627450980392157,0.627450980392157);
ENDSEC;
END-ISO-10303-21;
