ISO-10303-21;
HEADER;
/* Generated by software containing ST-Developer
 * from STEP Tools, Inc. (www.steptools.com) 
 */

FILE_DESCRIPTION(
/* description */ ('STEP AP203'),
/* implementation_level */ '2;1');

FILE_NAME(
/* name */ '8486K333_Clear Cast Acrylic Tube.step',
/* time_stamp */ '2026-03-03T08:49:43-05:00',
/* author */ (''),
/* organization */ (''),
/* preprocessor_version */ 'ST-DEVELOPER v20.1',
/* originating_system */ 'Autodesk Translation Framework v14.24.0.0',
/* authorisation */ '');

FILE_SCHEMA (('AUTOMOTIVE_DESIGN { 1 0 10303 214 3 1 1 }'));
ENDSEC;

DATA;
#10=MECHANICAL_DESIGN_GEOMETRIC_PRESENTATION_REPRESENTATION('',(#13),#459);
#11=SHAPE_REPRESENTATION_RELATIONSHIP('SRR','None',#466,#12);
#12=ADVANCED_BREP_SHAPE_REPRESENTATION('',(#14),#458);
#13=STYLED_ITEM('',(#475),#14);
#14=MANIFOLD_SOLID_BREP('Body1',#263);
#15=CYLINDRICAL_SURFACE('',#293,19.05);
#16=CYLINDRICAL_SURFACE('',#300,15.875);
#17=FACE_OUTER_BOUND('',#31,.T.);
#18=FACE_OUTER_BOUND('',#32,.T.);
#19=FACE_OUTER_BOUND('',#33,.T.);
#20=FACE_OUTER_BOUND('',#34,.T.);
#21=FACE_OUTER_BOUND('',#35,.T.);
#22=FACE_OUTER_BOUND('',#36,.T.);
#23=FACE_OUTER_BOUND('',#37,.T.);
#24=FACE_OUTER_BOUND('',#38,.T.);
#25=FACE_OUTER_BOUND('',#39,.T.);
#26=FACE_OUTER_BOUND('',#40,.T.);
#27=FACE_OUTER_BOUND('',#41,.T.);
#28=FACE_OUTER_BOUND('',#42,.T.);
#29=FACE_OUTER_BOUND('',#43,.T.);
#30=FACE_OUTER_BOUND('',#44,.T.);
#31=EDGE_LOOP('',(#165,#166,#167,#168));
#32=EDGE_LOOP('',(#169,#170,#171,#172));
#33=EDGE_LOOP('',(#173,#174,#175,#176));
#34=EDGE_LOOP('',(#177,#178,#179,#180));
#35=EDGE_LOOP('',(#181,#182,#183,#184));
#36=EDGE_LOOP('',(#185,#186,#187,#188));
#37=EDGE_LOOP('',(#189,#190,#191,#192));
#38=EDGE_LOOP('',(#193,#194,#195,#196));
#39=EDGE_LOOP('',(#197,#198,#199,#200,#201,#202,#203,#204,#205,#206,#207,
#208));
#40=EDGE_LOOP('',(#209,#210,#211,#212));
#41=EDGE_LOOP('',(#213,#214,#215,#216));
#42=EDGE_LOOP('',(#217,#218,#219,#220));
#43=EDGE_LOOP('',(#221,#222,#223,#224,#225,#226,#227,#228,#229,#230,#231,
#232));
#44=EDGE_LOOP('',(#233,#234,#235,#236));
#45=LINE('',#387,#69);
#46=LINE('',#390,#70);
#47=LINE('',#396,#71);
#48=LINE('',#399,#72);
#49=LINE('',#402,#73);
#50=LINE('',#404,#74);
#51=LINE('',#405,#75);
#52=LINE('',#410,#76);
#53=LINE('',#417,#77);
#54=LINE('',#420,#78);
#55=LINE('',#422,#79);
#56=LINE('',#423,#80);
#57=LINE('',#426,#81);
#58=LINE('',#428,#82);
#59=LINE('',#429,#83);
#60=LINE('',#432,#84);
#61=LINE('',#434,#85);
#62=LINE('',#435,#86);
#63=LINE('',#439,#87);
#64=LINE('',#441,#88);
#65=LINE('',#445,#89);
#66=LINE('',#446,#90);
#67=LINE('',#449,#91);
#68=LINE('',#450,#92);
#69=VECTOR('',#309,10.);
#70=VECTOR('',#312,10.);
#71=VECTOR('',#317,10.);
#72=VECTOR('',#320,10.);
#73=VECTOR('',#323,10.);
#74=VECTOR('',#324,10.);
#75=VECTOR('',#325,10.);
#76=VECTOR('',#330,10.);
#77=VECTOR('',#337,10.);
#78=VECTOR('',#340,10.);
#79=VECTOR('',#343,10.);
#80=VECTOR('',#344,10.);
#81=VECTOR('',#347,10.);
#82=VECTOR('',#348,10.);
#83=VECTOR('',#349,10.);
#84=VECTOR('',#352,10.);
#85=VECTOR('',#353,10.);
#86=VECTOR('',#354,10.);
#87=VECTOR('',#359,10.);
#88=VECTOR('',#360,10.);
#89=VECTOR('',#365,10.);
#90=VECTOR('',#366,10.);
#91=VECTOR('',#369,10.);
#92=VECTOR('',#370,10.);
#93=CIRCLE('',#278,19.05);
#94=CIRCLE('',#279,15.875);
#95=CIRCLE('',#281,15.875);
#96=CIRCLE('',#282,19.05);
#97=CIRCLE('',#285,19.05);
#98=CIRCLE('',#286,15.875);
#99=CIRCLE('',#288,15.875);
#100=CIRCLE('',#289,19.05);
#101=CIRCLE('',#294,19.05);
#102=CIRCLE('',#295,19.05);
#103=CIRCLE('',#299,15.875);
#104=CIRCLE('',#301,15.875);
#105=VERTEX_POINT('',#383);
#106=VERTEX_POINT('',#384);
#107=VERTEX_POINT('',#386);
#108=VERTEX_POINT('',#388);
#109=VERTEX_POINT('',#392);
#110=VERTEX_POINT('',#393);
#111=VERTEX_POINT('',#395);
#112=VERTEX_POINT('',#397);
#113=VERTEX_POINT('',#401);
#114=VERTEX_POINT('',#403);
#115=VERTEX_POINT('',#407);
#116=VERTEX_POINT('',#409);
#117=VERTEX_POINT('',#413);
#118=VERTEX_POINT('',#414);
#119=VERTEX_POINT('',#416);
#120=VERTEX_POINT('',#418);
#121=VERTEX_POINT('',#425);
#122=VERTEX_POINT('',#427);
#123=VERTEX_POINT('',#431);
#124=VERTEX_POINT('',#433);
#125=VERTEX_POINT('',#437);
#126=VERTEX_POINT('',#440);
#127=VERTEX_POINT('',#444);
#128=VERTEX_POINT('',#448);
#129=EDGE_CURVE('',#105,#106,#93,.T.);
#130=EDGE_CURVE('',#107,#105,#45,.T.);
#131=EDGE_CURVE('',#108,#107,#94,.T.);
#132=EDGE_CURVE('',#106,#108,#46,.T.);
#133=EDGE_CURVE('',#109,#110,#95,.T.);
#134=EDGE_CURVE('',#111,#109,#47,.T.);
#135=EDGE_CURVE('',#112,#111,#96,.T.);
#136=EDGE_CURVE('',#110,#112,#48,.T.);
#137=EDGE_CURVE('',#113,#105,#49,.T.);
#138=EDGE_CURVE('',#113,#114,#50,.T.);
#139=EDGE_CURVE('',#107,#114,#51,.T.);
#140=EDGE_CURVE('',#115,#113,#97,.T.);
#141=EDGE_CURVE('',#116,#115,#52,.T.);
#142=EDGE_CURVE('',#114,#116,#98,.T.);
#143=EDGE_CURVE('',#117,#118,#99,.T.);
#144=EDGE_CURVE('',#119,#117,#53,.T.);
#145=EDGE_CURVE('',#120,#119,#100,.T.);
#146=EDGE_CURVE('',#118,#120,#54,.T.);
#147=EDGE_CURVE('',#118,#109,#55,.T.);
#148=EDGE_CURVE('',#111,#120,#56,.T.);
#149=EDGE_CURVE('',#121,#117,#57,.T.);
#150=EDGE_CURVE('',#122,#121,#58,.T.);
#151=EDGE_CURVE('',#119,#122,#59,.T.);
#152=EDGE_CURVE('',#123,#112,#60,.T.);
#153=EDGE_CURVE('',#124,#123,#61,.T.);
#154=EDGE_CURVE('',#110,#124,#62,.T.);
#155=EDGE_CURVE('',#122,#125,#101,.T.);
#156=EDGE_CURVE('',#125,#115,#63,.T.);
#157=EDGE_CURVE('',#106,#126,#64,.T.);
#158=EDGE_CURVE('',#123,#126,#102,.T.);
#159=EDGE_CURVE('',#127,#125,#65,.T.);
#160=EDGE_CURVE('',#116,#127,#66,.T.);
#161=EDGE_CURVE('',#128,#108,#67,.T.);
#162=EDGE_CURVE('',#126,#128,#68,.T.);
#163=EDGE_CURVE('',#124,#128,#103,.T.);
#164=EDGE_CURVE('',#121,#127,#104,.T.);
#165=ORIENTED_EDGE('',*,*,#129,.F.);
#166=ORIENTED_EDGE('',*,*,#130,.F.);
#167=ORIENTED_EDGE('',*,*,#131,.F.);
#168=ORIENTED_EDGE('',*,*,#132,.F.);
#169=ORIENTED_EDGE('',*,*,#133,.F.);
#170=ORIENTED_EDGE('',*,*,#134,.F.);
#171=ORIENTED_EDGE('',*,*,#135,.F.);
#172=ORIENTED_EDGE('',*,*,#136,.F.);
#173=ORIENTED_EDGE('',*,*,#137,.F.);
#174=ORIENTED_EDGE('',*,*,#138,.T.);
#175=ORIENTED_EDGE('',*,*,#139,.F.);
#176=ORIENTED_EDGE('',*,*,#130,.T.);
#177=ORIENTED_EDGE('',*,*,#140,.F.);
#178=ORIENTED_EDGE('',*,*,#141,.F.);
#179=ORIENTED_EDGE('',*,*,#142,.F.);
#180=ORIENTED_EDGE('',*,*,#138,.F.);
#181=ORIENTED_EDGE('',*,*,#143,.F.);
#182=ORIENTED_EDGE('',*,*,#144,.F.);
#183=ORIENTED_EDGE('',*,*,#145,.F.);
#184=ORIENTED_EDGE('',*,*,#146,.F.);
#185=ORIENTED_EDGE('',*,*,#147,.F.);
#186=ORIENTED_EDGE('',*,*,#146,.T.);
#187=ORIENTED_EDGE('',*,*,#148,.F.);
#188=ORIENTED_EDGE('',*,*,#134,.T.);
#189=ORIENTED_EDGE('',*,*,#144,.T.);
#190=ORIENTED_EDGE('',*,*,#149,.F.);
#191=ORIENTED_EDGE('',*,*,#150,.F.);
#192=ORIENTED_EDGE('',*,*,#151,.F.);
#193=ORIENTED_EDGE('',*,*,#136,.T.);
#194=ORIENTED_EDGE('',*,*,#152,.F.);
#195=ORIENTED_EDGE('',*,*,#153,.F.);
#196=ORIENTED_EDGE('',*,*,#154,.F.);
#197=ORIENTED_EDGE('',*,*,#135,.T.);
#198=ORIENTED_EDGE('',*,*,#148,.T.);
#199=ORIENTED_EDGE('',*,*,#145,.T.);
#200=ORIENTED_EDGE('',*,*,#151,.T.);
#201=ORIENTED_EDGE('',*,*,#155,.T.);
#202=ORIENTED_EDGE('',*,*,#156,.T.);
#203=ORIENTED_EDGE('',*,*,#140,.T.);
#204=ORIENTED_EDGE('',*,*,#137,.T.);
#205=ORIENTED_EDGE('',*,*,#129,.T.);
#206=ORIENTED_EDGE('',*,*,#157,.T.);
#207=ORIENTED_EDGE('',*,*,#158,.F.);
#208=ORIENTED_EDGE('',*,*,#152,.T.);
#209=ORIENTED_EDGE('',*,*,#141,.T.);
#210=ORIENTED_EDGE('',*,*,#156,.F.);
#211=ORIENTED_EDGE('',*,*,#159,.F.);
#212=ORIENTED_EDGE('',*,*,#160,.F.);
#213=ORIENTED_EDGE('',*,*,#132,.T.);
#214=ORIENTED_EDGE('',*,*,#161,.F.);
#215=ORIENTED_EDGE('',*,*,#162,.F.);
#216=ORIENTED_EDGE('',*,*,#157,.F.);
#217=ORIENTED_EDGE('',*,*,#162,.T.);
#218=ORIENTED_EDGE('',*,*,#163,.F.);
#219=ORIENTED_EDGE('',*,*,#153,.T.);
#220=ORIENTED_EDGE('',*,*,#158,.T.);
#221=ORIENTED_EDGE('',*,*,#133,.T.);
#222=ORIENTED_EDGE('',*,*,#154,.T.);
#223=ORIENTED_EDGE('',*,*,#163,.T.);
#224=ORIENTED_EDGE('',*,*,#161,.T.);
#225=ORIENTED_EDGE('',*,*,#131,.T.);
#226=ORIENTED_EDGE('',*,*,#139,.T.);
#227=ORIENTED_EDGE('',*,*,#142,.T.);
#228=ORIENTED_EDGE('',*,*,#160,.T.);
#229=ORIENTED_EDGE('',*,*,#164,.F.);
#230=ORIENTED_EDGE('',*,*,#149,.T.);
#231=ORIENTED_EDGE('',*,*,#143,.T.);
#232=ORIENTED_EDGE('',*,*,#147,.T.);
#233=ORIENTED_EDGE('',*,*,#159,.T.);
#234=ORIENTED_EDGE('',*,*,#155,.F.);
#235=ORIENTED_EDGE('',*,*,#150,.T.);
#236=ORIENTED_EDGE('',*,*,#164,.T.);
#237=PLANE('',#277);
#238=PLANE('',#280);
#239=PLANE('',#283);
#240=PLANE('',#284);
#241=PLANE('',#287);
#242=PLANE('',#290);
#243=PLANE('',#291);
#244=PLANE('',#292);
#245=PLANE('',#296);
#246=PLANE('',#297);
#247=PLANE('',#298);
#248=PLANE('',#302);
#249=ADVANCED_FACE('',(#17),#237,.F.);
#250=ADVANCED_FACE('',(#18),#238,.F.);
#251=ADVANCED_FACE('',(#19),#239,.T.);
#252=ADVANCED_FACE('',(#20),#240,.F.);
#253=ADVANCED_FACE('',(#21),#241,.F.);
#254=ADVANCED_FACE('',(#22),#242,.T.);
#255=ADVANCED_FACE('',(#23),#243,.F.);
#256=ADVANCED_FACE('',(#24),#244,.F.);
#257=ADVANCED_FACE('',(#25),#15,.T.);
#258=ADVANCED_FACE('',(#26),#245,.F.);
#259=ADVANCED_FACE('',(#27),#246,.F.);
#260=ADVANCED_FACE('',(#28),#247,.T.);
#261=ADVANCED_FACE('',(#29),#16,.F.);
#262=ADVANCED_FACE('',(#30),#248,.F.);
#263=CLOSED_SHELL('',(#249,#250,#251,#252,#253,#254,#255,#256,#257,#258,
#259,#260,#261,#262));
#264=DERIVED_UNIT_ELEMENT(#266,1.);
#265=DERIVED_UNIT_ELEMENT(#461,-3.);
#266=(
MASS_UNIT()
NAMED_UNIT(*)
SI_UNIT(.KILO.,.GRAM.)
);
#267=DERIVED_UNIT((#264,#265));
#268=MEASURE_REPRESENTATION_ITEM('density measure',
POSITIVE_RATIO_MEASURE(7850.),#267);
#269=PROPERTY_DEFINITION_REPRESENTATION(#274,#271);
#270=PROPERTY_DEFINITION_REPRESENTATION(#275,#272);
#271=REPRESENTATION('material name',(#273),#458);
#272=REPRESENTATION('density',(#268),#458);
#273=DESCRIPTIVE_REPRESENTATION_ITEM('Steel','Steel');
#274=PROPERTY_DEFINITION('material property','material name',#468);
#275=PROPERTY_DEFINITION('material property','density of part',#468);
#276=AXIS2_PLACEMENT_3D('',#381,#303,#304);
#277=AXIS2_PLACEMENT_3D('',#382,#305,#306);
#278=AXIS2_PLACEMENT_3D('',#385,#307,#308);
#279=AXIS2_PLACEMENT_3D('',#389,#310,#311);
#280=AXIS2_PLACEMENT_3D('',#391,#313,#314);
#281=AXIS2_PLACEMENT_3D('',#394,#315,#316);
#282=AXIS2_PLACEMENT_3D('',#398,#318,#319);
#283=AXIS2_PLACEMENT_3D('',#400,#321,#322);
#284=AXIS2_PLACEMENT_3D('',#406,#326,#327);
#285=AXIS2_PLACEMENT_3D('',#408,#328,#329);
#286=AXIS2_PLACEMENT_3D('',#411,#331,#332);
#287=AXIS2_PLACEMENT_3D('',#412,#333,#334);
#288=AXIS2_PLACEMENT_3D('',#415,#335,#336);
#289=AXIS2_PLACEMENT_3D('',#419,#338,#339);
#290=AXIS2_PLACEMENT_3D('',#421,#341,#342);
#291=AXIS2_PLACEMENT_3D('',#424,#345,#346);
#292=AXIS2_PLACEMENT_3D('',#430,#350,#351);
#293=AXIS2_PLACEMENT_3D('',#436,#355,#356);
#294=AXIS2_PLACEMENT_3D('',#438,#357,#358);
#295=AXIS2_PLACEMENT_3D('',#442,#361,#362);
#296=AXIS2_PLACEMENT_3D('',#443,#363,#364);
#297=AXIS2_PLACEMENT_3D('',#447,#367,#368);
#298=AXIS2_PLACEMENT_3D('',#451,#371,#372);
#299=AXIS2_PLACEMENT_3D('',#452,#373,#374);
#300=AXIS2_PLACEMENT_3D('',#453,#375,#376);
#301=AXIS2_PLACEMENT_3D('',#454,#377,#378);
#302=AXIS2_PLACEMENT_3D('',#455,#379,#380);
#303=DIRECTION('axis',(0.,0.,1.));
#304=DIRECTION('refdir',(1.,0.,0.));
#305=DIRECTION('center_axis',(0.,0.,1.));
#306=DIRECTION('ref_axis',(1.,0.,0.));
#307=DIRECTION('center_axis',(0.,0.,1.));
#308=DIRECTION('ref_axis',(-1.,0.,0.));
#309=DIRECTION('',(1.,0.,0.));
#310=DIRECTION('center_axis',(0.,0.,-1.));
#311=DIRECTION('ref_axis',(-1.,0.,0.));
#312=DIRECTION('',(0.,-1.,0.));
#313=DIRECTION('center_axis',(0.,0.,1.));
#314=DIRECTION('ref_axis',(1.,0.,0.));
#315=DIRECTION('center_axis',(0.,0.,-1.));
#316=DIRECTION('ref_axis',(-1.,0.,0.));
#317=DIRECTION('',(1.,0.,0.));
#318=DIRECTION('center_axis',(0.,0.,1.));
#319=DIRECTION('ref_axis',(-1.,0.,0.));
#320=DIRECTION('',(0.,1.,0.));
#321=DIRECTION('center_axis',(0.,1.,0.));
#322=DIRECTION('ref_axis',(1.,0.,0.));
#323=DIRECTION('',(0.,0.,1.));
#324=DIRECTION('',(-1.,0.,0.));
#325=DIRECTION('',(0.,0.,-1.));
#326=DIRECTION('center_axis',(0.,0.,-1.));
#327=DIRECTION('ref_axis',(-1.,0.,0.));
#328=DIRECTION('center_axis',(0.,0.,-1.));
#329=DIRECTION('ref_axis',(-1.,0.,0.));
#330=DIRECTION('',(0.,1.,0.));
#331=DIRECTION('center_axis',(0.,0.,1.));
#332=DIRECTION('ref_axis',(-1.,0.,0.));
#333=DIRECTION('center_axis',(0.,0.,-1.));
#334=DIRECTION('ref_axis',(-1.,0.,0.));
#335=DIRECTION('center_axis',(0.,0.,1.));
#336=DIRECTION('ref_axis',(-1.,0.,0.));
#337=DIRECTION('',(0.,-1.,0.));
#338=DIRECTION('center_axis',(0.,0.,-1.));
#339=DIRECTION('ref_axis',(-1.,0.,0.));
#340=DIRECTION('',(-1.,0.,0.));
#341=DIRECTION('center_axis',(0.,1.,0.));
#342=DIRECTION('ref_axis',(1.,0.,0.));
#343=DIRECTION('',(0.,0.,1.));
#344=DIRECTION('',(0.,0.,-1.));
#345=DIRECTION('center_axis',(-1.,0.,0.));
#346=DIRECTION('ref_axis',(0.,1.,0.));
#347=DIRECTION('',(0.,0.,1.));
#348=DIRECTION('',(0.,-1.,0.));
#349=DIRECTION('',(0.,0.,-1.));
#350=DIRECTION('center_axis',(-1.,0.,0.));
#351=DIRECTION('ref_axis',(0.,1.,0.));
#352=DIRECTION('',(0.,0.,-1.));
#353=DIRECTION('',(0.,1.,0.));
#354=DIRECTION('',(0.,0.,1.));
#355=DIRECTION('center_axis',(0.,0.,-1.));
#356=DIRECTION('ref_axis',(-1.83758917935762E-15,-1.,0.));
#357=DIRECTION('center_axis',(0.,0.,1.));
#358=DIRECTION('ref_axis',(1.,0.,0.));
#359=DIRECTION('',(0.,0.,1.));
#360=DIRECTION('',(0.,0.,1.));
#361=DIRECTION('center_axis',(0.,0.,1.));
#362=DIRECTION('ref_axis',(1.,0.,0.));
#363=DIRECTION('center_axis',(1.,0.,0.));
#364=DIRECTION('ref_axis',(0.,-1.,0.));
#365=DIRECTION('',(0.,1.,0.));
#366=DIRECTION('',(0.,0.,-1.));
#367=DIRECTION('center_axis',(1.,0.,0.));
#368=DIRECTION('ref_axis',(0.,-1.,0.));
#369=DIRECTION('',(0.,0.,-1.));
#370=DIRECTION('',(0.,-1.,0.));
#371=DIRECTION('center_axis',(0.,0.,1.));
#372=DIRECTION('ref_axis',(1.,0.,0.));
#373=DIRECTION('center_axis',(0.,0.,1.));
#374=DIRECTION('ref_axis',(1.,0.,0.));
#375=DIRECTION('center_axis',(0.,0.,-1.));
#376=DIRECTION('ref_axis',(-2.72576759905774E-15,-1.,0.));
#377=DIRECTION('center_axis',(0.,0.,1.));
#378=DIRECTION('ref_axis',(1.,0.,0.));
#379=DIRECTION('center_axis',(0.,0.,1.));
#380=DIRECTION('ref_axis',(1.,0.,0.));
#381=CARTESIAN_POINT('',(0.,0.,0.));
#382=CARTESIAN_POINT('Origin',(-29.8658692035346,0.,2.335));
#383=CARTESIAN_POINT('',(19.05,0.,2.33499999999999));
#384=CARTESIAN_POINT('',(7.5,17.5114962239096,2.33499999999999));
#385=CARTESIAN_POINT('Origin',(0.,0.,2.33499999999999));
#386=CARTESIAN_POINT('',(15.875,0.,2.33499999999999));
#387=CARTESIAN_POINT('',(-29.8658692035346,0.,2.335));
#388=CARTESIAN_POINT('',(7.5,13.991626960436,2.33499999999999));
#389=CARTESIAN_POINT('Origin',(0.,0.,2.33499999999999));
#390=CARTESIAN_POINT('',(7.5,8.7557481119548,2.33499999999999));
#391=CARTESIAN_POINT('Origin',(-29.8658692035346,0.,2.335));
#392=CARTESIAN_POINT('',(-15.875,0.,2.33499999999999));
#393=CARTESIAN_POINT('',(-7.49999999999993,13.9916269604361,2.33499999999999));
#394=CARTESIAN_POINT('Origin',(0.,0.,2.33499999999999));
#395=CARTESIAN_POINT('',(-19.05,0.,2.33499999999999));
#396=CARTESIAN_POINT('',(-29.8658692035346,0.,2.335));
#397=CARTESIAN_POINT('',(-7.49999999999993,17.5114962239096,2.33499999999999));
#398=CARTESIAN_POINT('Origin',(0.,0.,2.33499999999999));
#399=CARTESIAN_POINT('',(-7.49999999999993,6.99581348021803,2.33499999999999));
#400=CARTESIAN_POINT('Origin',(0.,0.,-4.44089209850063E-15));
#401=CARTESIAN_POINT('',(19.05,0.,-2.33500000000001));
#402=CARTESIAN_POINT('',(19.05,0.,152.4));
#403=CARTESIAN_POINT('',(15.875,0.,-2.33500000000001));
#404=CARTESIAN_POINT('',(29.8658692035346,0.,-2.33500000000001));
#405=CARTESIAN_POINT('',(15.875,0.,152.4));
#406=CARTESIAN_POINT('Origin',(29.8658692035346,0.,-2.33500000000001));
#407=CARTESIAN_POINT('',(7.5,17.5114962239096,-2.33500000000001));
#408=CARTESIAN_POINT('Origin',(0.,0.,-2.33500000000001));
#409=CARTESIAN_POINT('',(7.5,13.991626960436,-2.33500000000001));
#410=CARTESIAN_POINT('',(7.5,8.7557481119548,-2.33500000000001));
#411=CARTESIAN_POINT('Origin',(0.,0.,-2.33500000000001));
#412=CARTESIAN_POINT('Origin',(29.8658692035346,0.,-2.33500000000001));
#413=CARTESIAN_POINT('',(-7.49999999999993,13.9916269604361,-2.33500000000001));
#414=CARTESIAN_POINT('',(-15.875,0.,-2.33500000000001));
#415=CARTESIAN_POINT('Origin',(0.,0.,-2.33500000000001));
#416=CARTESIAN_POINT('',(-7.49999999999993,17.5114962239096,-2.33500000000001));
#417=CARTESIAN_POINT('',(-7.49999999999993,6.99581348021803,-2.33500000000001));
#418=CARTESIAN_POINT('',(-19.05,0.,-2.33500000000001));
#419=CARTESIAN_POINT('Origin',(0.,0.,-2.33500000000001));
#420=CARTESIAN_POINT('',(29.8658692035346,0.,-2.33500000000001));
#421=CARTESIAN_POINT('Origin',(0.,0.,-4.44089209850063E-15));
#422=CARTESIAN_POINT('',(-15.875,0.,152.4));
#423=CARTESIAN_POINT('',(-19.05,0.,152.4));
#424=CARTESIAN_POINT('Origin',(-7.49999999999993,13.9916269604361,152.4));
#425=CARTESIAN_POINT('',(-7.49999999999993,13.9916269604361,-152.4));
#426=CARTESIAN_POINT('',(-7.49999999999993,13.9916269604361,152.4));
#427=CARTESIAN_POINT('',(-7.49999999999993,17.5114962239096,-152.4));
#428=CARTESIAN_POINT('',(-7.49999999999993,6.99581348021803,-152.4));
#429=CARTESIAN_POINT('',(-7.49999999999993,17.5114962239096,152.4));
#430=CARTESIAN_POINT('Origin',(-7.49999999999993,13.9916269604361,152.4));
#431=CARTESIAN_POINT('',(-7.49999999999993,17.5114962239096,152.4));
#432=CARTESIAN_POINT('',(-7.49999999999993,17.5114962239096,152.4));
#433=CARTESIAN_POINT('',(-7.49999999999993,13.9916269604361,152.4));
#434=CARTESIAN_POINT('',(-7.49999999999993,6.99581348021803,152.4));
#435=CARTESIAN_POINT('',(-7.49999999999993,13.9916269604361,152.4));
#436=CARTESIAN_POINT('Origin',(0.,0.,152.4));
#437=CARTESIAN_POINT('',(7.5,17.5114962239096,-152.4));
#438=CARTESIAN_POINT('Origin',(0.,0.,-152.4));
#439=CARTESIAN_POINT('',(7.5,17.5114962239096,152.4));
#440=CARTESIAN_POINT('',(7.5,17.5114962239096,152.4));
#441=CARTESIAN_POINT('',(7.5,17.5114962239096,152.4));
#442=CARTESIAN_POINT('Origin',(0.,0.,152.4));
#443=CARTESIAN_POINT('Origin',(7.5,17.5114962239096,152.4));
#444=CARTESIAN_POINT('',(7.5,13.991626960436,-152.4));
#445=CARTESIAN_POINT('',(7.5,8.7557481119548,-152.4));
#446=CARTESIAN_POINT('',(7.5,13.991626960436,152.4));
#447=CARTESIAN_POINT('Origin',(7.5,17.5114962239096,152.4));
#448=CARTESIAN_POINT('',(7.5,13.991626960436,152.4));
#449=CARTESIAN_POINT('',(7.5,13.991626960436,152.4));
#450=CARTESIAN_POINT('',(7.5,8.7557481119548,152.4));
#451=CARTESIAN_POINT('Origin',(0.,0.,152.4));
#452=CARTESIAN_POINT('Origin',(0.,0.,152.4));
#453=CARTESIAN_POINT('Origin',(0.,0.,152.4));
#454=CARTESIAN_POINT('Origin',(0.,0.,-152.4));
#455=CARTESIAN_POINT('Origin',(0.,0.,-152.4));
#456=UNCERTAINTY_MEASURE_WITH_UNIT(LENGTH_MEASURE(0.01),#460,
'DISTANCE_ACCURACY_VALUE',
'Maximum model space distance between geometric entities at asserted c
onnectivities');
#457=UNCERTAINTY_MEASURE_WITH_UNIT(LENGTH_MEASURE(0.01),#460,
'DISTANCE_ACCURACY_VALUE',
'Maximum model space distance between geometric entities at asserted c
onnectivities');
#458=(
GEOMETRIC_REPRESENTATION_CONTEXT(3)
GLOBAL_UNCERTAINTY_ASSIGNED_CONTEXT((#456))
GLOBAL_UNIT_ASSIGNED_CONTEXT((#460,#462,#463))
REPRESENTATION_CONTEXT('','3D')
);
#459=(
GEOMETRIC_REPRESENTATION_CONTEXT(3)
GLOBAL_UNCERTAINTY_ASSIGNED_CONTEXT((#457))
GLOBAL_UNIT_ASSIGNED_CONTEXT((#460,#462,#463))
REPRESENTATION_CONTEXT('','3D')
);
#460=(
LENGTH_UNIT()
NAMED_UNIT(*)
SI_UNIT(.MILLI.,.METRE.)
);
#461=(
LENGTH_UNIT()
NAMED_UNIT(*)
SI_UNIT($,.METRE.)
);
#462=(
NAMED_UNIT(*)
PLANE_ANGLE_UNIT()
SI_UNIT($,.RADIAN.)
);
#463=(
NAMED_UNIT(*)
SI_UNIT($,.STERADIAN.)
SOLID_ANGLE_UNIT()
);
#464=SHAPE_DEFINITION_REPRESENTATION(#465,#466);
#465=PRODUCT_DEFINITION_SHAPE('',$,#468);
#466=SHAPE_REPRESENTATION('',(#276),#458);
#467=PRODUCT_DEFINITION_CONTEXT('part definition',#472,'design');
#468=PRODUCT_DEFINITION('8486K333_Clear Cast Acrylic Tube',
'8486K333_Clear Cast Acrylic Tube v6',#469,#467);
#469=PRODUCT_DEFINITION_FORMATION('',$,#474);
#470=PRODUCT_RELATED_PRODUCT_CATEGORY(
'8486K333_Clear Cast Acrylic Tube v6',
'8486K333_Clear Cast Acrylic Tube v6',(#474));
#471=APPLICATION_PROTOCOL_DEFINITION('international standard',
'automotive_design',2009,#472);
#472=APPLICATION_CONTEXT(
'Core Data for Automotive Mechanical Design Process');
#473=PRODUCT_CONTEXT('part definition',#472,'mechanical');
#474=PRODUCT('8486K333_Clear Cast Acrylic Tube',
'8486K333_Clear Cast Acrylic Tube v6','STEP AP203',(#473));
#475=PRESENTATION_STYLE_ASSIGNMENT((#476));
#476=SURFACE_STYLE_USAGE(.BOTH.,#477);
#477=SURFACE_SIDE_STYLE('',(#478));
#478=SURFACE_STYLE_FILL_AREA(#479);
#479=FILL_AREA_STYLE('Steel - Satin',(#480));
#480=FILL_AREA_STYLE_COLOUR('Steel - Satin',#481);
#481=COLOUR_RGB('Steel - Satin',0.627450980392157,0.627450980392157,0.627450980392157);
ENDSEC;
END-ISO-10303-21;
