ISO-10303-21;
HEADER;
/* Generated by software containing ST-Developer
 * from STEP Tools, Inc. (www.steptools.com) 
 */

FILE_DESCRIPTION(
/* description */ (''),
/* implementation_level */ '2;1');

FILE_NAME(
/* name */ 'holder-p2 v25.step',
/* time_stamp */ '2025-10-31T14:38:10-04:00',
/* author */ (''),
/* organization */ (''),
/* preprocessor_version */ 'ST-DEVELOPER v20.1',
/* originating_system */ 'Autodesk Translation Framework v14.17.0.0',
/* authorisation */ '');

FILE_SCHEMA (('AUTOMOTIVE_DESIGN { 1 0 10303 214 3 1 1 }'));
ENDSEC;

DATA;
#10=MECHANICAL_DESIGN_GEOMETRIC_PRESENTATION_REPRESENTATION('',(#25,#26),
#1602);
#11=ITEM_DEFINED_TRANSFORMATION($,$,#988,#1061);
#12=ITEM_DEFINED_TRANSFORMATION($,$,#1026,#1062);
#13=(
REPRESENTATION_RELATIONSHIP($,$,#1616,#1615)
REPRESENTATION_RELATIONSHIP_WITH_TRANSFORMATION(#11)
SHAPE_REPRESENTATION_RELATIONSHIP()
);
#14=(
REPRESENTATION_RELATIONSHIP($,$,#1617,#1615)
REPRESENTATION_RELATIONSHIP_WITH_TRANSFORMATION(#12)
SHAPE_REPRESENTATION_RELATIONSHIP()
);
#15=CONTEXT_DEPENDENT_SHAPE_REPRESENTATION(#13,#1613);
#16=CONTEXT_DEPENDENT_SHAPE_REPRESENTATION(#14,#1614);
#17=NEXT_ASSEMBLY_USAGE_OCCURRENCE('Component1:1','Component1:1',
'Component1:1',#1619,#1620,'Component1:1');
#18=NEXT_ASSEMBLY_USAGE_OCCURRENCE('Component2:1','Component2:1',
'Component2:1',#1619,#1621,'Component2:1');
#19=ELLIPSE('',#1032,0.804464338170839,0.800000000000001);
#20=ELLIPSE('',#1033,0.804464338170835,0.799999999999996);
#21=SHAPE_REPRESENTATION_RELATIONSHIP('SRR','None',#1616,#23);
#22=SHAPE_REPRESENTATION_RELATIONSHIP('SRR','None',#1617,#24);
#23=ADVANCED_BREP_SHAPE_REPRESENTATION('',(#27),#1600);
#24=ADVANCED_BREP_SHAPE_REPRESENTATION('',(#28),#1601);
#25=STYLED_ITEM('',(#1634),#27);
#26=STYLED_ITEM('',(#1634),#28);
#27=MANIFOLD_SOLID_BREP('Body1',#962);
#28=MANIFOLD_SOLID_BREP('Body1',#963);
#29=CYLINDRICAL_SURFACE('',#1000,2.25);
#30=CYLINDRICAL_SURFACE('',#1002,3.5508505670331);
#31=CYLINDRICAL_SURFACE('',#1006,2.25);
#32=CYLINDRICAL_SURFACE('',#1009,3.55085056703309);
#33=CYLINDRICAL_SURFACE('',#1036,0.800000000000001);
#34=CYLINDRICAL_SURFACE('',#1039,0.799999999999996);
#35=CYLINDRICAL_SURFACE('',#1042,2.25);
#36=CYLINDRICAL_SURFACE('',#1045,2.25);
#37=CYLINDRICAL_SURFACE('',#1052,2.25);
#38=CYLINDRICAL_SURFACE('',#1054,3.55085056703309);
#39=FACE_BOUND('',#120,.T.);
#40=FACE_BOUND('',#125,.T.);
#41=FACE_BOUND('',#130,.T.);
#42=FACE_BOUND('',#136,.T.);
#43=FACE_BOUND('',#141,.T.);
#44=FACE_BOUND('',#157,.T.);
#45=FACE_BOUND('',#158,.T.);
#46=FACE_BOUND('',#169,.T.);
#47=FACE_BOUND('',#173,.T.);
#48=FACE_BOUND('',#177,.T.);
#49=CIRCLE('',#991,3.55085056703309);
#50=CIRCLE('',#992,2.25);
#51=CIRCLE('',#997,3.55085056703309);
#52=CIRCLE('',#998,2.25);
#53=CIRCLE('',#1001,2.25);
#54=CIRCLE('',#1003,3.55085056703309);
#55=CIRCLE('',#1007,2.25);
#56=CIRCLE('',#1010,3.55085056703309);
#57=CIRCLE('',#1037,0.800000000000001);
#58=CIRCLE('',#1040,0.799999999999996);
#59=CIRCLE('',#1043,2.25);
#60=CIRCLE('',#1044,2.25);
#61=CIRCLE('',#1046,2.25);
#62=CIRCLE('',#1047,2.25);
#63=CIRCLE('',#1050,3.55085056703309);
#64=CIRCLE('',#1051,2.25);
#65=CIRCLE('',#1053,2.25);
#66=CIRCLE('',#1055,3.55085056703309);
#67=FACE_OUTER_BOUND('',#118,.T.);
#68=FACE_OUTER_BOUND('',#119,.T.);
#69=FACE_OUTER_BOUND('',#121,.T.);
#70=FACE_OUTER_BOUND('',#122,.T.);
#71=FACE_OUTER_BOUND('',#123,.T.);
#72=FACE_OUTER_BOUND('',#124,.T.);
#73=FACE_OUTER_BOUND('',#126,.T.);
#74=FACE_OUTER_BOUND('',#127,.T.);
#75=FACE_OUTER_BOUND('',#128,.T.);
#76=FACE_OUTER_BOUND('',#129,.T.);
#77=FACE_OUTER_BOUND('',#131,.T.);
#78=FACE_OUTER_BOUND('',#132,.T.);
#79=FACE_OUTER_BOUND('',#133,.T.);
#80=FACE_OUTER_BOUND('',#134,.T.);
#81=FACE_OUTER_BOUND('',#135,.T.);
#82=FACE_OUTER_BOUND('',#137,.T.);
#83=FACE_OUTER_BOUND('',#138,.T.);
#84=FACE_OUTER_BOUND('',#139,.T.);
#85=FACE_OUTER_BOUND('',#140,.T.);
#86=FACE_OUTER_BOUND('',#142,.T.);
#87=FACE_OUTER_BOUND('',#143,.T.);
#88=FACE_OUTER_BOUND('',#144,.T.);
#89=FACE_OUTER_BOUND('',#145,.T.);
#90=FACE_OUTER_BOUND('',#146,.T.);
#91=FACE_OUTER_BOUND('',#147,.T.);
#92=FACE_OUTER_BOUND('',#148,.T.);
#93=FACE_OUTER_BOUND('',#149,.T.);
#94=FACE_OUTER_BOUND('',#150,.T.);
#95=FACE_OUTER_BOUND('',#151,.T.);
#96=FACE_OUTER_BOUND('',#152,.T.);
#97=FACE_OUTER_BOUND('',#153,.T.);
#98=FACE_OUTER_BOUND('',#154,.T.);
#99=FACE_OUTER_BOUND('',#155,.T.);
#100=FACE_OUTER_BOUND('',#156,.T.);
#101=FACE_OUTER_BOUND('',#159,.T.);
#102=FACE_OUTER_BOUND('',#160,.T.);
#103=FACE_OUTER_BOUND('',#161,.T.);
#104=FACE_OUTER_BOUND('',#162,.T.);
#105=FACE_OUTER_BOUND('',#163,.T.);
#106=FACE_OUTER_BOUND('',#164,.T.);
#107=FACE_OUTER_BOUND('',#165,.T.);
#108=FACE_OUTER_BOUND('',#166,.T.);
#109=FACE_OUTER_BOUND('',#167,.T.);
#110=FACE_OUTER_BOUND('',#168,.T.);
#111=FACE_OUTER_BOUND('',#170,.T.);
#112=FACE_OUTER_BOUND('',#171,.T.);
#113=FACE_OUTER_BOUND('',#172,.T.);
#114=FACE_OUTER_BOUND('',#174,.T.);
#115=FACE_OUTER_BOUND('',#175,.T.);
#116=FACE_OUTER_BOUND('',#176,.T.);
#117=FACE_OUTER_BOUND('',#178,.T.);
#118=EDGE_LOOP('',(#612,#613,#614,#615));
#119=EDGE_LOOP('',(#616,#617,#618,#619,#620,#621,#622,#623,#624,#625,#626,
#627,#628,#629));
#120=EDGE_LOOP('',(#630));
#121=EDGE_LOOP('',(#631,#632,#633,#634));
#122=EDGE_LOOP('',(#635,#636,#637,#638));
#123=EDGE_LOOP('',(#639,#640,#641,#642));
#124=EDGE_LOOP('',(#643,#644,#645,#646));
#125=EDGE_LOOP('',(#647));
#126=EDGE_LOOP('',(#648,#649,#650,#651));
#127=EDGE_LOOP('',(#652,#653,#654,#655));
#128=EDGE_LOOP('',(#656,#657,#658,#659));
#129=EDGE_LOOP('',(#660,#661,#662,#663,#664,#665,#666,#667,#668,#669,#670,
#671,#672,#673));
#130=EDGE_LOOP('',(#674));
#131=EDGE_LOOP('',(#675,#676,#677,#678));
#132=EDGE_LOOP('',(#679,#680,#681,#682));
#133=EDGE_LOOP('',(#683,#684,#685,#686));
#134=EDGE_LOOP('',(#687,#688,#689,#690));
#135=EDGE_LOOP('',(#691,#692,#693,#694));
#136=EDGE_LOOP('',(#695));
#137=EDGE_LOOP('',(#696,#697,#698,#699,#700,#701,#702,#703,#704,#705,#706,
#707));
#138=EDGE_LOOP('',(#708,#709,#710,#711));
#139=EDGE_LOOP('',(#712,#713,#714,#715));
#140=EDGE_LOOP('',(#716,#717,#718,#719));
#141=EDGE_LOOP('',(#720,#721,#722,#723));
#142=EDGE_LOOP('',(#724,#725,#726,#727));
#143=EDGE_LOOP('',(#728,#729,#730,#731));
#144=EDGE_LOOP('',(#732,#733,#734,#735));
#145=EDGE_LOOP('',(#736,#737,#738,#739));
#146=EDGE_LOOP('',(#740,#741,#742,#743));
#147=EDGE_LOOP('',(#744,#745,#746,#747));
#148=EDGE_LOOP('',(#748,#749,#750,#751));
#149=EDGE_LOOP('',(#752,#753,#754,#755));
#150=EDGE_LOOP('',(#756,#757,#758,#759,#760,#761));
#151=EDGE_LOOP('',(#762,#763,#764,#765,#766,#767));
#152=EDGE_LOOP('',(#768,#769,#770,#771,#772,#773));
#153=EDGE_LOOP('',(#774,#775,#776,#777,#778));
#154=EDGE_LOOP('',(#779,#780,#781,#782));
#155=EDGE_LOOP('',(#783,#784,#785,#786,#787));
#156=EDGE_LOOP('',(#788,#789,#790,#791));
#157=EDGE_LOOP('',(#792));
#158=EDGE_LOOP('',(#793));
#159=EDGE_LOOP('',(#794,#795,#796,#797,#798,#799));
#160=EDGE_LOOP('',(#800,#801,#802,#803,#804,#805));
#161=EDGE_LOOP('',(#806,#807,#808,#809));
#162=EDGE_LOOP('',(#810));
#163=EDGE_LOOP('',(#811,#812,#813,#814));
#164=EDGE_LOOP('',(#815));
#165=EDGE_LOOP('',(#816,#817,#818,#819));
#166=EDGE_LOOP('',(#820,#821,#822,#823));
#167=EDGE_LOOP('',(#824,#825,#826,#827));
#168=EDGE_LOOP('',(#828,#829,#830,#831,#832));
#169=EDGE_LOOP('',(#833));
#170=EDGE_LOOP('',(#834,#835,#836,#837));
#171=EDGE_LOOP('',(#838,#839,#840,#841));
#172=EDGE_LOOP('',(#842,#843,#844,#845,#846));
#173=EDGE_LOOP('',(#847));
#174=EDGE_LOOP('',(#848,#849,#850,#851));
#175=EDGE_LOOP('',(#852,#853,#854,#855));
#176=EDGE_LOOP('',(#856,#857,#858,#859,#860,#861));
#177=EDGE_LOOP('',(#862,#863,#864,#865));
#178=EDGE_LOOP('',(#866,#867,#868,#869));
#179=LINE('',#1329,#288);
#180=LINE('',#1331,#289);
#181=LINE('',#1333,#290);
#182=LINE('',#1334,#291);
#183=LINE('',#1337,#292);
#184=LINE('',#1339,#293);
#185=LINE('',#1341,#294);
#186=LINE('',#1343,#295);
#187=LINE('',#1345,#296);
#188=LINE('',#1347,#297);
#189=LINE('',#1351,#298);
#190=LINE('',#1353,#299);
#191=LINE('',#1355,#300);
#192=LINE('',#1357,#301);
#193=LINE('',#1359,#302);
#194=LINE('',#1360,#303);
#195=LINE('',#1365,#304);
#196=LINE('',#1366,#305);
#197=LINE('',#1369,#306);
#198=LINE('',#1370,#307);
#199=LINE('',#1374,#308);
#200=LINE('',#1376,#309);
#201=LINE('',#1378,#310);
#202=LINE('',#1379,#311);
#203=LINE('',#1382,#312);
#204=LINE('',#1384,#313);
#205=LINE('',#1390,#314);
#206=LINE('',#1392,#315);
#207=LINE('',#1393,#316);
#208=LINE('',#1397,#317);
#209=LINE('',#1402,#318);
#210=LINE('',#1404,#319);
#211=LINE('',#1406,#320);
#212=LINE('',#1408,#321);
#213=LINE('',#1410,#322);
#214=LINE('',#1411,#323);
#215=LINE('',#1413,#324);
#216=LINE('',#1414,#325);
#217=LINE('',#1417,#326);
#218=LINE('',#1419,#327);
#219=LINE('',#1420,#328);
#220=LINE('',#1423,#329);
#221=LINE('',#1427,#330);
#222=LINE('',#1429,#331);
#223=LINE('',#1430,#332);
#224=LINE('',#1434,#333);
#225=LINE('',#1436,#334);
#226=LINE('',#1437,#335);
#227=LINE('',#1439,#336);
#228=LINE('',#1441,#337);
#229=LINE('',#1443,#338);
#230=LINE('',#1446,#339);
#231=LINE('',#1448,#340);
#232=LINE('',#1450,#341);
#233=LINE('',#1451,#342);
#234=LINE('',#1454,#343);
#235=LINE('',#1459,#344);
#236=LINE('',#1461,#345);
#237=LINE('',#1463,#346);
#238=LINE('',#1464,#347);
#239=LINE('',#1467,#348);
#240=LINE('',#1469,#349);
#241=LINE('',#1470,#350);
#242=LINE('',#1472,#351);
#243=LINE('',#1473,#352);
#244=LINE('',#1476,#353);
#245=LINE('',#1478,#354);
#246=LINE('',#1479,#355);
#247=LINE('',#1481,#356);
#248=LINE('',#1482,#357);
#249=LINE('',#1489,#358);
#250=LINE('',#1491,#359);
#251=LINE('',#1493,#360);
#252=LINE('',#1495,#361);
#253=LINE('',#1497,#362);
#254=LINE('',#1498,#363);
#255=LINE('',#1501,#364);
#256=LINE('',#1503,#365);
#257=LINE('',#1505,#366);
#258=LINE('',#1506,#367);
#259=LINE('',#1509,#368);
#260=LINE('',#1510,#369);
#261=LINE('',#1513,#370);
#262=LINE('',#1515,#371);
#263=LINE('',#1516,#372);
#264=LINE('',#1519,#373);
#265=LINE('',#1521,#374);
#266=LINE('',#1522,#375);
#267=LINE('',#1529,#376);
#268=LINE('',#1531,#377);
#269=LINE('',#1532,#378);
#270=LINE('',#1535,#379);
#271=LINE('',#1537,#380);
#272=LINE('',#1538,#381);
#273=LINE('',#1541,#382);
#274=LINE('',#1546,#383);
#275=LINE('',#1554,#384);
#276=LINE('',#1557,#385);
#277=LINE('',#1563,#386);
#278=LINE('',#1566,#387);
#279=LINE('',#1569,#388);
#280=LINE('',#1571,#389);
#281=LINE('',#1572,#390);
#282=LINE('',#1574,#391);
#283=LINE('',#1581,#392);
#284=LINE('',#1585,#393);
#285=LINE('',#1587,#394);
#286=LINE('',#1589,#395);
#287=LINE('',#1591,#396);
#288=VECTOR('',#1069,10.);
#289=VECTOR('',#1070,10.);
#290=VECTOR('',#1071,10.);
#291=VECTOR('',#1072,10.);
#292=VECTOR('',#1075,10.);
#293=VECTOR('',#1076,10.);
#294=VECTOR('',#1077,10.);
#295=VECTOR('',#1078,10.);
#296=VECTOR('',#1079,10.);
#297=VECTOR('',#1080,10.);
#298=VECTOR('',#1083,10.);
#299=VECTOR('',#1084,10.);
#300=VECTOR('',#1085,10.);
#301=VECTOR('',#1086,10.);
#302=VECTOR('',#1087,10.);
#303=VECTOR('',#1088,10.);
#304=VECTOR('',#1093,10.);
#305=VECTOR('',#1094,10.);
#306=VECTOR('',#1097,10.);
#307=VECTOR('',#1098,10.);
#308=VECTOR('',#1101,10.);
#309=VECTOR('',#1102,10.);
#310=VECTOR('',#1103,10.);
#311=VECTOR('',#1104,10.);
#312=VECTOR('',#1107,10.);
#313=VECTOR('',#1108,10.);
#314=VECTOR('',#1115,10.);
#315=VECTOR('',#1116,10.);
#316=VECTOR('',#1117,10.);
#317=VECTOR('',#1122,2.25);
#318=VECTOR('',#1129,10.);
#319=VECTOR('',#1130,10.);
#320=VECTOR('',#1131,10.);
#321=VECTOR('',#1132,10.);
#322=VECTOR('',#1133,10.);
#323=VECTOR('',#1134,10.);
#324=VECTOR('',#1135,10.);
#325=VECTOR('',#1136,10.);
#326=VECTOR('',#1139,10.);
#327=VECTOR('',#1140,10.);
#328=VECTOR('',#1141,10.);
#329=VECTOR('',#1144,2.25);
#330=VECTOR('',#1149,10.);
#331=VECTOR('',#1150,10.);
#332=VECTOR('',#1151,10.);
#333=VECTOR('',#1158,10.);
#334=VECTOR('',#1161,10.);
#335=VECTOR('',#1162,10.);
#336=VECTOR('',#1165,10.);
#337=VECTOR('',#1168,10.);
#338=VECTOR('',#1171,10.);
#339=VECTOR('',#1172,10.);
#340=VECTOR('',#1173,10.);
#341=VECTOR('',#1174,10.);
#342=VECTOR('',#1175,10.);
#343=VECTOR('',#1180,10.);
#344=VECTOR('',#1185,10.);
#345=VECTOR('',#1186,10.);
#346=VECTOR('',#1187,10.);
#347=VECTOR('',#1188,10.);
#348=VECTOR('',#1191,10.);
#349=VECTOR('',#1192,10.);
#350=VECTOR('',#1193,10.);
#351=VECTOR('',#1196,10.);
#352=VECTOR('',#1197,10.);
#353=VECTOR('',#1200,10.);
#354=VECTOR('',#1201,10.);
#355=VECTOR('',#1202,10.);
#356=VECTOR('',#1205,10.);
#357=VECTOR('',#1206,10.);
#358=VECTOR('',#1215,10.);
#359=VECTOR('',#1216,10.);
#360=VECTOR('',#1217,10.);
#361=VECTOR('',#1218,10.);
#362=VECTOR('',#1219,10.);
#363=VECTOR('',#1220,10.);
#364=VECTOR('',#1223,10.);
#365=VECTOR('',#1224,10.);
#366=VECTOR('',#1225,10.);
#367=VECTOR('',#1226,10.);
#368=VECTOR('',#1229,10.);
#369=VECTOR('',#1230,10.);
#370=VECTOR('',#1233,10.);
#371=VECTOR('',#1234,10.);
#372=VECTOR('',#1235,10.);
#373=VECTOR('',#1238,10.);
#374=VECTOR('',#1239,10.);
#375=VECTOR('',#1240,10.);
#376=VECTOR('',#1247,10.);
#377=VECTOR('',#1248,10.);
#378=VECTOR('',#1249,10.);
#379=VECTOR('',#1252,10.);
#380=VECTOR('',#1253,10.);
#381=VECTOR('',#1254,10.);
#382=VECTOR('',#1257,0.600000000000001);
#383=VECTOR('',#1264,0.599999999999996);
#384=VECTOR('',#1273,2.25);
#385=VECTOR('',#1276,10.);
#386=VECTOR('',#1281,10.);
#387=VECTOR('',#1284,10.);
#388=VECTOR('',#1287,10.);
#389=VECTOR('',#1288,10.);
#390=VECTOR('',#1289,10.);
#391=VECTOR('',#1292,10.);
#392=VECTOR('',#1301,2.25);
#393=VECTOR('',#1308,10.);
#394=VECTOR('',#1311,10.);
#395=VECTOR('',#1314,10.);
#396=VECTOR('',#1317,10.);
#397=VERTEX_POINT('',#1327);
#398=VERTEX_POINT('',#1328);
#399=VERTEX_POINT('',#1330);
#400=VERTEX_POINT('',#1332);
#401=VERTEX_POINT('',#1336);
#402=VERTEX_POINT('',#1338);
#403=VERTEX_POINT('',#1340);
#404=VERTEX_POINT('',#1342);
#405=VERTEX_POINT('',#1344);
#406=VERTEX_POINT('',#1346);
#407=VERTEX_POINT('',#1348);
#408=VERTEX_POINT('',#1350);
#409=VERTEX_POINT('',#1352);
#410=VERTEX_POINT('',#1354);
#411=VERTEX_POINT('',#1356);
#412=VERTEX_POINT('',#1358);
#413=VERTEX_POINT('',#1361);
#414=VERTEX_POINT('',#1364);
#415=VERTEX_POINT('',#1368);
#416=VERTEX_POINT('',#1372);
#417=VERTEX_POINT('',#1373);
#418=VERTEX_POINT('',#1375);
#419=VERTEX_POINT('',#1377);
#420=VERTEX_POINT('',#1381);
#421=VERTEX_POINT('',#1383);
#422=VERTEX_POINT('',#1386);
#423=VERTEX_POINT('',#1389);
#424=VERTEX_POINT('',#1391);
#425=VERTEX_POINT('',#1395);
#426=VERTEX_POINT('',#1401);
#427=VERTEX_POINT('',#1403);
#428=VERTEX_POINT('',#1405);
#429=VERTEX_POINT('',#1407);
#430=VERTEX_POINT('',#1409);
#431=VERTEX_POINT('',#1412);
#432=VERTEX_POINT('',#1416);
#433=VERTEX_POINT('',#1418);
#434=VERTEX_POINT('',#1422);
#435=VERTEX_POINT('',#1426);
#436=VERTEX_POINT('',#1428);
#437=VERTEX_POINT('',#1444);
#438=VERTEX_POINT('',#1445);
#439=VERTEX_POINT('',#1447);
#440=VERTEX_POINT('',#1449);
#441=VERTEX_POINT('',#1457);
#442=VERTEX_POINT('',#1458);
#443=VERTEX_POINT('',#1460);
#444=VERTEX_POINT('',#1462);
#445=VERTEX_POINT('',#1466);
#446=VERTEX_POINT('',#1468);
#447=VERTEX_POINT('',#1475);
#448=VERTEX_POINT('',#1477);
#449=VERTEX_POINT('',#1487);
#450=VERTEX_POINT('',#1488);
#451=VERTEX_POINT('',#1490);
#452=VERTEX_POINT('',#1492);
#453=VERTEX_POINT('',#1494);
#454=VERTEX_POINT('',#1496);
#455=VERTEX_POINT('',#1500);
#456=VERTEX_POINT('',#1502);
#457=VERTEX_POINT('',#1504);
#458=VERTEX_POINT('',#1508);
#459=VERTEX_POINT('',#1512);
#460=VERTEX_POINT('',#1514);
#461=VERTEX_POINT('',#1518);
#462=VERTEX_POINT('',#1520);
#463=VERTEX_POINT('',#1523);
#464=VERTEX_POINT('',#1525);
#465=VERTEX_POINT('',#1528);
#466=VERTEX_POINT('',#1530);
#467=VERTEX_POINT('',#1534);
#468=VERTEX_POINT('',#1536);
#469=VERTEX_POINT('',#1540);
#470=VERTEX_POINT('',#1545);
#471=VERTEX_POINT('',#1550);
#472=VERTEX_POINT('',#1551);
#473=VERTEX_POINT('',#1553);
#474=VERTEX_POINT('',#1555);
#475=VERTEX_POINT('',#1559);
#476=VERTEX_POINT('',#1560);
#477=VERTEX_POINT('',#1562);
#478=VERTEX_POINT('',#1564);
#479=VERTEX_POINT('',#1568);
#480=VERTEX_POINT('',#1570);
#481=VERTEX_POINT('',#1576);
#482=VERTEX_POINT('',#1579);
#483=EDGE_CURVE('',#397,#398,#179,.T.);
#484=EDGE_CURVE('',#399,#397,#180,.T.);
#485=EDGE_CURVE('',#400,#399,#181,.T.);
#486=EDGE_CURVE('',#398,#400,#182,.T.);
#487=EDGE_CURVE('',#401,#398,#183,.T.);
#488=EDGE_CURVE('',#400,#402,#184,.T.);
#489=EDGE_CURVE('',#403,#402,#185,.T.);
#490=EDGE_CURVE('',#404,#403,#186,.T.);
#491=EDGE_CURVE('',#405,#404,#187,.T.);
#492=EDGE_CURVE('',#405,#406,#188,.T.);
#493=EDGE_CURVE('',#406,#407,#49,.T.);
#494=EDGE_CURVE('',#407,#408,#189,.T.);
#495=EDGE_CURVE('',#409,#408,#190,.T.);
#496=EDGE_CURVE('',#410,#409,#191,.T.);
#497=EDGE_CURVE('',#411,#410,#192,.T.);
#498=EDGE_CURVE('',#412,#411,#193,.T.);
#499=EDGE_CURVE('',#412,#401,#194,.T.);
#500=EDGE_CURVE('',#413,#413,#50,.T.);
#501=EDGE_CURVE('',#399,#414,#195,.T.);
#502=EDGE_CURVE('',#402,#414,#196,.T.);
#503=EDGE_CURVE('',#414,#415,#197,.T.);
#504=EDGE_CURVE('',#415,#403,#198,.T.);
#505=EDGE_CURVE('',#416,#417,#199,.T.);
#506=EDGE_CURVE('',#418,#416,#200,.F.);
#507=EDGE_CURVE('',#418,#419,#201,.T.);
#508=EDGE_CURVE('',#417,#419,#202,.T.);
#509=EDGE_CURVE('',#420,#416,#203,.F.);
#510=EDGE_CURVE('',#420,#421,#204,.F.);
#511=EDGE_CURVE('',#418,#421,#51,.T.);
#512=EDGE_CURVE('',#422,#422,#52,.T.);
#513=EDGE_CURVE('',#423,#420,#205,.T.);
#514=EDGE_CURVE('',#424,#423,#206,.T.);
#515=EDGE_CURVE('',#421,#424,#207,.T.);
#516=EDGE_CURVE('',#425,#425,#53,.T.);
#517=EDGE_CURVE('',#425,#422,#208,.T.);
#518=EDGE_CURVE('',#419,#424,#54,.T.);
#519=EDGE_CURVE('',#397,#426,#209,.T.);
#520=EDGE_CURVE('',#426,#427,#210,.T.);
#521=EDGE_CURVE('',#427,#428,#211,.T.);
#522=EDGE_CURVE('',#428,#429,#212,.T.);
#523=EDGE_CURVE('',#429,#430,#213,.T.);
#524=EDGE_CURVE('',#430,#417,#214,.T.);
#525=EDGE_CURVE('',#423,#431,#215,.T.);
#526=EDGE_CURVE('',#431,#415,#216,.T.);
#527=EDGE_CURVE('',#432,#405,#217,.T.);
#528=EDGE_CURVE('',#432,#433,#218,.T.);
#529=EDGE_CURVE('',#433,#406,#219,.T.);
#530=EDGE_CURVE('',#413,#434,#220,.T.);
#531=EDGE_CURVE('',#434,#434,#55,.T.);
#532=EDGE_CURVE('',#408,#435,#221,.T.);
#533=EDGE_CURVE('',#436,#407,#222,.T.);
#534=EDGE_CURVE('',#436,#435,#223,.T.);
#535=EDGE_CURVE('',#433,#436,#56,.T.);
#536=EDGE_CURVE('',#435,#432,#224,.F.);
#537=EDGE_CURVE('',#409,#430,#225,.T.);
#538=EDGE_CURVE('',#431,#404,#226,.T.);
#539=EDGE_CURVE('',#401,#426,#227,.F.);
#540=EDGE_CURVE('',#427,#412,#228,.T.);
#541=EDGE_CURVE('',#411,#428,#229,.T.);
#542=EDGE_CURVE('',#437,#438,#230,.T.);
#543=EDGE_CURVE('',#438,#439,#231,.F.);
#544=EDGE_CURVE('',#439,#440,#232,.T.);
#545=EDGE_CURVE('',#440,#437,#233,.T.);
#546=EDGE_CURVE('',#410,#429,#234,.T.);
#547=EDGE_CURVE('',#441,#442,#235,.F.);
#548=EDGE_CURVE('',#442,#443,#236,.T.);
#549=EDGE_CURVE('',#444,#443,#237,.F.);
#550=EDGE_CURVE('',#441,#444,#238,.T.);
#551=EDGE_CURVE('',#445,#441,#239,.F.);
#552=EDGE_CURVE('',#446,#444,#240,.F.);
#553=EDGE_CURVE('',#445,#446,#241,.T.);
#554=EDGE_CURVE('',#445,#439,#242,.T.);
#555=EDGE_CURVE('',#446,#440,#243,.T.);
#556=EDGE_CURVE('',#447,#438,#244,.F.);
#557=EDGE_CURVE('',#448,#437,#245,.T.);
#558=EDGE_CURVE('',#447,#448,#246,.T.);
#559=EDGE_CURVE('',#442,#447,#247,.F.);
#560=EDGE_CURVE('',#443,#448,#248,.F.);
#561=EDGE_CURVE('',#449,#450,#249,.T.);
#562=EDGE_CURVE('',#451,#449,#250,.T.);
#563=EDGE_CURVE('',#452,#451,#251,.T.);
#564=EDGE_CURVE('',#453,#452,#252,.T.);
#565=EDGE_CURVE('',#454,#453,#253,.T.);
#566=EDGE_CURVE('',#450,#454,#254,.T.);
#567=EDGE_CURVE('',#455,#454,#255,.T.);
#568=EDGE_CURVE('',#455,#456,#256,.T.);
#569=EDGE_CURVE('',#456,#457,#257,.T.);
#570=EDGE_CURVE('',#457,#450,#258,.T.);
#571=EDGE_CURVE('',#453,#458,#259,.T.);
#572=EDGE_CURVE('',#458,#455,#260,.T.);
#573=EDGE_CURVE('',#452,#459,#261,.T.);
#574=EDGE_CURVE('',#459,#460,#262,.T.);
#575=EDGE_CURVE('',#460,#458,#263,.T.);
#576=EDGE_CURVE('',#461,#449,#264,.T.);
#577=EDGE_CURVE('',#462,#461,#265,.T.);
#578=EDGE_CURVE('',#451,#462,#266,.T.);
#579=EDGE_CURVE('',#463,#463,#19,.T.);
#580=EDGE_CURVE('',#464,#464,#20,.T.);
#581=EDGE_CURVE('',#457,#465,#267,.T.);
#582=EDGE_CURVE('',#465,#466,#268,.T.);
#583=EDGE_CURVE('',#466,#461,#269,.T.);
#584=EDGE_CURVE('',#467,#462,#270,.T.);
#585=EDGE_CURVE('',#468,#467,#271,.T.);
#586=EDGE_CURVE('',#459,#468,#272,.T.);
#587=EDGE_CURVE('',#463,#469,#273,.T.);
#588=EDGE_CURVE('',#469,#469,#57,.F.);
#589=EDGE_CURVE('',#464,#470,#274,.T.);
#590=EDGE_CURVE('',#470,#470,#58,.F.);
#591=EDGE_CURVE('',#471,#472,#59,.T.);
#592=EDGE_CURVE('',#472,#473,#275,.T.);
#593=EDGE_CURVE('',#474,#473,#60,.F.);
#594=EDGE_CURVE('',#471,#474,#276,.T.);
#595=EDGE_CURVE('',#475,#476,#61,.T.);
#596=EDGE_CURVE('',#476,#477,#277,.T.);
#597=EDGE_CURVE('',#477,#478,#62,.T.);
#598=EDGE_CURVE('',#478,#475,#278,.T.);
#599=EDGE_CURVE('',#479,#476,#279,.T.);
#600=EDGE_CURVE('',#480,#479,#280,.T.);
#601=EDGE_CURVE('',#477,#480,#281,.T.);
#602=EDGE_CURVE('',#478,#471,#282,.T.);
#603=EDGE_CURVE('',#480,#472,#63,.T.);
#604=EDGE_CURVE('',#481,#481,#64,.T.);
#605=EDGE_CURVE('',#482,#482,#65,.T.);
#606=EDGE_CURVE('',#482,#481,#283,.T.);
#607=EDGE_CURVE('',#473,#479,#66,.T.);
#608=EDGE_CURVE('',#474,#475,#284,.T.);
#609=EDGE_CURVE('',#467,#466,#285,.T.);
#610=EDGE_CURVE('',#468,#465,#286,.T.);
#611=EDGE_CURVE('',#460,#456,#287,.T.);
#612=ORIENTED_EDGE('',*,*,#483,.F.);
#613=ORIENTED_EDGE('',*,*,#484,.F.);
#614=ORIENTED_EDGE('',*,*,#485,.F.);
#615=ORIENTED_EDGE('',*,*,#486,.F.);
#616=ORIENTED_EDGE('',*,*,#487,.T.);
#617=ORIENTED_EDGE('',*,*,#486,.T.);
#618=ORIENTED_EDGE('',*,*,#488,.T.);
#619=ORIENTED_EDGE('',*,*,#489,.F.);
#620=ORIENTED_EDGE('',*,*,#490,.F.);
#621=ORIENTED_EDGE('',*,*,#491,.F.);
#622=ORIENTED_EDGE('',*,*,#492,.T.);
#623=ORIENTED_EDGE('',*,*,#493,.T.);
#624=ORIENTED_EDGE('',*,*,#494,.T.);
#625=ORIENTED_EDGE('',*,*,#495,.F.);
#626=ORIENTED_EDGE('',*,*,#496,.F.);
#627=ORIENTED_EDGE('',*,*,#497,.F.);
#628=ORIENTED_EDGE('',*,*,#498,.F.);
#629=ORIENTED_EDGE('',*,*,#499,.T.);
#630=ORIENTED_EDGE('',*,*,#500,.T.);
#631=ORIENTED_EDGE('',*,*,#485,.T.);
#632=ORIENTED_EDGE('',*,*,#501,.T.);
#633=ORIENTED_EDGE('',*,*,#502,.F.);
#634=ORIENTED_EDGE('',*,*,#488,.F.);
#635=ORIENTED_EDGE('',*,*,#503,.T.);
#636=ORIENTED_EDGE('',*,*,#504,.T.);
#637=ORIENTED_EDGE('',*,*,#489,.T.);
#638=ORIENTED_EDGE('',*,*,#502,.T.);
#639=ORIENTED_EDGE('',*,*,#505,.F.);
#640=ORIENTED_EDGE('',*,*,#506,.F.);
#641=ORIENTED_EDGE('',*,*,#507,.T.);
#642=ORIENTED_EDGE('',*,*,#508,.F.);
#643=ORIENTED_EDGE('',*,*,#509,.F.);
#644=ORIENTED_EDGE('',*,*,#510,.T.);
#645=ORIENTED_EDGE('',*,*,#511,.F.);
#646=ORIENTED_EDGE('',*,*,#506,.T.);
#647=ORIENTED_EDGE('',*,*,#512,.F.);
#648=ORIENTED_EDGE('',*,*,#513,.F.);
#649=ORIENTED_EDGE('',*,*,#514,.F.);
#650=ORIENTED_EDGE('',*,*,#515,.F.);
#651=ORIENTED_EDGE('',*,*,#510,.F.);
#652=ORIENTED_EDGE('',*,*,#516,.F.);
#653=ORIENTED_EDGE('',*,*,#517,.T.);
#654=ORIENTED_EDGE('',*,*,#512,.T.);
#655=ORIENTED_EDGE('',*,*,#517,.F.);
#656=ORIENTED_EDGE('',*,*,#511,.T.);
#657=ORIENTED_EDGE('',*,*,#515,.T.);
#658=ORIENTED_EDGE('',*,*,#518,.F.);
#659=ORIENTED_EDGE('',*,*,#507,.F.);
#660=ORIENTED_EDGE('',*,*,#519,.T.);
#661=ORIENTED_EDGE('',*,*,#520,.T.);
#662=ORIENTED_EDGE('',*,*,#521,.T.);
#663=ORIENTED_EDGE('',*,*,#522,.T.);
#664=ORIENTED_EDGE('',*,*,#523,.T.);
#665=ORIENTED_EDGE('',*,*,#524,.T.);
#666=ORIENTED_EDGE('',*,*,#508,.T.);
#667=ORIENTED_EDGE('',*,*,#518,.T.);
#668=ORIENTED_EDGE('',*,*,#514,.T.);
#669=ORIENTED_EDGE('',*,*,#525,.T.);
#670=ORIENTED_EDGE('',*,*,#526,.T.);
#671=ORIENTED_EDGE('',*,*,#503,.F.);
#672=ORIENTED_EDGE('',*,*,#501,.F.);
#673=ORIENTED_EDGE('',*,*,#484,.T.);
#674=ORIENTED_EDGE('',*,*,#516,.T.);
#675=ORIENTED_EDGE('',*,*,#527,.F.);
#676=ORIENTED_EDGE('',*,*,#528,.T.);
#677=ORIENTED_EDGE('',*,*,#529,.T.);
#678=ORIENTED_EDGE('',*,*,#492,.F.);
#679=ORIENTED_EDGE('',*,*,#500,.F.);
#680=ORIENTED_EDGE('',*,*,#530,.T.);
#681=ORIENTED_EDGE('',*,*,#531,.T.);
#682=ORIENTED_EDGE('',*,*,#530,.F.);
#683=ORIENTED_EDGE('',*,*,#532,.F.);
#684=ORIENTED_EDGE('',*,*,#494,.F.);
#685=ORIENTED_EDGE('',*,*,#533,.F.);
#686=ORIENTED_EDGE('',*,*,#534,.T.);
#687=ORIENTED_EDGE('',*,*,#535,.T.);
#688=ORIENTED_EDGE('',*,*,#533,.T.);
#689=ORIENTED_EDGE('',*,*,#493,.F.);
#690=ORIENTED_EDGE('',*,*,#529,.F.);
#691=ORIENTED_EDGE('',*,*,#536,.F.);
#692=ORIENTED_EDGE('',*,*,#534,.F.);
#693=ORIENTED_EDGE('',*,*,#535,.F.);
#694=ORIENTED_EDGE('',*,*,#528,.F.);
#695=ORIENTED_EDGE('',*,*,#531,.F.);
#696=ORIENTED_EDGE('',*,*,#505,.T.);
#697=ORIENTED_EDGE('',*,*,#524,.F.);
#698=ORIENTED_EDGE('',*,*,#537,.F.);
#699=ORIENTED_EDGE('',*,*,#495,.T.);
#700=ORIENTED_EDGE('',*,*,#532,.T.);
#701=ORIENTED_EDGE('',*,*,#536,.T.);
#702=ORIENTED_EDGE('',*,*,#527,.T.);
#703=ORIENTED_EDGE('',*,*,#491,.T.);
#704=ORIENTED_EDGE('',*,*,#538,.F.);
#705=ORIENTED_EDGE('',*,*,#525,.F.);
#706=ORIENTED_EDGE('',*,*,#513,.T.);
#707=ORIENTED_EDGE('',*,*,#509,.T.);
#708=ORIENTED_EDGE('',*,*,#487,.F.);
#709=ORIENTED_EDGE('',*,*,#539,.T.);
#710=ORIENTED_EDGE('',*,*,#519,.F.);
#711=ORIENTED_EDGE('',*,*,#483,.T.);
#712=ORIENTED_EDGE('',*,*,#499,.F.);
#713=ORIENTED_EDGE('',*,*,#540,.F.);
#714=ORIENTED_EDGE('',*,*,#520,.F.);
#715=ORIENTED_EDGE('',*,*,#539,.F.);
#716=ORIENTED_EDGE('',*,*,#540,.T.);
#717=ORIENTED_EDGE('',*,*,#498,.T.);
#718=ORIENTED_EDGE('',*,*,#541,.T.);
#719=ORIENTED_EDGE('',*,*,#521,.F.);
#720=ORIENTED_EDGE('',*,*,#542,.T.);
#721=ORIENTED_EDGE('',*,*,#543,.T.);
#722=ORIENTED_EDGE('',*,*,#544,.T.);
#723=ORIENTED_EDGE('',*,*,#545,.T.);
#724=ORIENTED_EDGE('',*,*,#490,.T.);
#725=ORIENTED_EDGE('',*,*,#504,.F.);
#726=ORIENTED_EDGE('',*,*,#526,.F.);
#727=ORIENTED_EDGE('',*,*,#538,.T.);
#728=ORIENTED_EDGE('',*,*,#496,.T.);
#729=ORIENTED_EDGE('',*,*,#537,.T.);
#730=ORIENTED_EDGE('',*,*,#523,.F.);
#731=ORIENTED_EDGE('',*,*,#546,.F.);
#732=ORIENTED_EDGE('',*,*,#497,.T.);
#733=ORIENTED_EDGE('',*,*,#546,.T.);
#734=ORIENTED_EDGE('',*,*,#522,.F.);
#735=ORIENTED_EDGE('',*,*,#541,.F.);
#736=ORIENTED_EDGE('',*,*,#547,.T.);
#737=ORIENTED_EDGE('',*,*,#548,.T.);
#738=ORIENTED_EDGE('',*,*,#549,.F.);
#739=ORIENTED_EDGE('',*,*,#550,.F.);
#740=ORIENTED_EDGE('',*,*,#551,.T.);
#741=ORIENTED_EDGE('',*,*,#550,.T.);
#742=ORIENTED_EDGE('',*,*,#552,.F.);
#743=ORIENTED_EDGE('',*,*,#553,.F.);
#744=ORIENTED_EDGE('',*,*,#554,.F.);
#745=ORIENTED_EDGE('',*,*,#553,.T.);
#746=ORIENTED_EDGE('',*,*,#555,.T.);
#747=ORIENTED_EDGE('',*,*,#544,.F.);
#748=ORIENTED_EDGE('',*,*,#556,.T.);
#749=ORIENTED_EDGE('',*,*,#542,.F.);
#750=ORIENTED_EDGE('',*,*,#557,.F.);
#751=ORIENTED_EDGE('',*,*,#558,.F.);
#752=ORIENTED_EDGE('',*,*,#559,.T.);
#753=ORIENTED_EDGE('',*,*,#558,.T.);
#754=ORIENTED_EDGE('',*,*,#560,.F.);
#755=ORIENTED_EDGE('',*,*,#548,.F.);
#756=ORIENTED_EDGE('',*,*,#560,.T.);
#757=ORIENTED_EDGE('',*,*,#557,.T.);
#758=ORIENTED_EDGE('',*,*,#545,.F.);
#759=ORIENTED_EDGE('',*,*,#555,.F.);
#760=ORIENTED_EDGE('',*,*,#552,.T.);
#761=ORIENTED_EDGE('',*,*,#549,.T.);
#762=ORIENTED_EDGE('',*,*,#559,.F.);
#763=ORIENTED_EDGE('',*,*,#547,.F.);
#764=ORIENTED_EDGE('',*,*,#551,.F.);
#765=ORIENTED_EDGE('',*,*,#554,.T.);
#766=ORIENTED_EDGE('',*,*,#543,.F.);
#767=ORIENTED_EDGE('',*,*,#556,.F.);
#768=ORIENTED_EDGE('',*,*,#561,.F.);
#769=ORIENTED_EDGE('',*,*,#562,.F.);
#770=ORIENTED_EDGE('',*,*,#563,.F.);
#771=ORIENTED_EDGE('',*,*,#564,.F.);
#772=ORIENTED_EDGE('',*,*,#565,.F.);
#773=ORIENTED_EDGE('',*,*,#566,.F.);
#774=ORIENTED_EDGE('',*,*,#566,.T.);
#775=ORIENTED_EDGE('',*,*,#567,.F.);
#776=ORIENTED_EDGE('',*,*,#568,.T.);
#777=ORIENTED_EDGE('',*,*,#569,.T.);
#778=ORIENTED_EDGE('',*,*,#570,.T.);
#779=ORIENTED_EDGE('',*,*,#565,.T.);
#780=ORIENTED_EDGE('',*,*,#571,.T.);
#781=ORIENTED_EDGE('',*,*,#572,.T.);
#782=ORIENTED_EDGE('',*,*,#567,.T.);
#783=ORIENTED_EDGE('',*,*,#564,.T.);
#784=ORIENTED_EDGE('',*,*,#573,.T.);
#785=ORIENTED_EDGE('',*,*,#574,.T.);
#786=ORIENTED_EDGE('',*,*,#575,.T.);
#787=ORIENTED_EDGE('',*,*,#571,.F.);
#788=ORIENTED_EDGE('',*,*,#562,.T.);
#789=ORIENTED_EDGE('',*,*,#576,.F.);
#790=ORIENTED_EDGE('',*,*,#577,.F.);
#791=ORIENTED_EDGE('',*,*,#578,.F.);
#792=ORIENTED_EDGE('',*,*,#579,.F.);
#793=ORIENTED_EDGE('',*,*,#580,.F.);
#794=ORIENTED_EDGE('',*,*,#561,.T.);
#795=ORIENTED_EDGE('',*,*,#570,.F.);
#796=ORIENTED_EDGE('',*,*,#581,.T.);
#797=ORIENTED_EDGE('',*,*,#582,.T.);
#798=ORIENTED_EDGE('',*,*,#583,.T.);
#799=ORIENTED_EDGE('',*,*,#576,.T.);
#800=ORIENTED_EDGE('',*,*,#563,.T.);
#801=ORIENTED_EDGE('',*,*,#578,.T.);
#802=ORIENTED_EDGE('',*,*,#584,.F.);
#803=ORIENTED_EDGE('',*,*,#585,.F.);
#804=ORIENTED_EDGE('',*,*,#586,.F.);
#805=ORIENTED_EDGE('',*,*,#573,.F.);
#806=ORIENTED_EDGE('',*,*,#579,.T.);
#807=ORIENTED_EDGE('',*,*,#587,.T.);
#808=ORIENTED_EDGE('',*,*,#588,.T.);
#809=ORIENTED_EDGE('',*,*,#587,.F.);
#810=ORIENTED_EDGE('',*,*,#588,.F.);
#811=ORIENTED_EDGE('',*,*,#580,.T.);
#812=ORIENTED_EDGE('',*,*,#589,.T.);
#813=ORIENTED_EDGE('',*,*,#590,.T.);
#814=ORIENTED_EDGE('',*,*,#589,.F.);
#815=ORIENTED_EDGE('',*,*,#590,.F.);
#816=ORIENTED_EDGE('',*,*,#591,.T.);
#817=ORIENTED_EDGE('',*,*,#592,.T.);
#818=ORIENTED_EDGE('',*,*,#593,.F.);
#819=ORIENTED_EDGE('',*,*,#594,.F.);
#820=ORIENTED_EDGE('',*,*,#595,.T.);
#821=ORIENTED_EDGE('',*,*,#596,.T.);
#822=ORIENTED_EDGE('',*,*,#597,.T.);
#823=ORIENTED_EDGE('',*,*,#598,.T.);
#824=ORIENTED_EDGE('',*,*,#596,.F.);
#825=ORIENTED_EDGE('',*,*,#599,.F.);
#826=ORIENTED_EDGE('',*,*,#600,.F.);
#827=ORIENTED_EDGE('',*,*,#601,.F.);
#828=ORIENTED_EDGE('',*,*,#602,.F.);
#829=ORIENTED_EDGE('',*,*,#597,.F.);
#830=ORIENTED_EDGE('',*,*,#601,.T.);
#831=ORIENTED_EDGE('',*,*,#603,.T.);
#832=ORIENTED_EDGE('',*,*,#591,.F.);
#833=ORIENTED_EDGE('',*,*,#604,.T.);
#834=ORIENTED_EDGE('',*,*,#605,.F.);
#835=ORIENTED_EDGE('',*,*,#606,.T.);
#836=ORIENTED_EDGE('',*,*,#604,.F.);
#837=ORIENTED_EDGE('',*,*,#606,.F.);
#838=ORIENTED_EDGE('',*,*,#592,.F.);
#839=ORIENTED_EDGE('',*,*,#603,.F.);
#840=ORIENTED_EDGE('',*,*,#600,.T.);
#841=ORIENTED_EDGE('',*,*,#607,.F.);
#842=ORIENTED_EDGE('',*,*,#608,.F.);
#843=ORIENTED_EDGE('',*,*,#593,.T.);
#844=ORIENTED_EDGE('',*,*,#607,.T.);
#845=ORIENTED_EDGE('',*,*,#599,.T.);
#846=ORIENTED_EDGE('',*,*,#595,.F.);
#847=ORIENTED_EDGE('',*,*,#605,.T.);
#848=ORIENTED_EDGE('',*,*,#584,.T.);
#849=ORIENTED_EDGE('',*,*,#577,.T.);
#850=ORIENTED_EDGE('',*,*,#583,.F.);
#851=ORIENTED_EDGE('',*,*,#609,.F.);
#852=ORIENTED_EDGE('',*,*,#585,.T.);
#853=ORIENTED_EDGE('',*,*,#609,.T.);
#854=ORIENTED_EDGE('',*,*,#582,.F.);
#855=ORIENTED_EDGE('',*,*,#610,.F.);
#856=ORIENTED_EDGE('',*,*,#574,.F.);
#857=ORIENTED_EDGE('',*,*,#586,.T.);
#858=ORIENTED_EDGE('',*,*,#610,.T.);
#859=ORIENTED_EDGE('',*,*,#581,.F.);
#860=ORIENTED_EDGE('',*,*,#569,.F.);
#861=ORIENTED_EDGE('',*,*,#611,.F.);
#862=ORIENTED_EDGE('',*,*,#602,.T.);
#863=ORIENTED_EDGE('',*,*,#594,.T.);
#864=ORIENTED_EDGE('',*,*,#608,.T.);
#865=ORIENTED_EDGE('',*,*,#598,.F.);
#866=ORIENTED_EDGE('',*,*,#572,.F.);
#867=ORIENTED_EDGE('',*,*,#575,.F.);
#868=ORIENTED_EDGE('',*,*,#611,.T.);
#869=ORIENTED_EDGE('',*,*,#568,.F.);
#870=PLANE('',#989);
#871=PLANE('',#990);
#872=PLANE('',#993);
#873=PLANE('',#994);
#874=PLANE('',#995);
#875=PLANE('',#996);
#876=PLANE('',#999);
#877=PLANE('',#1004);
#878=PLANE('',#1005);
#879=PLANE('',#1008);
#880=PLANE('',#1011);
#881=PLANE('',#1012);
#882=PLANE('',#1013);
#883=PLANE('',#1014);
#884=PLANE('',#1015);
#885=PLANE('',#1016);
#886=PLANE('',#1017);
#887=PLANE('',#1018);
#888=PLANE('',#1019);
#889=PLANE('',#1020);
#890=PLANE('',#1021);
#891=PLANE('',#1022);
#892=PLANE('',#1023);
#893=PLANE('',#1024);
#894=PLANE('',#1025);
#895=PLANE('',#1027);
#896=PLANE('',#1028);
#897=PLANE('',#1029);
#898=PLANE('',#1030);
#899=PLANE('',#1031);
#900=PLANE('',#1034);
#901=PLANE('',#1035);
#902=PLANE('',#1038);
#903=PLANE('',#1041);
#904=PLANE('',#1048);
#905=PLANE('',#1049);
#906=PLANE('',#1056);
#907=PLANE('',#1057);
#908=PLANE('',#1058);
#909=PLANE('',#1059);
#910=PLANE('',#1060);
#911=ADVANCED_FACE('',(#67),#870,.F.);
#912=ADVANCED_FACE('',(#68,#39),#871,.T.);
#913=ADVANCED_FACE('',(#69),#872,.T.);
#914=ADVANCED_FACE('',(#70),#873,.T.);
#915=ADVANCED_FACE('',(#71),#874,.T.);
#916=ADVANCED_FACE('',(#72,#40),#875,.F.);
#917=ADVANCED_FACE('',(#73),#876,.T.);
#918=ADVANCED_FACE('',(#74),#29,.F.);
#919=ADVANCED_FACE('',(#75),#30,.T.);
#920=ADVANCED_FACE('',(#76,#41),#877,.T.);
#921=ADVANCED_FACE('',(#77),#878,.T.);
#922=ADVANCED_FACE('',(#78),#31,.F.);
#923=ADVANCED_FACE('',(#79),#879,.T.);
#924=ADVANCED_FACE('',(#80),#32,.T.);
#925=ADVANCED_FACE('',(#81,#42),#880,.F.);
#926=ADVANCED_FACE('',(#82),#881,.T.);
#927=ADVANCED_FACE('',(#83),#882,.F.);
#928=ADVANCED_FACE('',(#84),#883,.F.);
#929=ADVANCED_FACE('',(#85,#43),#884,.T.);
#930=ADVANCED_FACE('',(#86),#885,.T.);
#931=ADVANCED_FACE('',(#87),#886,.T.);
#932=ADVANCED_FACE('',(#88),#887,.T.);
#933=ADVANCED_FACE('',(#89),#888,.T.);
#934=ADVANCED_FACE('',(#90),#889,.T.);
#935=ADVANCED_FACE('',(#91),#890,.T.);
#936=ADVANCED_FACE('',(#92),#891,.T.);
#937=ADVANCED_FACE('',(#93),#892,.T.);
#938=ADVANCED_FACE('',(#94),#893,.T.);
#939=ADVANCED_FACE('',(#95),#894,.F.);
#940=ADVANCED_FACE('',(#96),#895,.F.);
#941=ADVANCED_FACE('',(#97),#896,.T.);
#942=ADVANCED_FACE('',(#98),#897,.T.);
#943=ADVANCED_FACE('',(#99),#898,.T.);
#944=ADVANCED_FACE('',(#100,#44,#45),#899,.F.);
#945=ADVANCED_FACE('',(#101),#900,.T.);
#946=ADVANCED_FACE('',(#102),#901,.T.);
#947=ADVANCED_FACE('',(#103),#33,.F.);
#948=ADVANCED_FACE('',(#104),#902,.F.);
#949=ADVANCED_FACE('',(#105),#34,.F.);
#950=ADVANCED_FACE('',(#106),#903,.F.);
#951=ADVANCED_FACE('',(#107),#35,.F.);
#952=ADVANCED_FACE('',(#108),#36,.F.);
#953=ADVANCED_FACE('',(#109),#904,.T.);
#954=ADVANCED_FACE('',(#110,#46),#905,.F.);
#955=ADVANCED_FACE('',(#111),#37,.F.);
#956=ADVANCED_FACE('',(#112),#38,.T.);
#957=ADVANCED_FACE('',(#113,#47),#906,.T.);
#958=ADVANCED_FACE('',(#114),#907,.T.);
#959=ADVANCED_FACE('',(#115),#908,.T.);
#960=ADVANCED_FACE('',(#116,#48),#909,.T.);
#961=ADVANCED_FACE('',(#117),#910,.T.);
#962=CLOSED_SHELL('',(#911,#912,#913,#914,#915,#916,#917,#918,#919,#920,
#921,#922,#923,#924,#925,#926,#927,#928,#929,#930,#931,#932,#933,#934,#935,
#936,#937,#938,#939));
#963=CLOSED_SHELL('',(#940,#941,#942,#943,#944,#945,#946,#947,#948,#949,
#950,#951,#952,#953,#954,#955,#956,#957,#958,#959,#960,#961));
#964=DERIVED_UNIT_ELEMENT(#968,1.);
#965=DERIVED_UNIT_ELEMENT(#1604,-3.);
#966=DERIVED_UNIT_ELEMENT(#968,1.);
#967=DERIVED_UNIT_ELEMENT(#1604,-3.);
#968=(
MASS_UNIT()
NAMED_UNIT(*)
SI_UNIT(.KILO.,.GRAM.)
);
#969=DERIVED_UNIT((#964,#965));
#970=DERIVED_UNIT((#966,#967));
#971=MEASURE_REPRESENTATION_ITEM('density measure',
POSITIVE_RATIO_MEASURE(7850.),#969);
#972=MEASURE_REPRESENTATION_ITEM('density measure',
POSITIVE_RATIO_MEASURE(7850.),#970);
#973=PROPERTY_DEFINITION_REPRESENTATION(#983,#977);
#974=PROPERTY_DEFINITION_REPRESENTATION(#984,#978);
#975=PROPERTY_DEFINITION_REPRESENTATION(#985,#979);
#976=PROPERTY_DEFINITION_REPRESENTATION(#986,#980);
#977=REPRESENTATION('material name',(#981),#1600);
#978=REPRESENTATION('density',(#971),#1600);
#979=REPRESENTATION('material name',(#982),#1601);
#980=REPRESENTATION('density',(#972),#1601);
#981=DESCRIPTIVE_REPRESENTATION_ITEM('Steel','Steel');
#982=DESCRIPTIVE_REPRESENTATION_ITEM('Steel','Steel');
#983=PROPERTY_DEFINITION('material property','material name',#1620);
#984=PROPERTY_DEFINITION('material property','density of part',#1620);
#985=PROPERTY_DEFINITION('material property','material name',#1621);
#986=PROPERTY_DEFINITION('material property','density of part',#1621);
#987=AXIS2_PLACEMENT_3D('',#1324,#1063,#1064);
#988=AXIS2_PLACEMENT_3D('',#1325,#1065,#1066);
#989=AXIS2_PLACEMENT_3D('',#1326,#1067,#1068);
#990=AXIS2_PLACEMENT_3D('',#1335,#1073,#1074);
#991=AXIS2_PLACEMENT_3D('',#1349,#1081,#1082);
#992=AXIS2_PLACEMENT_3D('',#1362,#1089,#1090);
#993=AXIS2_PLACEMENT_3D('',#1363,#1091,#1092);
#994=AXIS2_PLACEMENT_3D('',#1367,#1095,#1096);
#995=AXIS2_PLACEMENT_3D('',#1371,#1099,#1100);
#996=AXIS2_PLACEMENT_3D('',#1380,#1105,#1106);
#997=AXIS2_PLACEMENT_3D('',#1385,#1109,#1110);
#998=AXIS2_PLACEMENT_3D('',#1387,#1111,#1112);
#999=AXIS2_PLACEMENT_3D('',#1388,#1113,#1114);
#1000=AXIS2_PLACEMENT_3D('',#1394,#1118,#1119);
#1001=AXIS2_PLACEMENT_3D('',#1396,#1120,#1121);
#1002=AXIS2_PLACEMENT_3D('',#1398,#1123,#1124);
#1003=AXIS2_PLACEMENT_3D('',#1399,#1125,#1126);
#1004=AXIS2_PLACEMENT_3D('',#1400,#1127,#1128);
#1005=AXIS2_PLACEMENT_3D('',#1415,#1137,#1138);
#1006=AXIS2_PLACEMENT_3D('',#1421,#1142,#1143);
#1007=AXIS2_PLACEMENT_3D('',#1424,#1145,#1146);
#1008=AXIS2_PLACEMENT_3D('',#1425,#1147,#1148);
#1009=AXIS2_PLACEMENT_3D('',#1431,#1152,#1153);
#1010=AXIS2_PLACEMENT_3D('',#1432,#1154,#1155);
#1011=AXIS2_PLACEMENT_3D('',#1433,#1156,#1157);
#1012=AXIS2_PLACEMENT_3D('',#1435,#1159,#1160);
#1013=AXIS2_PLACEMENT_3D('',#1438,#1163,#1164);
#1014=AXIS2_PLACEMENT_3D('',#1440,#1166,#1167);
#1015=AXIS2_PLACEMENT_3D('',#1442,#1169,#1170);
#1016=AXIS2_PLACEMENT_3D('',#1452,#1176,#1177);
#1017=AXIS2_PLACEMENT_3D('',#1453,#1178,#1179);
#1018=AXIS2_PLACEMENT_3D('',#1455,#1181,#1182);
#1019=AXIS2_PLACEMENT_3D('',#1456,#1183,#1184);
#1020=AXIS2_PLACEMENT_3D('',#1465,#1189,#1190);
#1021=AXIS2_PLACEMENT_3D('',#1471,#1194,#1195);
#1022=AXIS2_PLACEMENT_3D('',#1474,#1198,#1199);
#1023=AXIS2_PLACEMENT_3D('',#1480,#1203,#1204);
#1024=AXIS2_PLACEMENT_3D('',#1483,#1207,#1208);
#1025=AXIS2_PLACEMENT_3D('',#1484,#1209,#1210);
#1026=AXIS2_PLACEMENT_3D('',#1485,#1211,#1212);
#1027=AXIS2_PLACEMENT_3D('',#1486,#1213,#1214);
#1028=AXIS2_PLACEMENT_3D('',#1499,#1221,#1222);
#1029=AXIS2_PLACEMENT_3D('',#1507,#1227,#1228);
#1030=AXIS2_PLACEMENT_3D('',#1511,#1231,#1232);
#1031=AXIS2_PLACEMENT_3D('',#1517,#1236,#1237);
#1032=AXIS2_PLACEMENT_3D('',#1524,#1241,#1242);
#1033=AXIS2_PLACEMENT_3D('',#1526,#1243,#1244);
#1034=AXIS2_PLACEMENT_3D('',#1527,#1245,#1246);
#1035=AXIS2_PLACEMENT_3D('',#1533,#1250,#1251);
#1036=AXIS2_PLACEMENT_3D('',#1539,#1255,#1256);
#1037=AXIS2_PLACEMENT_3D('',#1542,#1258,#1259);
#1038=AXIS2_PLACEMENT_3D('',#1543,#1260,#1261);
#1039=AXIS2_PLACEMENT_3D('',#1544,#1262,#1263);
#1040=AXIS2_PLACEMENT_3D('',#1547,#1265,#1266);
#1041=AXIS2_PLACEMENT_3D('',#1548,#1267,#1268);
#1042=AXIS2_PLACEMENT_3D('',#1549,#1269,#1270);
#1043=AXIS2_PLACEMENT_3D('',#1552,#1271,#1272);
#1044=AXIS2_PLACEMENT_3D('',#1556,#1274,#1275);
#1045=AXIS2_PLACEMENT_3D('',#1558,#1277,#1278);
#1046=AXIS2_PLACEMENT_3D('',#1561,#1279,#1280);
#1047=AXIS2_PLACEMENT_3D('',#1565,#1282,#1283);
#1048=AXIS2_PLACEMENT_3D('',#1567,#1285,#1286);
#1049=AXIS2_PLACEMENT_3D('',#1573,#1290,#1291);
#1050=AXIS2_PLACEMENT_3D('',#1575,#1293,#1294);
#1051=AXIS2_PLACEMENT_3D('',#1577,#1295,#1296);
#1052=AXIS2_PLACEMENT_3D('',#1578,#1297,#1298);
#1053=AXIS2_PLACEMENT_3D('',#1580,#1299,#1300);
#1054=AXIS2_PLACEMENT_3D('',#1582,#1302,#1303);
#1055=AXIS2_PLACEMENT_3D('',#1583,#1304,#1305);
#1056=AXIS2_PLACEMENT_3D('',#1584,#1306,#1307);
#1057=AXIS2_PLACEMENT_3D('',#1586,#1309,#1310);
#1058=AXIS2_PLACEMENT_3D('',#1588,#1312,#1313);
#1059=AXIS2_PLACEMENT_3D('',#1590,#1315,#1316);
#1060=AXIS2_PLACEMENT_3D('',#1592,#1318,#1319);
#1061=AXIS2_PLACEMENT_3D('',#1593,#1320,#1321);
#1062=AXIS2_PLACEMENT_3D('',#1594,#1322,#1323);
#1063=DIRECTION('axis',(0.,0.,1.));
#1064=DIRECTION('refdir',(1.,0.,0.));
#1065=DIRECTION('axis',(0.,0.,1.));
#1066=DIRECTION('refdir',(1.,0.,0.));
#1067=DIRECTION('center_axis',(0.,1.,0.));
#1068=DIRECTION('ref_axis',(0.,0.,1.));
#1069=DIRECTION('',(1.,0.,0.));
#1070=DIRECTION('',(0.,0.,1.));
#1071=DIRECTION('',(-1.,0.,0.));
#1072=DIRECTION('',(0.,0.,-1.));
#1073=DIRECTION('center_axis',(1.,0.,0.));
#1074=DIRECTION('ref_axis',(0.,1.,0.));
#1075=DIRECTION('',(0.,1.,0.));
#1076=DIRECTION('',(0.,1.,0.));
#1077=DIRECTION('',(0.,0.,-1.));
#1078=DIRECTION('',(0.,1.,0.));
#1079=DIRECTION('',(0.,-2.686025731384E-16,1.));
#1080=DIRECTION('',(0.,-1.,0.));
#1081=DIRECTION('center_axis',(1.,0.,0.));
#1082=DIRECTION('ref_axis',(0.,0.,-1.));
#1083=DIRECTION('',(0.,1.,0.));
#1084=DIRECTION('',(0.,-2.686025731384E-16,1.));
#1085=DIRECTION('',(0.,-1.,0.));
#1086=DIRECTION('',(0.,3.82835525732812E-15,1.));
#1087=DIRECTION('',(0.,-1.,0.));
#1088=DIRECTION('',(0.,0.,1.));
#1089=DIRECTION('center_axis',(-1.,0.,0.));
#1090=DIRECTION('ref_axis',(0.,0.,-1.));
#1091=DIRECTION('center_axis',(0.,0.,-1.));
#1092=DIRECTION('ref_axis',(-1.,0.,0.));
#1093=DIRECTION('',(0.,1.,0.));
#1094=DIRECTION('',(-1.,0.,0.));
#1095=DIRECTION('center_axis',(0.,1.,0.));
#1096=DIRECTION('ref_axis',(0.,0.,1.));
#1097=DIRECTION('',(0.,0.,1.));
#1098=DIRECTION('',(1.,0.,0.));
#1099=DIRECTION('center_axis',(0.,0.,-1.));
#1100=DIRECTION('ref_axis',(0.,-1.,0.));
#1101=DIRECTION('',(-1.,0.,0.));
#1102=DIRECTION('',(0.,-1.,0.));
#1103=DIRECTION('',(-1.,0.,0.));
#1104=DIRECTION('',(0.,-1.,0.));
#1105=DIRECTION('center_axis',(-1.,0.,0.));
#1106=DIRECTION('ref_axis',(0.,0.,1.));
#1107=DIRECTION('',(0.,-2.686025731384E-16,1.));
#1108=DIRECTION('',(0.,1.,0.));
#1109=DIRECTION('center_axis',(-1.,0.,0.));
#1110=DIRECTION('ref_axis',(0.,0.,1.));
#1111=DIRECTION('center_axis',(1.,0.,0.));
#1112=DIRECTION('ref_axis',(0.,0.,1.));
#1113=DIRECTION('center_axis',(0.,0.,1.));
#1114=DIRECTION('ref_axis',(0.,1.,0.));
#1115=DIRECTION('',(1.,0.,0.));
#1116=DIRECTION('',(0.,1.,0.));
#1117=DIRECTION('',(-1.,0.,0.));
#1118=DIRECTION('center_axis',(-1.,0.,0.));
#1119=DIRECTION('ref_axis',(0.,0.,1.));
#1120=DIRECTION('center_axis',(1.,0.,0.));
#1121=DIRECTION('ref_axis',(0.,0.,1.));
#1122=DIRECTION('',(1.,0.,0.));
#1123=DIRECTION('center_axis',(-1.,0.,0.));
#1124=DIRECTION('ref_axis',(0.,-0.538387350307827,-0.842697490816555));
#1125=DIRECTION('center_axis',(-1.,0.,0.));
#1126=DIRECTION('ref_axis',(0.,0.,1.));
#1127=DIRECTION('center_axis',(-1.,0.,0.));
#1128=DIRECTION('ref_axis',(0.,0.,1.));
#1129=DIRECTION('',(0.,-1.,0.));
#1130=DIRECTION('',(0.,0.,-1.));
#1131=DIRECTION('',(0.,-1.,0.));
#1132=DIRECTION('',(0.,3.82835525732812E-15,1.));
#1133=DIRECTION('',(0.,-1.,0.));
#1134=DIRECTION('',(0.,-2.686025731384E-16,1.));
#1135=DIRECTION('',(0.,-2.686025731384E-16,1.));
#1136=DIRECTION('',(0.,1.,0.));
#1137=DIRECTION('center_axis',(0.,0.,1.));
#1138=DIRECTION('ref_axis',(0.,-1.,0.));
#1139=DIRECTION('',(1.,0.,0.));
#1140=DIRECTION('',(0.,-1.,0.));
#1141=DIRECTION('',(1.,0.,0.));
#1142=DIRECTION('center_axis',(1.,0.,0.));
#1143=DIRECTION('ref_axis',(0.,0.,-1.));
#1144=DIRECTION('',(-1.,0.,0.));
#1145=DIRECTION('center_axis',(-1.,0.,0.));
#1146=DIRECTION('ref_axis',(0.,0.,-1.));
#1147=DIRECTION('center_axis',(0.,0.,-1.));
#1148=DIRECTION('ref_axis',(0.,1.,0.));
#1149=DIRECTION('',(-1.,0.,0.));
#1150=DIRECTION('',(1.,0.,0.));
#1151=DIRECTION('',(0.,1.,0.));
#1152=DIRECTION('center_axis',(1.,0.,0.));
#1153=DIRECTION('ref_axis',(0.,0.,-1.));
#1154=DIRECTION('center_axis',(1.,0.,0.));
#1155=DIRECTION('ref_axis',(0.,0.,-1.));
#1156=DIRECTION('center_axis',(1.,0.,0.));
#1157=DIRECTION('ref_axis',(0.,0.,-1.));
#1158=DIRECTION('',(0.,2.686025731384E-16,-1.));
#1159=DIRECTION('center_axis',(0.,-1.,-2.686025731384E-16));
#1160=DIRECTION('ref_axis',(0.,-2.686025731384E-16,1.));
#1161=DIRECTION('',(-1.,0.,0.));
#1162=DIRECTION('',(1.,0.,0.));
#1163=DIRECTION('center_axis',(0.,0.,1.));
#1164=DIRECTION('ref_axis',(0.,1.,0.));
#1165=DIRECTION('',(1.,0.,0.));
#1166=DIRECTION('center_axis',(0.,-1.,0.));
#1167=DIRECTION('ref_axis',(0.,0.,1.));
#1168=DIRECTION('',(1.,0.,0.));
#1169=DIRECTION('center_axis',(0.,0.,-1.));
#1170=DIRECTION('ref_axis',(0.,-1.,0.));
#1171=DIRECTION('',(-1.,0.,0.));
#1172=DIRECTION('',(-1.,0.,0.));
#1173=DIRECTION('',(0.,1.,0.));
#1174=DIRECTION('',(1.,0.,0.));
#1175=DIRECTION('',(0.,1.,0.));
#1176=DIRECTION('center_axis',(0.,0.,1.));
#1177=DIRECTION('ref_axis',(1.,0.,0.));
#1178=DIRECTION('center_axis',(0.,0.,-1.));
#1179=DIRECTION('ref_axis',(0.,-1.,0.));
#1180=DIRECTION('',(-1.,0.,0.));
#1181=DIRECTION('center_axis',(0.,-1.,3.82835525732812E-15));
#1182=DIRECTION('ref_axis',(0.,3.82835525732812E-15,1.));
#1183=DIRECTION('center_axis',(0.,-0.954831798887489,-0.297146825379781));
#1184=DIRECTION('ref_axis',(0.,0.297146825379781,-0.954831798887489));
#1185=DIRECTION('',(0.,-0.297146825379781,0.954831798887489));
#1186=DIRECTION('',(1.,0.,0.));
#1187=DIRECTION('',(0.,-0.297146825379781,0.954831798887489));
#1188=DIRECTION('',(1.,0.,0.));
#1189=DIRECTION('center_axis',(0.,0.,-1.));
#1190=DIRECTION('ref_axis',(0.,1.,0.));
#1191=DIRECTION('',(0.,-1.,0.));
#1192=DIRECTION('',(0.,-1.,0.));
#1193=DIRECTION('',(1.,0.,0.));
#1194=DIRECTION('center_axis',(0.,-1.,-1.42108547152018E-13));
#1195=DIRECTION('ref_axis',(0.,1.42108547152018E-13,-1.));
#1196=DIRECTION('',(0.,-1.42108547152018E-13,1.));
#1197=DIRECTION('',(0.,-1.42108547152018E-13,1.));
#1198=DIRECTION('center_axis',(0.,1.,0.));
#1199=DIRECTION('ref_axis',(0.,0.,1.));
#1200=DIRECTION('',(0.,0.,-1.));
#1201=DIRECTION('',(0.,0.,1.));
#1202=DIRECTION('',(1.,0.,0.));
#1203=DIRECTION('center_axis',(0.,0.118178580621014,-0.992992358018128));
#1204=DIRECTION('ref_axis',(0.,0.992992358018128,0.118178580621014));
#1205=DIRECTION('',(0.,-0.992992358018128,-0.118178580621014));
#1206=DIRECTION('',(0.,-0.992992358018128,-0.118178580621014));
#1207=DIRECTION('center_axis',(1.,0.,0.));
#1208=DIRECTION('ref_axis',(0.,0.,-1.));
#1209=DIRECTION('center_axis',(1.,0.,0.));
#1210=DIRECTION('ref_axis',(0.,1.,0.));
#1211=DIRECTION('axis',(0.,0.,1.));
#1212=DIRECTION('refdir',(1.,0.,0.));
#1213=DIRECTION('center_axis',(-1.56737368182375E-15,-1.,-9.0205620750794E-17));
#1214=DIRECTION('ref_axis',(6.99861499564841E-24,-9.0205620750794E-17,1.));
#1215=DIRECTION('',(0.,9.0205620750794E-17,-1.));
#1216=DIRECTION('',(-1.,9.91721614186064E-15,1.04916397121813E-15));
#1217=DIRECTION('',(0.,-9.0205620750794E-17,1.));
#1218=DIRECTION('',(0.707106781186548,-1.17208556520493E-15,0.707106781186548));
#1219=DIRECTION('',(1.,-1.56737368182375E-15,-1.56737368182375E-15));
#1220=DIRECTION('',(0.707106781186548,-1.04451555293687E-15,-0.707106781186548));
#1221=DIRECTION('center_axis',(-0.707106781186548,0.,-0.707106781186548));
#1222=DIRECTION('ref_axis',(-0.707106781186548,0.,0.707106781186548));
#1223=DIRECTION('',(-0.577350269189626,0.577350269189626,0.577350269189626));
#1224=DIRECTION('',(0.,-1.,0.));
#1225=DIRECTION('',(-0.707106781186548,-1.89930700910318E-16,0.707106781186548));
#1226=DIRECTION('',(0.,1.,0.));
#1227=DIRECTION('center_axis',(0.,0.707106781186547,-0.707106781186548));
#1228=DIRECTION('ref_axis',(-1.,0.,0.));
#1229=DIRECTION('',(-0.577350269189626,-0.577350269189626,-0.577350269189626));
#1230=DIRECTION('',(-1.,0.,0.));
#1231=DIRECTION('center_axis',(0.707106781186548,0.,-0.707106781186548));
#1232=DIRECTION('ref_axis',(-0.707106781186548,0.,-0.707106781186548));
#1233=DIRECTION('',(0.,-1.,0.));
#1234=DIRECTION('',(-0.707106781186547,1.89930700910318E-16,-0.707106781186547));
#1235=DIRECTION('',(0.,1.,0.));
#1236=DIRECTION('center_axis',(0.,0.105205096739305,-0.994450545587901));
#1237=DIRECTION('ref_axis',(-3.3105414105751E-19,-0.994450545587901,-0.105205096739305));
#1238=DIRECTION('',(0.,0.994450545587901,0.105205096739305));
#1239=DIRECTION('',(-1.,0.,0.));
#1240=DIRECTION('',(0.,-0.994450545587901,-0.105205096739305));
#1241=DIRECTION('center_axis',(0.,-0.105205096739305,0.994450545587901));
#1242=DIRECTION('ref_axis',(-7.78674138052621E-17,-0.994450545587901,-0.105205096739305));
#1243=DIRECTION('center_axis',(0.,-0.105205096739305,0.994450545587901));
#1244=DIRECTION('ref_axis',(-4.90301973493749E-32,-0.994450545587901,-0.105205096739305));
#1245=DIRECTION('center_axis',(-1.,0.,0.));
#1246=DIRECTION('ref_axis',(0.,0.,1.));
#1247=DIRECTION('',(0.,-2.686025731384E-16,1.));
#1248=DIRECTION('',(0.,1.,0.));
#1249=DIRECTION('',(0.,0.297146825379781,-0.954831798887489));
#1250=DIRECTION('center_axis',(1.,0.,0.));
#1251=DIRECTION('ref_axis',(0.,1.,0.));
#1252=DIRECTION('',(0.,0.297146825379781,-0.954831798887489));
#1253=DIRECTION('',(0.,1.,0.));
#1254=DIRECTION('',(0.,-2.686025731384E-16,1.));
#1255=DIRECTION('center_axis',(-7.40148683083438E-16,0.,-1.));
#1256=DIRECTION('ref_axis',(1.,-4.93038065763131E-32,-7.40148683083438E-16));
#1257=DIRECTION('',(-7.40148683083438E-16,0.,-1.));
#1258=DIRECTION('center_axis',(5.55111512312579E-16,9.21504600056739E-25,
1.));
#1259=DIRECTION('ref_axis',(1.,-4.93038065763131E-32,-7.40148683083438E-16));
#1260=DIRECTION('center_axis',(-5.55111512312579E-16,-9.21504600056739E-25,
-1.));
#1261=DIRECTION('ref_axis',(1.,-4.93038065763131E-32,-5.55111512312579E-16));
#1262=DIRECTION('center_axis',(0.,0.,-1.));
#1263=DIRECTION('ref_axis',(1.,-4.93038065763131E-32,0.));
#1264=DIRECTION('',(0.,0.,-1.));
#1265=DIRECTION('center_axis',(5.55111512312579E-16,9.21504600056739E-25,
1.));
#1266=DIRECTION('ref_axis',(1.,-4.93038065763131E-32,0.));
#1267=DIRECTION('center_axis',(-5.55111512312579E-16,-9.21504600056739E-25,
-1.));
#1268=DIRECTION('ref_axis',(1.,-4.93038065763131E-32,-5.55111512312579E-16));
#1269=DIRECTION('center_axis',(-1.,0.,0.));
#1270=DIRECTION('ref_axis',(0.,-0.998646804126639,0.0520053901788072));
#1271=DIRECTION('center_axis',(-1.,0.,0.));
#1272=DIRECTION('ref_axis',(0.,-0.998646804126639,0.0520053901788072));
#1273=DIRECTION('',(1.,0.,0.));
#1274=DIRECTION('center_axis',(1.,0.,0.));
#1275=DIRECTION('ref_axis',(0.,-0.998646804126639,0.0520053901788072));
#1276=DIRECTION('',(1.,0.,0.));
#1277=DIRECTION('center_axis',(-1.,0.,0.));
#1278=DIRECTION('ref_axis',(0.,0.707106781186547,0.707106781186548));
#1279=DIRECTION('center_axis',(1.,0.,0.));
#1280=DIRECTION('ref_axis',(0.,0.707106781186547,0.707106781186548));
#1281=DIRECTION('',(-1.,0.,0.));
#1282=DIRECTION('center_axis',(-1.,0.,0.));
#1283=DIRECTION('ref_axis',(0.,0.707106781186547,0.707106781186548));
#1284=DIRECTION('',(1.,0.,0.));
#1285=DIRECTION('center_axis',(0.,0.,-1.));
#1286=DIRECTION('ref_axis',(0.,1.,0.));
#1287=DIRECTION('',(0.,1.,0.));
#1288=DIRECTION('',(1.,0.,0.));
#1289=DIRECTION('',(0.,-1.,0.));
#1290=DIRECTION('center_axis',(1.,0.,0.));
#1291=DIRECTION('ref_axis',(0.,0.,-1.));
#1292=DIRECTION('',(0.,-2.686025731384E-16,1.));
#1293=DIRECTION('center_axis',(-1.,0.,0.));
#1294=DIRECTION('ref_axis',(0.,0.,-1.));
#1295=DIRECTION('center_axis',(1.,0.,0.));
#1296=DIRECTION('ref_axis',(0.,0.,-1.));
#1297=DIRECTION('center_axis',(1.,0.,0.));
#1298=DIRECTION('ref_axis',(0.,0.,-1.));
#1299=DIRECTION('center_axis',(-1.,0.,0.));
#1300=DIRECTION('ref_axis',(0.,0.,-1.));
#1301=DIRECTION('',(-1.,0.,0.));
#1302=DIRECTION('center_axis',(1.,0.,0.));
#1303=DIRECTION('ref_axis',(0.,-0.688474621834818,0.725260432596046));
#1304=DIRECTION('center_axis',(1.,0.,0.));
#1305=DIRECTION('ref_axis',(0.,0.,-1.));
#1306=DIRECTION('center_axis',(1.,0.,0.));
#1307=DIRECTION('ref_axis',(0.,0.,-1.));
#1308=DIRECTION('',(0.,2.686025731384E-16,-1.));
#1309=DIRECTION('center_axis',(0.,0.954831798887489,0.297146825379781));
#1310=DIRECTION('ref_axis',(0.,0.297146825379781,-0.954831798887489));
#1311=DIRECTION('',(-1.,0.,0.));
#1312=DIRECTION('center_axis',(0.,0.,1.));
#1313=DIRECTION('ref_axis',(0.,1.,0.));
#1314=DIRECTION('',(-1.,0.,0.));
#1315=DIRECTION('center_axis',(0.,-1.,-2.686025731384E-16));
#1316=DIRECTION('ref_axis',(0.,-2.686025731384E-16,1.));
#1317=DIRECTION('',(-1.,0.,0.));
#1318=DIRECTION('center_axis',(0.,0.,-1.));
#1319=DIRECTION('ref_axis',(0.,-1.,0.));
#1320=DIRECTION('',(7.29679236069133E-16,9.83327704523056E-17,1.));
#1321=DIRECTION('',(1.,-3.33066907387547E-16,5.55111512312579E-16));
#1322=DIRECTION('',(-5.55111512148228E-16,9.71445146547012E-17,0.999999999999986));
#1323=DIRECTION('',(1.00000000000001,-3.33066909066547E-16,5.55111512148269E-16));
#1324=CARTESIAN_POINT('',(0.,0.,0.));
#1325=CARTESIAN_POINT('',(0.,0.,0.));
#1326=CARTESIAN_POINT('Origin',(28.3218237498936,56.0366269435592,-19.5140122143288));
#1327=CARTESIAN_POINT('',(15.0718237498936,56.0366269435592,-19.8085391403459));
#1328=CARTESIAN_POINT('',(41.5718237498936,56.0366269435592,-19.8085391403459));
#1329=CARTESIAN_POINT('',(28.3218237498936,56.0366269435592,-19.8085391403459));
#1330=CARTESIAN_POINT('',(15.0718237498936,56.0366269435592,-21.7561449234233));
#1331=CARTESIAN_POINT('',(15.0718237498936,56.0366269435592,-19.6596107685594));
#1332=CARTESIAN_POINT('',(41.5718237498936,56.0366269435592,-21.7561449234233));
#1333=CARTESIAN_POINT('',(34.9468237498936,56.0366269435592,-21.7561449234233));
#1334=CARTESIAN_POINT('',(41.5718237498936,56.0366269435592,-19.6596107685594));
#1335=CARTESIAN_POINT('Origin',(41.5718237498936,28.5366269435592,-19.8052093227901));
#1336=CARTESIAN_POINT('',(41.5718237498936,38.1366269435593,-19.8085391403459));
#1337=CARTESIAN_POINT('',(41.5718237498936,42.2366269435592,-19.8085391403459));
#1338=CARTESIAN_POINT('',(41.5718237498936,56.9366269435592,-21.7561449234233));
#1339=CARTESIAN_POINT('',(41.5718237498936,55.9366269435592,-21.7561449234233));
#1340=CARTESIAN_POINT('',(41.5718237498936,56.9366269435592,-17.2718795052343));
#1341=CARTESIAN_POINT('',(41.5718237498936,56.9366269435592,-17.2718795052343));
#1342=CARTESIAN_POINT('',(41.5718237498936,1.13662694355914,-17.2718795052343));
#1343=CARTESIAN_POINT('',(41.5718237498936,1.13662694355914,-17.2718795052343));
#1344=CARTESIAN_POINT('',(41.5718237498936,1.13662694355914,-17.4491497458913));
#1345=CARTESIAN_POINT('',(41.5718237498936,1.13662694355915,-27.5385391403459));
#1346=CARTESIAN_POINT('',(41.5718237498936,-3.00000004470348,-17.4491497458913));
#1347=CARTESIAN_POINT('',(41.5718237498936,1.50000002235174,-17.4491497458913));
#1348=CARTESIAN_POINT('',(41.5718237498936,0.218468485878108,-19.5000002905726));
#1349=CARTESIAN_POINT('Origin',(41.5718237498936,-3.00000004470348,-21.0000003129244));
#1350=CARTESIAN_POINT('',(41.5718237498936,1.13662694355914,-19.5000002905726));
#1351=CARTESIAN_POINT('',(41.5718237498936,-3.00000004470348,-19.5000002905726));
#1352=CARTESIAN_POINT('',(41.5718237498936,1.13662694355914,-19.7585391403459));
#1353=CARTESIAN_POINT('',(41.5718237498936,1.13662694355915,-27.5385391403459));
#1354=CARTESIAN_POINT('',(41.5718237498936,5.83662694355931,-19.7585391403459));
#1355=CARTESIAN_POINT('',(41.5718237498936,5.83662694355931,-19.7585391403459));
#1356=CARTESIAN_POINT('',(41.5718237498936,5.83662694355931,-20.3385391403459));
#1357=CARTESIAN_POINT('',(41.5718237498936,5.83662694355931,-20.3385391403459));
#1358=CARTESIAN_POINT('',(41.5718237498936,38.1366269435593,-20.3385391403459));
#1359=CARTESIAN_POINT('',(41.5718237498936,55.9366269435592,-20.3385391403459));
#1360=CARTESIAN_POINT('',(41.5718237498936,38.1366269435593,-20.1362560409076));
#1361=CARTESIAN_POINT('',(41.5718237498936,-3.00000004470348,-18.7500003129244));
#1362=CARTESIAN_POINT('Origin',(41.5718237498936,-3.00000004470348,-21.0000003129244));
#1363=CARTESIAN_POINT('Origin',(41.5718237498936,55.9366269435592,-21.7561449234233));
#1364=CARTESIAN_POINT('',(15.0718237498936,56.9366269435592,-21.7561449234233));
#1365=CARTESIAN_POINT('',(15.0718237498936,55.9366269435592,-21.7561449234233));
#1366=CARTESIAN_POINT('',(41.5718237498936,56.9366269435592,-21.7561449234233));
#1367=CARTESIAN_POINT('Origin',(28.3218237498936,56.9366269435592,-19.5140122143288));
#1368=CARTESIAN_POINT('',(15.0718237498936,56.9366269435592,-17.2718795052343));
#1369=CARTESIAN_POINT('',(15.0718237498936,56.9366269435592,-21.7561449234233));
#1370=CARTESIAN_POINT('',(15.0718237498936,56.9366269435592,-17.2718795052343));
#1371=CARTESIAN_POINT('Origin',(23.3218237498936,2.10893573026017,-19.5076555049066));
#1372=CARTESIAN_POINT('',(23.1218237498936,1.13662694355914,-19.5076555049066));
#1373=CARTESIAN_POINT('',(15.0718237498936,1.13662694355914,-19.5076555049066));
#1374=CARTESIAN_POINT('',(32.4468237498936,1.13662694355914,-19.5076555049066));
#1375=CARTESIAN_POINT('',(23.1218237498936,0.222025207118964,-19.5076555049066));
#1376=CARTESIAN_POINT('',(23.1218237498936,-0.0560108552390182,-19.5076555049066));
#1377=CARTESIAN_POINT('',(15.0718237498936,0.222025207118964,-19.5076555049066));
#1378=CARTESIAN_POINT('',(23.3218237498936,0.222025207118964,-19.5076555049066));
#1379=CARTESIAN_POINT('',(15.0718237498936,-3.00000004470348,-19.5076555049066));
#1380=CARTESIAN_POINT('Origin',(23.1218237498936,-2.2209574407382,-21.0000003129244));
#1381=CARTESIAN_POINT('',(23.1218237498936,1.13662694355914,-17.4491497458913));
#1382=CARTESIAN_POINT('',(23.1218237498936,1.13662694355914,-20.3792697266351));
#1383=CARTESIAN_POINT('',(23.1218237498936,-3.00000004470348,-17.4491497458913));
#1384=CARTESIAN_POINT('',(23.1218237498936,-2.61047874272084,-17.4491497458913));
#1385=CARTESIAN_POINT('Origin',(23.1218237498936,-3.00000004470348,-21.0000003129244));
#1386=CARTESIAN_POINT('',(23.1218237498936,-3.00000004470348,-23.2500003129244));
#1387=CARTESIAN_POINT('Origin',(23.1218237498936,-3.00000004470348,-21.0000003129244));
#1388=CARTESIAN_POINT('Origin',(23.3218237498936,-3.00000004470348,-17.4491497458913));
#1389=CARTESIAN_POINT('',(15.0718237498936,1.13662694355914,-17.4491497458913));
#1390=CARTESIAN_POINT('',(32.4468237498936,1.13662694355914,-17.4491497458913));
#1391=CARTESIAN_POINT('',(15.0718237498936,-3.00000004470348,-17.4491497458913));
#1392=CARTESIAN_POINT('',(15.0718237498936,2.10893573026017,-17.4491497458913));
#1393=CARTESIAN_POINT('',(23.3218237498936,-3.00000004470348,-17.4491497458913));
#1394=CARTESIAN_POINT('Origin',(23.3218237498936,-3.00000004470348,-21.0000003129244));
#1395=CARTESIAN_POINT('',(15.0718237498936,-3.00000004470348,-23.2500003129244));
#1396=CARTESIAN_POINT('Origin',(15.0718237498936,-3.00000004470348,-21.0000003129244));
#1397=CARTESIAN_POINT('',(23.3218237498936,-3.00000004470348,-23.2500003129244));
#1398=CARTESIAN_POINT('Origin',(23.3218237498936,-3.00000004470348,-21.0000003129244));
#1399=CARTESIAN_POINT('Origin',(15.0718237498936,-3.00000004470348,-21.0000003129244));
#1400=CARTESIAN_POINT('Origin',(15.0718237498936,28.5366269435592,-19.8052093227901));
#1401=CARTESIAN_POINT('',(15.0718237498936,38.1366269435593,-19.8085391403459));
#1402=CARTESIAN_POINT('',(15.0718237498936,42.1866269435592,-19.8085391403459));
#1403=CARTESIAN_POINT('',(15.0718237498936,38.1366269435593,-20.3385391403459));
#1404=CARTESIAN_POINT('',(15.0718237498936,38.1366269435593,-20.1362560409076));
#1405=CARTESIAN_POINT('',(15.0718237498936,5.83662694355931,-20.3385391403459));
#1406=CARTESIAN_POINT('',(15.0718237498936,55.9366269435592,-20.3385391403459));
#1407=CARTESIAN_POINT('',(15.0718237498936,5.83662694355931,-19.7585391403459));
#1408=CARTESIAN_POINT('',(15.0718237498936,5.83662694355931,-20.3385391403459));
#1409=CARTESIAN_POINT('',(15.0718237498936,1.13662694355914,-19.7585391403459));
#1410=CARTESIAN_POINT('',(15.0718237498936,5.83662694355931,-19.7585391403459));
#1411=CARTESIAN_POINT('',(15.0718237498936,1.13662694355915,-27.5385391403459));
#1412=CARTESIAN_POINT('',(15.0718237498936,1.13662694355914,-17.2718795052343));
#1413=CARTESIAN_POINT('',(15.0718237498936,1.13662694355915,-27.5385391403459));
#1414=CARTESIAN_POINT('',(15.0718237498936,55.9366269435592,-17.2718795052343));
#1415=CARTESIAN_POINT('Origin',(33.3218237498936,1.50000002235174,-17.4491497458913));
#1416=CARTESIAN_POINT('',(33.5218237498936,1.13662694355914,-17.4491497458913));
#1417=CARTESIAN_POINT('',(37.4468237498936,1.13662694355914,-17.4491497458913));
#1418=CARTESIAN_POINT('',(33.5218237498936,-3.00000004470348,-17.4491497458913));
#1419=CARTESIAN_POINT('',(33.5218237498936,-0.512712636170338,-17.4491497458913));
#1420=CARTESIAN_POINT('',(33.3218237498936,-3.00000004470348,-17.4491497458913));
#1421=CARTESIAN_POINT('Origin',(33.3218237498936,-3.00000004470348,-21.0000003129244));
#1422=CARTESIAN_POINT('',(33.5218237498936,-3.00000004470348,-18.7500003129244));
#1423=CARTESIAN_POINT('',(33.3218237498936,-3.00000004470348,-18.7500003129244));
#1424=CARTESIAN_POINT('Origin',(33.5218237498936,-3.00000004470348,-21.0000003129244));
#1425=CARTESIAN_POINT('Origin',(33.3218237498936,0.218468485878108,-19.5000002905726));
#1426=CARTESIAN_POINT('',(33.5218237498936,1.13662694355914,-19.5000002905726));
#1427=CARTESIAN_POINT('',(37.4468237498936,1.13662694355914,-19.5000002905726));
#1428=CARTESIAN_POINT('',(33.5218237498936,0.218468485878108,-19.5000002905726));
#1429=CARTESIAN_POINT('',(33.3218237498936,0.218468485878108,-19.5000002905726));
#1430=CARTESIAN_POINT('',(33.5218237498936,-1.15347840440716,-19.5000002905726));
#1431=CARTESIAN_POINT('Origin',(33.3218237498936,-3.00000004470348,-21.0000003129244));
#1432=CARTESIAN_POINT('Origin',(33.5218237498936,-3.00000004470348,-21.0000003129244));
#1433=CARTESIAN_POINT('Origin',(33.5218237498936,-2.52542529469242,-21.0000003129244));
#1434=CARTESIAN_POINT('',(33.5218237498936,1.13662694355914,-20.3792697266351));
#1435=CARTESIAN_POINT('Origin',(41.5718237498936,1.13662694355914,-19.7585391403459));
#1436=CARTESIAN_POINT('',(41.5718237498936,1.13662694355914,-19.7585391403459));
#1437=CARTESIAN_POINT('',(41.5718237498936,1.13662694355914,-17.2718795052343));
#1438=CARTESIAN_POINT('Origin',(21.2718237498939,38.2366269435593,-19.8085391403459));
#1439=CARTESIAN_POINT('',(21.2718237498939,38.1366269435593,-19.8085391403459));
#1440=CARTESIAN_POINT('Origin',(21.2718237498939,38.1366269435593,-20.467302759025));
#1441=CARTESIAN_POINT('',(31.4218237498937,38.1366269435593,-20.3385391403459));
#1442=CARTESIAN_POINT('Origin',(41.5718237498936,55.9366269435592,-20.3385391403459));
#1443=CARTESIAN_POINT('',(41.5718237498936,5.83662694355931,-20.3385391403459));
#1444=CARTESIAN_POINT('',(38.1722742724319,25.0452850845206,-20.3385391403459));
#1445=CARTESIAN_POINT('',(18.4722742724319,25.0452850845206,-20.3385391403459));
#1446=CARTESIAN_POINT('',(29.9470490111628,25.0452850845206,-20.3385391403459));
#1447=CARTESIAN_POINT('',(18.4722742724319,5.9310133550095,-20.3385391403459));
#1448=CARTESIAN_POINT('',(18.4722742724319,35.7148880816621,-20.3385391403459));
#1449=CARTESIAN_POINT('',(38.1722742724319,5.9310133550095,-20.3385391403459));
#1450=CARTESIAN_POINT('',(29.9470490111628,5.9310133550095,-20.3385391403459));
#1451=CARTESIAN_POINT('',(38.1722742724319,35.7148880816621,-20.3385391403459));
#1452=CARTESIAN_POINT('Origin',(41.5718237498936,1.13662694355914,-17.2718795052343));
#1453=CARTESIAN_POINT('Origin',(41.5718237498936,5.83662694355931,-19.7585391403459));
#1454=CARTESIAN_POINT('',(41.5718237498936,5.83662694355931,-19.7585391403459));
#1455=CARTESIAN_POINT('Origin',(41.5718237498936,5.83662694355931,-20.3385391403459));
#1456=CARTESIAN_POINT('Origin',(18.3222742724319,14.781465037021,-22.460010085945));
#1457=CARTESIAN_POINT('',(18.4722742724319,14.7494199742864,-22.3570386176912));
#1458=CARTESIAN_POINT('',(18.4722742724319,15.1256943857369,-23.566133726486));
#1459=CARTESIAN_POINT('',(18.4722742724319,14.7560727839569,-22.3784163127657));
#1460=CARTESIAN_POINT('',(38.1722742724319,15.1256943857369,-23.566133726486));
#1461=CARTESIAN_POINT('',(18.3222742724319,15.1256943857369,-23.566133726486));
#1462=CARTESIAN_POINT('',(38.1722742724319,14.7494199742864,-22.3570386176912));
#1463=CARTESIAN_POINT('',(38.1722742724319,14.7560727839569,-22.3784163127657));
#1464=CARTESIAN_POINT('',(18.3222742724319,14.7494199742864,-22.3570386176912));
#1465=CARTESIAN_POINT('Origin',(18.3222742724319,5.7910133550098,-22.3570386176912));
#1466=CARTESIAN_POINT('',(18.4722742724319,5.93101335500978,-22.3570386176912));
#1467=CARTESIAN_POINT('',(18.4722742724319,10.6420812873874,-22.3570386176912));
#1468=CARTESIAN_POINT('',(38.1722742724319,5.93101335500978,-22.3570386176912));
#1469=CARTESIAN_POINT('',(38.1722742724319,10.6420812873874,-22.3570386176912));
#1470=CARTESIAN_POINT('',(18.3222742724319,5.93101335500978,-22.3570386176912));
#1471=CARTESIAN_POINT('Origin',(18.3222742724319,5.93101335500951,-20.4570386176911));
#1472=CARTESIAN_POINT('',(18.4722742724319,5.93101335500963,-21.2582891851428));
#1473=CARTESIAN_POINT('',(38.1722742724319,5.93101335500963,-21.2582891851428));
#1474=CARTESIAN_POINT('Origin',(18.3222742724319,25.0452850845206,-22.4684314859649));
#1475=CARTESIAN_POINT('',(18.4722742724319,25.0452850845206,-22.3855776631308));
#1476=CARTESIAN_POINT('',(18.4722742724319,25.0452850845206,-22.2639856192791));
#1477=CARTESIAN_POINT('',(38.1722742724319,25.0452850845206,-22.3855776631308));
#1478=CARTESIAN_POINT('',(38.1722742724319,25.0452850845206,-22.2639856192791));
#1479=CARTESIAN_POINT('',(18.3222742724319,25.0452850845206,-22.3855776631308));
#1480=CARTESIAN_POINT('Origin',(18.3222742724319,15.1541962033181,-23.5627416516934));
#1481=CARTESIAN_POINT('',(18.4722742724319,15.4095064653369,-23.5323565191798));
#1482=CARTESIAN_POINT('',(38.1722742724319,15.4095064653369,-23.5323565191798));
#1483=CARTESIAN_POINT('Origin',(38.1722742724319,15.493149219765,-22.0595397525932));
#1484=CARTESIAN_POINT('Origin',(18.4722742724319,15.493149219765,-22.0595397525932));
#1485=CARTESIAN_POINT('',(0.,0.,0.));
#1486=CARTESIAN_POINT('Origin',(41.5718237498936,20.7390044043537,-33.9528160043735));
#1487=CARTESIAN_POINT('',(15.0718237498936,20.7390044043525,-23.1741033678489));
#1488=CARTESIAN_POINT('',(15.0718237498936,20.7390044043537,-25.8981424663563));
#1489=CARTESIAN_POINT('',(15.0718237498936,20.7390044043537,-30.840203040027));
#1490=CARTESIAN_POINT('',(41.5718237498936,20.7390044043537,-23.1741033678487));
#1491=CARTESIAN_POINT('',(41.5718237498936,20.7390044043523,-23.1741033678489));
#1492=CARTESIAN_POINT('',(41.5718237498936,20.7390044043537,-25.8981424663563));
#1493=CARTESIAN_POINT('',(41.5718237498936,20.7390044043536,-30.840203040027));
#1494=CARTESIAN_POINT('',(37.6742012106879,20.7390044043537,-29.795765005562));
#1495=CARTESIAN_POINT('',(37.8081553653893,20.7390044043537,-29.6618108508606));
#1496=CARTESIAN_POINT('',(18.9694462890992,20.7390044043537,-29.795765005562));
#1497=CARTESIAN_POINT('',(41.5718237498936,20.7390044043537,-29.795765005562));
#1498=CARTESIAN_POINT('',(25.4604921343979,20.7390044043537,-36.2868108508606));
#1499=CARTESIAN_POINT('Origin',(18.5718237498936,42.2366269435592,-29.3981424663563));
#1500=CARTESIAN_POINT('',(22.0718237498936,17.6366269435593,-32.8981424663563));
#1501=CARTESIAN_POINT('',(18.3884904165603,21.3199602768926,-29.214809133023));
#1502=CARTESIAN_POINT('',(22.0718237498936,1.13662694355914,-32.8981424663563));
#1503=CARTESIAN_POINT('',(22.0718237498936,42.2366269435592,-32.8981424663563));
#1504=CARTESIAN_POINT('',(15.0718237498936,1.13662694355915,-25.8981424663563));
#1505=CARTESIAN_POINT('',(25.1968237498936,1.13662694355915,-36.0231424663563));
#1506=CARTESIAN_POINT('',(15.0718237498936,42.2366269435592,-25.8981424663563));
#1507=CARTESIAN_POINT('Origin',(41.5718237498936,22.6366269435593,-27.8981424663563));
#1508=CARTESIAN_POINT('',(34.5718237498936,17.6366269435593,-32.8981424663563));
#1509=CARTESIAN_POINT('',(42.6718237498936,25.7366269435593,-24.7981424663564));
#1510=CARTESIAN_POINT('',(41.5718237498936,17.6366269435593,-32.8981424663563));
#1511=CARTESIAN_POINT('Origin',(38.0718237498936,42.2366269435592,-29.3981424663563));
#1512=CARTESIAN_POINT('',(41.5718237498936,1.13662694355915,-25.8981424663563));
#1513=CARTESIAN_POINT('',(41.5718237498936,42.2366269435592,-25.8981424663563));
#1514=CARTESIAN_POINT('',(34.5718237498936,1.13662694355914,-32.8981424663563));
#1515=CARTESIAN_POINT('',(38.0718237498936,1.13662694355915,-29.3981424663563));
#1516=CARTESIAN_POINT('',(34.5718237498936,42.2366269435592,-32.8981424663563));
#1517=CARTESIAN_POINT('Origin',(41.5718237498936,26.3827641884212,-22.5770376850045));
#1518=CARTESIAN_POINT('',(15.0718237498936,15.0952446202863,-23.7711690506929));
#1519=CARTESIAN_POINT('',(15.0718237498936,27.1783473130055,-22.4928712073879));
#1520=CARTESIAN_POINT('',(41.5718237498936,15.0952446202863,-23.7711690506929));
#1521=CARTESIAN_POINT('',(41.5718237498936,15.0952446202863,-23.7711690506929));
#1522=CARTESIAN_POINT('',(41.5718237498936,27.1783473130055,-22.4928712073879));
#1523=CARTESIAN_POINT('',(15.897499594115,16.1952850845204,-23.6547933656773));
#1524=CARTESIAN_POINT('Origin',(16.697499594115,16.1952850845204,-23.6547933656773));
#1525=CARTESIAN_POINT('',(39.1479499958253,16.1952850845204,-23.6547933656773));
#1526=CARTESIAN_POINT('Origin',(39.9479499958253,16.1952850845204,-23.6547933656773));
#1527=CARTESIAN_POINT('Origin',(15.0718237498936,28.5366269435592,-27.7275900756804));
#1528=CARTESIAN_POINT('',(15.0718237498936,1.13662694355915,-22.5570376850045));
#1529=CARTESIAN_POINT('',(15.0718237498936,1.13662694355915,-27.5385391403459));
#1530=CARTESIAN_POINT('',(15.0718237498936,14.7174029114549,-22.5570376868256));
#1531=CARTESIAN_POINT('',(15.0718237498936,1.13662694355914,-22.5570376850045));
#1532=CARTESIAN_POINT('',(15.0718237498936,14.7174031992278,-22.5570386176912));
#1533=CARTESIAN_POINT('Origin',(41.5718237498936,28.5366269435592,-27.7275900756804));
#1534=CARTESIAN_POINT('',(41.5718237498936,14.7174029114549,-22.5570376868256));
#1535=CARTESIAN_POINT('',(41.5718237498936,14.7174031992278,-22.5570386176912));
#1536=CARTESIAN_POINT('',(41.5718237498936,1.13662694355915,-22.5570376850045));
#1537=CARTESIAN_POINT('',(41.5718237498936,1.13662694355914,-22.5570376850045));
#1538=CARTESIAN_POINT('',(41.5718237498936,1.13662694355915,-27.5385391403459));
#1539=CARTESIAN_POINT('Origin',(16.697499594115,16.1952850845204,-22.3570386176912));
#1540=CARTESIAN_POINT('',(15.897499594115,16.1952850845204,-25.3570386176912));
#1541=CARTESIAN_POINT('',(15.897499594115,16.1952850845204,-22.3570386176912));
#1542=CARTESIAN_POINT('Origin',(16.697499594115,16.1952850845204,-25.3570386176912));
#1543=CARTESIAN_POINT('Origin',(16.697499594115,16.1952850845204,-25.3570386176912));
#1544=CARTESIAN_POINT('Origin',(39.9479499958253,16.1952850845204,-22.3570386176912));
#1545=CARTESIAN_POINT('',(39.1479499958253,16.1952850845204,-25.3570386176912));
#1546=CARTESIAN_POINT('',(39.1479499958253,16.1952850845204,-22.3570386176912));
#1547=CARTESIAN_POINT('Origin',(39.9479499958253,16.1952850845204,-25.3570386176912));
#1548=CARTESIAN_POINT('Origin',(39.9479499958253,16.1952850845204,-25.3570386176912));
#1549=CARTESIAN_POINT('Origin',(34.9468237498936,2.79300083528032,-21.3016758100319));
#1550=CARTESIAN_POINT('',(23.3218237498936,1.13662694355915,-22.8244776783269));
#1551=CARTESIAN_POINT('',(23.3218237498936,0.546045525995381,-21.1846636821296));
#1552=CARTESIAN_POINT('Origin',(23.3218237498936,2.79300083528032,-21.3016758100319));
#1553=CARTESIAN_POINT('',(33.3218237498936,0.546045525995381,-21.1846636821296));
#1554=CARTESIAN_POINT('',(34.9468237498936,0.546045525995381,-21.1846636821296));
#1555=CARTESIAN_POINT('',(33.3218237498936,1.13662694355915,-22.8244776783269));
#1556=CARTESIAN_POINT('Origin',(33.3218237498936,2.79300083528032,-21.3016758100319));
#1557=CARTESIAN_POINT('',(34.9468237498936,1.13662694355915,-22.8244776783269));
#1558=CARTESIAN_POINT('Origin',(34.9468237498936,-1.11337305644085,-26.8008508799575));
#1559=CARTESIAN_POINT('',(33.3218237498936,1.13662694355915,-26.8008508799575));
#1560=CARTESIAN_POINT('',(33.3218237498936,-1.11337305644085,-24.5508508799575));
#1561=CARTESIAN_POINT('Origin',(33.3218237498936,-1.11337305644085,-26.8008508799575));
#1562=CARTESIAN_POINT('',(23.3218237498936,-1.11337305644085,-24.5508508799575));
#1563=CARTESIAN_POINT('',(34.9468237498936,-1.11337305644085,-24.5508508799575));
#1564=CARTESIAN_POINT('',(23.3218237498936,1.13662694355915,-26.8008508799575));
#1565=CARTESIAN_POINT('Origin',(23.3218237498936,-1.11337305644085,-26.8008508799575));
#1566=CARTESIAN_POINT('',(34.9468237498936,1.13662694355915,-26.8008508799575));
#1567=CARTESIAN_POINT('Origin',(28.3218237498936,-3.00000004470348,-24.5508508799575));
#1568=CARTESIAN_POINT('',(33.3218237498936,-3.00000004470348,-24.5508508799575));
#1569=CARTESIAN_POINT('',(33.3218237498936,2.51617932465092,-24.5508508799575));
#1570=CARTESIAN_POINT('',(23.3218237498936,-3.00000004470348,-24.5508508799575));
#1571=CARTESIAN_POINT('',(28.3218237498936,-3.00000004470348,-24.5508508799575));
#1572=CARTESIAN_POINT('',(23.3218237498936,2.51617932465092,-24.5508508799575));
#1573=CARTESIAN_POINT('Origin',(23.3218237498936,-2.01733564354283,-21.0000003129244));
#1574=CARTESIAN_POINT('',(23.3218237498936,1.13662694355915,-26.9490713896404));
#1575=CARTESIAN_POINT('Origin',(23.3218237498936,-3.00000004470348,-21.0000003129244));
#1576=CARTESIAN_POINT('',(23.3218237498936,-3.00000004470348,-18.7500003129244));
#1577=CARTESIAN_POINT('Origin',(23.3218237498936,-3.00000004470348,-21.0000003129244));
#1578=CARTESIAN_POINT('Origin',(28.3218237498936,-3.00000004470348,-21.0000003129244));
#1579=CARTESIAN_POINT('',(33.3218237498936,-3.00000004470348,-18.7500003129244));
#1580=CARTESIAN_POINT('Origin',(33.3218237498936,-3.00000004470348,-21.0000003129244));
#1581=CARTESIAN_POINT('',(28.3218237498936,-3.00000004470348,-18.7500003129244));
#1582=CARTESIAN_POINT('Origin',(28.3218237498936,-3.00000004470348,-21.0000003129244));
#1583=CARTESIAN_POINT('Origin',(33.3218237498936,-3.00000004470348,-21.0000003129244));
#1584=CARTESIAN_POINT('Origin',(33.3218237498936,-2.01733564354283,-21.0000003129244));
#1585=CARTESIAN_POINT('',(33.3218237498936,1.13662694355915,-26.9490713896404));
#1586=CARTESIAN_POINT('Origin',(41.5718237498936,14.7174029097085,-22.5570376873691));
#1587=CARTESIAN_POINT('',(41.5718237498936,14.7174029114549,-22.5570376868256));
#1588=CARTESIAN_POINT('Origin',(41.5718237498936,1.13662694355915,-22.5570376850045));
#1589=CARTESIAN_POINT('',(41.5718237498936,1.13662694355915,-22.5570376850045));
#1590=CARTESIAN_POINT('Origin',(41.5718237498936,1.13662694355915,-32.8981424663563));
#1591=CARTESIAN_POINT('',(41.5718237498936,1.13662694355914,-32.8981424663563));
#1592=CARTESIAN_POINT('Origin',(41.5718237498936,55.9366269435592,-32.8981424663563));
#1593=CARTESIAN_POINT('',(2.14052208948464,0.711794763005009,17.5768422532841));
#1594=CARTESIAN_POINT('',(2.1405220894846,0.711794763004968,17.5768422532838));
#1595=UNCERTAINTY_MEASURE_WITH_UNIT(LENGTH_MEASURE(0.01),#1603,
'DISTANCE_ACCURACY_VALUE',
'Maximum model space distance between geometric entities at asserted c
onnectivities');
#1596=UNCERTAINTY_MEASURE_WITH_UNIT(LENGTH_MEASURE(0.01),#1603,
'DISTANCE_ACCURACY_VALUE',
'Maximum model space distance between geometric entities at asserted c
onnectivities');
#1597=UNCERTAINTY_MEASURE_WITH_UNIT(LENGTH_MEASURE(0.01),#1603,
'DISTANCE_ACCURACY_VALUE',
'Maximum model space distance between geometric entities at asserted c
onnectivities');
#1598=UNCERTAINTY_MEASURE_WITH_UNIT(LENGTH_MEASURE(0.01),#1603,
'DISTANCE_ACCURACY_VALUE',
'Maximum model space distance between geometric entities at asserted c
onnectivities');
#1599=(
GEOMETRIC_REPRESENTATION_CONTEXT(3)
GLOBAL_UNCERTAINTY_ASSIGNED_CONTEXT((#1595))
GLOBAL_UNIT_ASSIGNED_CONTEXT((#1603,#1605,#1606))
REPRESENTATION_CONTEXT('','3D')
);
#1600=(
GEOMETRIC_REPRESENTATION_CONTEXT(3)
GLOBAL_UNCERTAINTY_ASSIGNED_CONTEXT((#1596))
GLOBAL_UNIT_ASSIGNED_CONTEXT((#1603,#1605,#1606))
REPRESENTATION_CONTEXT('','3D')
);
#1601=(
GEOMETRIC_REPRESENTATION_CONTEXT(3)
GLOBAL_UNCERTAINTY_ASSIGNED_CONTEXT((#1597))
GLOBAL_UNIT_ASSIGNED_CONTEXT((#1603,#1605,#1606))
REPRESENTATION_CONTEXT('','3D')
);
#1602=(
GEOMETRIC_REPRESENTATION_CONTEXT(3)
GLOBAL_UNCERTAINTY_ASSIGNED_CONTEXT((#1598))
GLOBAL_UNIT_ASSIGNED_CONTEXT((#1603,#1605,#1606))
REPRESENTATION_CONTEXT('','3D')
);
#1603=(
LENGTH_UNIT()
NAMED_UNIT(*)
SI_UNIT(.MILLI.,.METRE.)
);
#1604=(
LENGTH_UNIT()
NAMED_UNIT(*)
SI_UNIT($,.METRE.)
);
#1605=(
NAMED_UNIT(*)
PLANE_ANGLE_UNIT()
SI_UNIT($,.RADIAN.)
);
#1606=(
NAMED_UNIT(*)
SI_UNIT($,.STERADIAN.)
SOLID_ANGLE_UNIT()
);
#1607=SHAPE_DEFINITION_REPRESENTATION(#1610,#1615);
#1608=SHAPE_DEFINITION_REPRESENTATION(#1611,#1616);
#1609=SHAPE_DEFINITION_REPRESENTATION(#1612,#1617);
#1610=PRODUCT_DEFINITION_SHAPE('',$,#1619);
#1611=PRODUCT_DEFINITION_SHAPE('',$,#1620);
#1612=PRODUCT_DEFINITION_SHAPE('',$,#1621);
#1613=PRODUCT_DEFINITION_SHAPE($,$,#17);
#1614=PRODUCT_DEFINITION_SHAPE($,$,#18);
#1615=SHAPE_REPRESENTATION('',(#987,#1061,#1062),#1599);
#1616=SHAPE_REPRESENTATION('',(#988),#1600);
#1617=SHAPE_REPRESENTATION('',(#1026),#1601);
#1618=PRODUCT_DEFINITION_CONTEXT('part definition',#1629,'design');
#1619=PRODUCT_DEFINITION('holder-p2','holder-p2 v25',#1622,#1618);
#1620=PRODUCT_DEFINITION('Component1','Component1',#1623,#1618);
#1621=PRODUCT_DEFINITION('Component2','Component2',#1624,#1618);
#1622=PRODUCT_DEFINITION_FORMATION('',$,#1631);
#1623=PRODUCT_DEFINITION_FORMATION('',$,#1632);
#1624=PRODUCT_DEFINITION_FORMATION('',$,#1633);
#1625=PRODUCT_RELATED_PRODUCT_CATEGORY('holder-p2 v25','holder-p2 v25',
(#1631));
#1626=PRODUCT_RELATED_PRODUCT_CATEGORY('Component1','Component1',(#1632));
#1627=PRODUCT_RELATED_PRODUCT_CATEGORY('Component2','Component2',(#1633));
#1628=APPLICATION_PROTOCOL_DEFINITION('international standard',
'automotive_design',2009,#1629);
#1629=APPLICATION_CONTEXT(
'Core Data for Automotive Mechanical Design Process');
#1630=PRODUCT_CONTEXT('part definition',#1629,'mechanical');
#1631=PRODUCT('holder-p2','holder-p2 v25',$,(#1630));
#1632=PRODUCT('Component1','Component1',$,(#1630));
#1633=PRODUCT('Component2','Component2',$,(#1630));
#1634=PRESENTATION_STYLE_ASSIGNMENT((#1635));
#1635=SURFACE_STYLE_USAGE(.BOTH.,#1636);
#1636=SURFACE_SIDE_STYLE('',(#1637));
#1637=SURFACE_STYLE_FILL_AREA(#1638);
#1638=FILL_AREA_STYLE('Steel - Satin',(#1639));
#1639=FILL_AREA_STYLE_COLOUR('Steel - Satin',#1640);
#1640=COLOUR_RGB('Steel - Satin',0.627450980392157,0.627450980392157,0.627450980392157);
ENDSEC;
END-ISO-10303-21;
